Besley-CondensedRegular.ufo
<glyph name="parenleft" format="2">
  <advance width="740"/>
  <unicode hex="0028"/>
  <outline>
    <contour>
      <point x="673" y="-276" type="curve" smooth="yes"/>
      <point x="664" y="-318" type="line" smooth="yes"/>
      <point x="659" y="-342"/>
      <point x="658" y="-341"/>
      <point x="635" y="-334" type="curve" smooth="yes"/>
      <point x="305" y="-226"/>
      <point x="110" y="134"/>
      <point x="110" y="650" type="curve" smooth="yes"/>
      <point x="110" y="1155"/>
      <point x="294" y="1474"/>
      <point x="607" y="1587" type="curve" smooth="yes"/>
      <point x="635" y="1597"/>
      <point x="658" y="1604"/>
      <point x="665" y="1569" type="curve" smooth="yes"/>
      <point x="674" y="1530" type="line" smooth="yes"/>
      <point x="681" y="1497"/>
      <point x="676" y="1503"/>
      <point x="648" y="1490" type="curve" smooth="yes"/>
      <point x="423" y="1382"/>
      <point x="340" y="1099"/>
      <point x="340" y="650" type="curve" smooth="yes"/>
      <point x="340" y="198"/>
      <point x="425" y="-123"/>
      <point x="654" y="-232" type="curve" smooth="yes"/>
      <point x="682" y="-245"/>
      <point x="679" y="-245"/>
    </contour>
  </outline>
</glyph>
<glyph name="parenright" format="2">
  <advance width="740"/>
  <unicode hex="0029"/>
  <outline>
    <contour>
      <point x="67" y="1536" type="curve" smooth="yes"/>
      <point x="76" y="1578" type="line" smooth="yes"/>
      <point x="81" y="1602"/>
      <point x="82" y="1601"/>
      <point x="105" y="1594" type="curve" smooth="yes"/>
      <point x="435" y="1486"/>
      <point x="630" y="1126"/>
      <point x="630" y="610" type="curve" smooth="yes"/>
      <point x="630" y="105"/>
      <point x="446" y="-214"/>
      <point x="133" y="-327" type="curve" smooth="yes"/>
      <point x="105" y="-337"/>
      <point x="82" y="-344"/>
      <point x="75" y="-309" type="curve" smooth="yes"/>
      <point x="66" y="-270" type="line" smooth="yes"/>
      <point x="59" y="-237"/>
      <point x="64" y="-243"/>
      <point x="92" y="-230" type="curve" smooth="yes"/>
      <point x="317" y="-122"/>
      <point x="400" y="161"/>
      <point x="400" y="610" type="curve" smooth="yes"/>
      <point x="400" y="1062"/>
      <point x="315" y="1383"/>
      <point x="86" y="1492" type="curve" smooth="yes"/>
      <point x="58" y="1505"/>
      <point x="61" y="1505"/>
    </contour>
  </outline>
</glyph>
<glyph name="one" format="2">
  <advance height="2310" width="700"/>
  <unicode hex="0031"/>
  <outline>
    <contour>
      <point x="80" y="38" type="curve" smooth="yes"/>
      <point x="80" y="80" type="line" smooth="yes"/>
      <point x="80" y="109"/>
      <point x="91" y="110"/>
      <point x="120" y="110" type="curve" smooth="yes"/>
      <point x="228" y="110" type="line" smooth="yes"/>
      <point x="264" y="110"/>
      <point x="270" y="118"/>
      <point x="270" y="152" type="curve" smooth="yes"/>
      <point x="270" y="1173" type="line" smooth="yes"/>
      <point x="270" y="1209"/>
      <point x="267" y="1220"/>
      <point x="232" y="1220" type="curve" smooth="yes"/>
      <point x="128" y="1220" type="line" smooth="yes"/>
      <point x="99" y="1220"/>
      <point x="84" y="1222"/>
      <point x="84" y="1254" type="curve" smooth="yes"/>
      <point x="84" y="1284" type="line" smooth="yes"/>
      <point x="84" y="1320"/>
      <point x="88" y="1329"/>
      <point x="126" y="1330" type="curve" smooth="yes"/>
      <point x="200" y="1331"/>
      <point x="305" y="1345"/>
      <point x="352" y="1538" type="curve" smooth="yes"/>
      <point x="358" y="1561"/>
      <point x="360" y="1580"/>
      <point x="394" y="1580" type="curve" smooth="yes"/>
      <point x="422" y="1580" type="line" smooth="yes"/>
      <point x="447" y="1580"/>
      <point x="460" y="1579"/>
      <point x="460" y="1554" type="curve" smooth="yes"/>
      <point x="460" y="162" type="line" smooth="yes"/>
      <point x="460" y="115"/>
      <point x="466" y="110"/>
      <point x="514" y="110" type="curve" smooth="yes"/>
      <point x="586" y="110" type="line" smooth="yes"/>
      <point x="612" y="110"/>
      <point x="630" y="109"/>
      <point x="630" y="80" type="curve" smooth="yes"/>
      <point x="630" y="40" type="line" smooth="yes"/>
      <point x="630" y="8"/>
      <point x="627" y="0"/>
      <point x="596" y="0" type="curve" smooth="yes"/>
      <point x="114" y="0" type="line" smooth="yes"/>
      <point x="84" y="0"/>
      <point x="80" y="7"/>
    </contour>
  </outline>
</glyph>
<glyph name="two" format="2">
  <advance height="2310" width="840"/>
  <unicode hex="0032"/>
  <outline>
    <contour>
      <point x="770" y="325" type="curve" smooth="yes"/>
      <point x="785" y="63"/>
      <point x="723" y="-20"/>
      <point x="600" y="-20" type="curve" smooth="yes"/>
      <point x="436" y="-20"/>
      <point x="396" y="100"/>
      <point x="300" y="100" type="curve" smooth="yes"/>
      <point x="241" y="100"/>
      <point x="210" y="73"/>
      <point x="190" y="30" type="curve" smooth="yes"/>
      <point x="183" y="13"/>
      <point x="178" y="0"/>
      <point x="151" y="0" type="curve" smooth="yes"/>
      <point x="103" y="0" type="line" smooth="yes"/>
      <point x="82" y="0"/>
      <point x="80" y="10"/>
      <point x="80" y="29" type="curve" smooth="yes"/>
      <point x="89" y="307"/>
      <point x="185" y="501"/>
      <point x="364" y="698" type="curve" smooth="yes"/>
      <point x="466" y="810"/>
      <point x="554" y="942"/>
      <point x="554" y="1170" type="curve" smooth="yes"/>
      <point x="554" y="1348"/>
      <point x="512" y="1426"/>
      <point x="384" y="1426" type="curve" smooth="yes"/>
      <point x="277" y="1426"/>
      <point x="240" y="1358"/>
      <point x="240" y="1324" type="curve" smooth="yes"/>
      <point x="240" y="1278"/>
      <point x="364" y="1258"/>
      <point x="364" y="1146" type="curve" smooth="yes"/>
      <point x="364" y="1072"/>
      <point x="299" y="1030"/>
      <point x="245" y="1030" type="curve" smooth="yes"/>
      <point x="187" y="1030"/>
      <point x="102" y="1086"/>
      <point x="102" y="1212" type="curve" smooth="yes"/>
      <point x="102" y="1346"/>
      <point x="190" y="1520"/>
      <point x="454" y="1520" type="curve" smooth="yes"/>
      <point x="686" y="1520"/>
      <point x="776" y="1390"/>
      <point x="776" y="1170" type="curve" smooth="yes"/>
      <point x="776" y="930"/>
      <point x="648" y="755"/>
      <point x="414" y="580" type="curve" smooth="yes"/>
      <point x="298" y="493"/>
      <point x="223" y="339"/>
      <point x="200" y="204" type="curve" smooth="yes"/>
      <point x="193" y="163"/>
      <point x="170" y="134"/>
      <point x="186" y="134" type="curve" smooth="yes"/>
      <point x="205" y="134"/>
      <point x="211" y="157"/>
      <point x="230" y="191" type="curve" smooth="yes"/>
      <point x="256" y="238"/>
      <point x="300" y="269"/>
      <point x="380" y="269" type="curve" smooth="yes"/>
      <point x="480" y="269"/>
      <point x="510" y="181"/>
      <point x="602" y="181" type="curve" smooth="yes"/>
      <point x="659" y="181"/>
      <point x="668" y="235"/>
      <point x="675" y="327" type="curve" smooth="yes"/>
      <point x="678" y="350"/>
      <point x="677" y="354"/>
      <point x="703" y="354" type="curve" smooth="yes"/>
      <point x="744" y="354" type="line" smooth="yes"/>
      <point x="767" y="354"/>
      <point x="769" y="349"/>
    </contour>
  </outline>
</glyph>
<glyph name="three" format="2">
  <advance height="2310" width="780"/>
  <unicode hex="0033"/>
  <outline>
    <contour>
      <point x="50" y="248" type="curve" smooth="yes"/>
      <point x="50" y="344"/>
      <point x="100" y="430"/>
      <point x="178" y="430" type="curve" smooth="yes"/>
      <point x="252" y="430"/>
      <point x="292" y="388"/>
      <point x="292" y="314" type="curve" smooth="yes"/>
      <point x="292" y="202"/>
      <point x="188" y="202"/>
      <point x="188" y="156" type="curve" smooth="yes"/>
      <point x="188" y="102"/>
      <point x="254" y="63"/>
      <point x="322" y="63" type="curve" smooth="yes"/>
      <point x="490" y="63"/>
      <point x="528" y="232"/>
      <point x="528" y="380" type="curve" smooth="yes"/>
      <point x="528" y="564"/>
      <point x="472" y="705"/>
      <point x="324" y="717" type="curve" smooth="yes"/>
      <point x="278" y="721"/>
      <point x="234" y="703"/>
      <point x="234" y="762" type="curve" smooth="yes"/>
      <point x="234" y="780" type="line" smooth="yes"/>
      <point x="234" y="839"/>
      <point x="279" y="823"/>
      <point x="324" y="826" type="curve" smooth="yes"/>
      <point x="465" y="834"/>
      <point x="496" y="1026"/>
      <point x="496" y="1142" type="curve" smooth="yes"/>
      <point x="496" y="1290"/>
      <point x="470" y="1436"/>
      <point x="332" y="1436" type="curve" smooth="yes"/>
      <point x="234" y="1436"/>
      <point x="198" y="1390"/>
      <point x="198" y="1336" type="curve" smooth="yes"/>
      <point x="198" y="1290"/>
      <point x="322" y="1300"/>
      <point x="322" y="1188" type="curve" smooth="yes"/>
      <point x="322" y="1114"/>
      <point x="282" y="1072"/>
      <point x="208" y="1072" type="curve" smooth="yes"/>
      <point x="130" y="1072"/>
      <point x="80" y="1158"/>
      <point x="80" y="1254" type="curve" smooth="yes"/>
      <point x="80" y="1378"/>
      <point x="158" y="1520"/>
      <point x="382" y="1520" type="curve" smooth="yes"/>
      <point x="604" y="1520"/>
      <point x="690" y="1382"/>
      <point x="690" y="1182" type="curve" smooth="yes"/>
      <point x="690" y="896"/>
      <point x="601" y="881"/>
      <point x="532" y="834" type="curve" smooth="yes"/>
      <point x="489" y="805"/>
      <point x="446" y="792"/>
      <point x="446" y="770" type="curve" smooth="yes"/>
      <point x="446" y="754"/>
      <point x="483" y="746"/>
      <point x="526" y="733" type="curve" smooth="yes"/>
      <point x="684" y="683"/>
      <point x="730" y="534"/>
      <point x="730" y="380" type="curve" smooth="yes"/>
      <point x="730" y="160"/>
      <point x="604" y="-20"/>
      <point x="322" y="-20" type="curve" smooth="yes"/>
      <point x="148" y="-20"/>
      <point x="50" y="94"/>
    </contour>
  </outline>
</glyph>
<glyph name="five" format="2">
  <advance height="2310" width="840"/>
  <unicode hex="0035"/>
  <outline>
    <contour>
      <point x="60" y="258" type="curve" smooth="yes"/>
      <point x="60" y="364"/>
      <point x="130" y="410"/>
      <point x="188" y="410" type="curve" smooth="yes"/>
      <point x="242" y="410"/>
      <point x="302" y="368"/>
      <point x="302" y="294" type="curve" smooth="yes"/>
      <point x="302" y="222"/>
      <point x="208" y="182"/>
      <point x="208" y="136" type="curve" smooth="yes"/>
      <point x="208" y="102"/>
      <point x="254" y="64"/>
      <point x="332" y="64" type="curve" smooth="yes"/>
      <point x="510" y="64"/>
      <point x="568" y="252"/>
      <point x="568" y="460" type="curve" smooth="yes"/>
      <point x="568" y="728"/>
      <point x="560" y="902"/>
      <point x="422" y="902" type="curve" smooth="yes"/>
      <point x="339" y="902"/>
      <point x="286" y="869"/>
      <point x="234" y="803" type="curve" smooth="yes"/>
      <point x="219" y="783"/>
      <point x="211" y="774"/>
      <point x="173" y="774" type="curve" smooth="yes"/>
      <point x="131" y="774" type="line" smooth="yes"/>
      <point x="93" y="774"/>
      <point x="96" y="788"/>
      <point x="100" y="818" type="curve" smooth="yes"/>
      <point x="183" y="1462" type="line" smooth="yes"/>
      <point x="187" y="1493"/>
      <point x="194" y="1500"/>
      <point x="228" y="1500" type="curve" smooth="yes"/>
      <point x="374" y="1500" type="line" smooth="yes"/>
      <point x="446" y="1500"/>
      <point x="538" y="1469"/>
      <point x="598" y="1536" type="curve" smooth="yes"/>
      <point x="608" y="1547"/>
      <point x="612" y="1564"/>
      <point x="637" y="1564" type="curve" smooth="yes"/>
      <point x="694" y="1564" type="line" smooth="yes"/>
      <point x="708" y="1564"/>
      <point x="711" y="1562"/>
      <point x="708" y="1550" type="curve" smooth="yes"/>
      <point x="696" y="1500" type="line" smooth="yes"/>
      <point x="660" y="1336"/>
      <point x="624" y="1320"/>
      <point x="350" y="1320" type="curve" smooth="yes"/>
      <point x="306" y="1320" type="line" smooth="yes"/>
      <point x="276" y="1320"/>
      <point x="265" y="1316"/>
      <point x="261" y="1288" type="curve" smooth="yes"/>
      <point x="219" y="966" type="line" smooth="yes"/>
      <point x="213" y="918"/>
      <point x="203" y="894"/>
      <point x="211" y="890" type="curve" smooth="yes"/>
      <point x="224" y="884"/>
      <point x="233" y="902"/>
      <point x="266" y="934" type="curve" smooth="yes"/>
      <point x="297" y="964"/>
      <point x="368" y="1000"/>
      <point x="446" y="1000" type="curve" smooth="yes"/>
      <point x="718" y="1000"/>
      <point x="770" y="780"/>
      <point x="770" y="500" type="curve" smooth="yes"/>
      <point x="770" y="200"/>
      <point x="634" y="-20"/>
      <point x="352" y="-20" type="curve" smooth="yes"/>
      <point x="128" y="-20"/>
      <point x="60" y="124"/>
    </contour>
  </outline>
</glyph>
<glyph name="six" format="2">
  <advance height="2310" width="840"/>
  <unicode hex="0036"/>
  <outline>
    <contour>
      <point x="556" y="1392" type="curve" smooth="yes"/>
      <point x="556" y="1418"/>
      <point x="516" y="1436"/>
      <point x="468" y="1436" type="curve" smooth="yes"/>
      <point x="306" y="1436"/>
      <point x="279" y="1193"/>
      <point x="263" y="900" type="curve" smooth="yes"/>
      <point x="261" y="867"/>
      <point x="257" y="854"/>
      <point x="264" y="850" type="curve" smooth="yes"/>
      <point x="272" y="846"/>
      <point x="277" y="859"/>
      <point x="293" y="879" type="curve" smooth="yes"/>
      <point x="330" y="923"/>
      <point x="390" y="960"/>
      <point x="492" y="960" type="curve" smooth="yes"/>
      <point x="694" y="960"/>
      <point x="800" y="800"/>
      <point x="800" y="470" type="curve" smooth="yes"/>
      <point x="800" y="160"/>
      <point x="650" y="-20"/>
      <point x="438" y="-20" type="curve" smooth="yes"/>
      <point x="186" y="-20"/>
      <point x="60" y="180"/>
      <point x="60" y="740" type="curve" smooth="yes"/>
      <point x="60" y="1220"/>
      <point x="186" y="1520"/>
      <point x="488" y="1520" type="curve" smooth="yes"/>
      <point x="622" y="1520"/>
      <point x="720" y="1426"/>
      <point x="720" y="1312" type="curve" smooth="yes"/>
      <point x="720" y="1196"/>
      <point x="650" y="1150"/>
      <point x="592" y="1150" type="curve" smooth="yes"/>
      <point x="538" y="1150"/>
      <point x="478" y="1192"/>
      <point x="478" y="1266" type="curve" smooth="yes"/>
      <point x="478" y="1338"/>
      <point x="556" y="1366"/>
    </contour>
    <contour>
      <point x="600" y="470" type="curve" smooth="yes"/>
      <point x="600" y="698"/>
      <point x="536" y="862"/>
      <point x="428" y="862" type="curve" smooth="yes"/>
      <point x="302" y="862"/>
      <point x="260" y="720"/>
      <point x="260" y="560" type="curve" smooth="yes"/>
      <point x="260" y="262"/>
      <point x="280" y="70"/>
      <point x="438" y="70" type="curve" smooth="yes"/>
      <point x="566" y="70"/>
      <point x="600" y="252"/>
    </contour>
  </outline>
</glyph>
<glyph name="nine" format="2">
  <advance height="2310" width="840"/>
  <unicode hex="0039"/>
  <outline>
    <contour>
      <point x="284" y="108" type="curve" smooth="yes"/>
      <point x="284" y="82"/>
      <point x="324" y="64"/>
      <point x="372" y="64" type="curve" smooth="yes"/>
      <point x="534" y="64"/>
      <point x="561" y="307"/>
      <point x="577" y="600" type="curve" smooth="yes"/>
      <point x="579" y="633"/>
      <point x="583" y="646"/>
      <point x="576" y="650" type="curve" smooth="yes"/>
      <point x="568" y="654"/>
      <point x="563" y="641"/>
      <point x="547" y="621" type="curve" smooth="yes"/>
      <point x="510" y="577"/>
      <point x="450" y="540"/>
      <point x="348" y="540" type="curve" smooth="yes"/>
      <point x="146" y="540"/>
      <point x="40" y="700"/>
      <point x="40" y="1030" type="curve" smooth="yes"/>
      <point x="40" y="1340"/>
      <point x="190" y="1520"/>
      <point x="402" y="1520" type="curve" smooth="yes"/>
      <point x="654" y="1520"/>
      <point x="780" y="1320"/>
      <point x="780" y="760" type="curve" smooth="yes"/>
      <point x="780" y="280"/>
      <point x="654" y="-20"/>
      <point x="352" y="-20" type="curve" smooth="yes"/>
      <point x="218" y="-20"/>
      <point x="120" y="74"/>
      <point x="120" y="188" type="curve" smooth="yes"/>
      <point x="120" y="304"/>
      <point x="190" y="350"/>
      <point x="248" y="350" type="curve" smooth="yes"/>
      <point x="302" y="350"/>
      <point x="362" y="308"/>
      <point x="362" y="234" type="curve" smooth="yes"/>
      <point x="362" y="162"/>
      <point x="284" y="134"/>
    </contour>
    <contour>
      <point x="240" y="1030" type="curve" smooth="yes"/>
      <point x="240" y="802"/>
      <point x="304" y="638"/>
      <point x="412" y="638" type="curve" smooth="yes"/>
      <point x="538" y="638"/>
      <point x="580" y="780"/>
      <point x="580" y="940" type="curve" smooth="yes"/>
      <point x="580" y="1238"/>
      <point x="560" y="1430"/>
      <point x="402" y="1430" type="curve" smooth="yes"/>
      <point x="274" y="1430"/>
      <point x="240" y="1248"/>
    </contour>
  </outline>
</glyph>
<glyph name="less" format="2">
  <advance width="1120"/>
  <unicode hex="003C"/>
  <outline>
    <contour>
      <point x="296" y="752" type="curve" smooth="yes"/>
      <point x="962" y="495" type="line" smooth="yes"/>
      <point x="990" y="484"/>
      <point x="1000" y="477"/>
      <point x="1000" y="437" type="curve" smooth="yes"/>
      <point x="1000" y="395" type="line" smooth="yes"/>
      <point x="1000" y="350"/>
      <point x="983" y="357"/>
      <point x="956" y="367" type="curve" smooth="yes"/>
      <point x="152" y="678" type="line" smooth="yes"/>
      <point x="123" y="689"/>
      <point x="120" y="699"/>
      <point x="120" y="740" type="curve" smooth="yes"/>
      <point x="120" y="820" type="line" smooth="yes"/>
      <point x="120" y="862"/>
      <point x="125" y="862"/>
      <point x="154" y="873" type="curve" smooth="yes"/>
      <point x="966" y="1187" type="line" smooth="yes"/>
      <point x="991" y="1197"/>
      <point x="1000" y="1193"/>
      <point x="1000" y="1159" type="curve" smooth="yes"/>
      <point x="1000" y="1113" type="line" smooth="yes"/>
      <point x="1000" y="1076"/>
      <point x="989" y="1066"/>
      <point x="964" y="1056" type="curve" smooth="yes"/>
      <point x="298" y="799" type="line" smooth="yes"/>
      <point x="267" y="787"/>
      <point x="250" y="787"/>
      <point x="250" y="776" type="curve" smooth="yes"/>
      <point x="250" y="765"/>
      <point x="263" y="765"/>
    </contour>
  </outline>
</glyph>
<glyph name="question" format="2">
  <advance width="1100"/>
  <unicode hex="003F"/>
  <outline>
    <contour>
      <point x="298" y="1324" type="curve" smooth="yes"/>
      <point x="298" y="1264"/>
      <point x="360" y="1262"/>
      <point x="360" y="1160" type="curve" smooth="yes"/>
      <point x="360" y="1076"/>
      <point x="294" y="1040"/>
      <point x="224" y="1040" type="curve" smooth="yes"/>
      <point x="154" y="1040"/>
      <point x="90" y="1086"/>
      <point x="90" y="1182" type="curve" smooth="yes"/>
      <point x="90" y="1346"/>
      <point x="238" y="1520"/>
      <point x="522" y="1520" type="curve" smooth="yes"/>
      <point x="844" y="1520"/>
      <point x="1000" y="1360"/>
      <point x="1000" y="1100" type="curve" smooth="yes"/>
      <point x="1000" y="901"/>
      <point x="847" y="703"/>
      <point x="601" y="640" type="curve" smooth="yes"/>
      <point x="569" y="632"/>
      <point x="554" y="630"/>
      <point x="554" y="587" type="curve" smooth="yes"/>
      <point x="554" y="451" type="line" smooth="yes"/>
      <point x="554" y="421"/>
      <point x="546" y="418"/>
      <point x="515" y="418" type="curve" smooth="yes"/>
      <point x="478" y="418" type="line" smooth="yes"/>
      <point x="443" y="418"/>
      <point x="434" y="420"/>
      <point x="434" y="455" type="curve" smooth="yes"/>
      <point x="434" y="651" type="line" smooth="yes"/>
      <point x="434" y="694"/>
      <point x="443" y="700"/>
      <point x="473" y="711" type="curve" smooth="yes"/>
      <point x="667" y="783"/>
      <point x="798" y="947"/>
      <point x="798" y="1140" type="curve" smooth="yes"/>
      <point x="798" y="1288"/>
      <point x="720" y="1436"/>
      <point x="522" y="1436" type="curve" smooth="yes"/>
      <point x="354" y="1436"/>
      <point x="298" y="1368"/>
    </contour>
    <component base="period" xOffset="298"/>
  </outline>
</glyph>
<glyph name="J" format="2">
  <advance width="844"/>
  <unicode hex="004A"/>
  <anchor x="586" y="1500" name="Anchor-0"/>
  <anchor x="338" y="0" name="Anchor-1"/>
  <anchor x="338" y="0" name="Anchor-2"/>
  <outline>
    <contour>
      <point x="10" y="280" type="curve" smooth="yes"/>
      <point x="10" y="404"/>
      <point x="75" y="470"/>
      <point x="155" y="470" type="curve" smooth="yes"/>
      <point x="225" y="470"/>
      <point x="266" y="424"/>
      <point x="266" y="352" type="curve" smooth="yes"/>
      <point x="266" y="222"/>
      <point x="198" y="244"/>
      <point x="198" y="160" type="curve" smooth="yes"/>
      <point x="198" y="126"/>
      <point x="228" y="90"/>
      <point x="322" y="90" type="curve" smooth="yes"/>
      <point x="454" y="90"/>
      <point x="492" y="200"/>
      <point x="492" y="480" type="curve" smooth="yes"/>
      <point x="492" y="1331" type="line" smooth="yes"/>
      <point x="492" y="1376"/>
      <point x="490" y="1390"/>
      <point x="445" y="1390" type="curve" smooth="yes"/>
      <point x="357" y="1390" type="line" smooth="yes"/>
      <point x="315" y="1390"/>
      <point x="312" y="1397"/>
      <point x="312" y="1440" type="curve" smooth="yes"/>
      <point x="312" y="1460" type="line" smooth="yes"/>
      <point x="312" y="1499"/>
      <point x="326" y="1500"/>
      <point x="362" y="1500" type="curve" smooth="yes"/>
      <point x="782" y="1500" type="line" smooth="yes"/>
      <point x="805" y="1500"/>
      <point x="822" y="1498"/>
      <point x="822" y="1472" type="curve" smooth="yes"/>
      <point x="822" y="1424" type="line" smooth="yes"/>
      <point x="822" y="1397"/>
      <point x="819" y="1390"/>
      <point x="793" y="1390" type="curve" smooth="yes"/>
      <point x="727" y="1390" type="line" smooth="yes"/>
      <point x="684" y="1390"/>
      <point x="682" y="1382"/>
      <point x="682" y="1338" type="curve" smooth="yes"/>
      <point x="682" y="540" type="line" smooth="yes"/>
      <point x="682" y="220"/>
      <point x="624" y="-20"/>
      <point x="302" y="-20" type="curve" smooth="yes"/>
      <point x="108" y="-20"/>
      <point x="10" y="120"/>
    </contour>
  </outline>
</glyph>
<glyph name="K" format="2">
  <advance width="1253"/>
  <unicode hex="004B"/>
  <anchor x="609" y="1500" name="Anchor-0"/>
  <anchor x="613" y="0" name="Anchor-1"/>
  <anchor x="613" y="0" name="Anchor-2"/>
  <outline>
    <contour>
      <point x="38" y="38" type="curve" smooth="yes"/>
      <point x="38" y="78" type="line" smooth="yes"/>
      <point x="38" y="105"/>
      <point x="45" y="110"/>
      <point x="70" y="110" type="curve" smooth="yes"/>
      <point x="116" y="110" type="line" smooth="yes"/>
      <point x="155" y="110"/>
      <point x="158" y="120"/>
      <point x="158" y="156" type="curve" smooth="yes"/>
      <point x="158" y="1358" type="line" smooth="yes"/>
      <point x="158" y="1390"/>
      <point x="158" y="1390"/>
      <point x="126" y="1390" type="curve" smooth="yes"/>
      <point x="70" y="1390" type="line" smooth="yes"/>
      <point x="41" y="1390"/>
      <point x="38" y="1388"/>
      <point x="38" y="1418" type="curve" smooth="yes"/>
      <point x="38" y="1470" type="line" smooth="yes"/>
      <point x="38" y="1494"/>
      <point x="43" y="1500"/>
      <point x="66" y="1500" type="curve" smooth="yes"/>
      <point x="458" y="1500" type="line" smooth="yes"/>
      <point x="481" y="1500"/>
      <point x="488" y="1495"/>
      <point x="488" y="1470" type="curve" smooth="yes"/>
      <point x="488" y="1432" type="line" smooth="yes"/>
      <point x="488" y="1393"/>
      <point x="478" y="1390"/>
      <point x="442" y="1390" type="curve" smooth="yes"/>
      <point x="396" y="1390" type="line" smooth="yes"/>
      <point x="350" y="1390"/>
      <point x="348" y="1380"/>
      <point x="348" y="1334" type="curve" smooth="yes"/>
      <point x="348" y="732" type="line" smooth="yes"/>
      <point x="348" y="675"/>
      <point x="364" y="663"/>
      <point x="387" y="705" type="curve" smooth="yes"/>
      <point x="844" y="1356" type="line" smooth="yes"/>
      <point x="861" y="1382"/>
      <point x="841" y="1390"/>
      <point x="816" y="1390" type="curve" smooth="yes"/>
      <point x="748" y="1390" type="line" smooth="yes"/>
      <point x="712" y="1390"/>
      <point x="718" y="1398"/>
      <point x="718" y="1432" type="curve" smooth="yes"/>
      <point x="718" y="1464" type="line" smooth="yes"/>
      <point x="718" y="1497"/>
      <point x="729" y="1500"/>
      <point x="760" y="1500" type="curve" smooth="yes"/>
      <point x="1112" y="1500" type="line" smooth="yes"/>
      <point x="1144" y="1500"/>
      <point x="1148" y="1493"/>
      <point x="1148" y="1460" type="curve" smooth="yes"/>
      <point x="1148" y="1434" type="line" smooth="yes"/>
      <point x="1148" y="1397"/>
      <point x="1144" y="1390"/>
      <point x="1108" y="1390" type="curve" smooth="yes"/>
      <point x="1050" y="1390" type="line" smooth="yes"/>
      <point x="1001" y="1390"/>
      <point x="1002" y="1382"/>
      <point x="984" y="1356" type="curve" smooth="yes"/>
      <point x="716" y="966" type="line" smooth="yes"/>
      <point x="698" y="941"/>
      <point x="709" y="905"/>
      <point x="723" y="880" type="curve" smooth="yes"/>
      <point x="1103" y="146" type="line" smooth="yes"/>
      <point x="1118" y="119"/>
      <point x="1133" y="110"/>
      <point x="1179" y="110" type="curve" smooth="yes"/>
      <point x="1213" y="110" type="line" smooth="yes"/>
      <point x="1246" y="110"/>
      <point x="1253" y="105"/>
      <point x="1253" y="70" type="curve" smooth="yes"/>
      <point x="1253" y="34" type="line" smooth="yes"/>
      <point x="1253" y="0"/>
      <point x="1253" y="0"/>
      <point x="1219" y="0" type="curve" smooth="yes"/>
      <point x="812" y="0" type="line" smooth="yes"/>
      <point x="783" y="0"/>
      <point x="778" y="7"/>
      <point x="778" y="34" type="curve" smooth="yes"/>
      <point x="778" y="66" type="line" smooth="yes"/>
      <point x="778" y="102"/>
      <point x="771" y="110"/>
      <point x="806" y="110" type="curve" smooth="yes"/>
      <point x="819" y="110" type="line" smooth="yes"/>
      <point x="866" y="110"/>
      <point x="892" y="129"/>
      <point x="879" y="150" type="curve" smooth="yes"/>
      <point x="596" y="720" type="line" smooth="yes"/>
      <point x="579" y="747"/>
      <point x="552" y="757"/>
      <point x="531" y="726" type="curve" smooth="yes"/>
      <point x="372" y="490" type="line" smooth="yes"/>
      <point x="360" y="463"/>
      <point x="348" y="439"/>
      <point x="348" y="394" type="curve" smooth="yes"/>
      <point x="348" y="150" type="line" smooth="yes"/>
      <point x="348" y="115"/>
      <point x="354" y="110"/>
      <point x="390" y="110" type="curve" smooth="yes"/>
      <point x="452" y="110" type="line" smooth="yes"/>
      <point x="484" y="110"/>
      <point x="488" y="102"/>
      <point x="488" y="72" type="curve" smooth="yes"/>
      <point x="488" y="40" type="line" smooth="yes"/>
      <point x="488" y="6"/>
      <point x="483" y="0"/>
      <point x="450" y="0" type="curve" smooth="yes"/>
      <point x="72" y="0" type="line" smooth="yes"/>
      <point x="42" y="0"/>
      <point x="38" y="7"/>
    </contour>
  </outline>
</glyph>
<glyph name="Q" format="2">
  <advance width="1050"/>
  <unicode hex="0051"/>
  <anchor x="526" y="1500" name="Anchor-0"/>
  <outline>
    <contour>
      <point x="55" y="750" type="curve" smooth="yes"/>
      <point x="55" y="1276"/>
      <point x="189" y="1520"/>
      <point x="525" y="1520" type="curve" smooth="yes"/>
      <point x="861" y="1520"/>
      <point x="995" y="1276"/>
      <point x="995" y="750" type="curve" smooth="yes"/>
      <point x="995" y="477"/>
      <point x="963" y="208"/>
      <point x="805" y="72" type="curve" smooth="yes"/>
      <point x="774" y="45"/>
      <point x="784" y="43"/>
      <point x="796" y="20" type="curve" smooth="yes"/>
      <point x="834" y="-51"/>
      <point x="856" y="-74"/>
      <point x="911" y="-74" type="curve" smooth="yes"/>
      <point x="996" y="-74"/>
      <point x="1007" y="34"/>
      <point x="1004" y="139" type="curve" smooth="yes"/>
      <point x="1003" y="157"/>
      <point x="1010" y="164"/>
      <point x="1031" y="164" type="curve" smooth="yes"/>
      <point x="1067" y="164" type="line" smooth="yes"/>
      <point x="1098" y="164"/>
      <point x="1099" y="160"/>
      <point x="1104" y="131" type="curve" smooth="yes"/>
      <point x="1127" y="-82"/>
      <point x="1084" y="-250"/>
      <point x="905" y="-250" type="curve" smooth="yes"/>
      <point x="772" y="-250"/>
      <point x="750" y="-144"/>
      <point x="712" y="-20" type="curve" smooth="yes"/>
      <point x="702" y="12"/>
      <point x="701" y="4"/>
      <point x="658" y="-5" type="curve" smooth="yes"/>
      <point x="621" y="-13"/>
      <point x="584" y="-20"/>
      <point x="525" y="-20" type="curve" smooth="yes"/>
      <point x="189" y="-20"/>
      <point x="55" y="224"/>
    </contour>
    <contour>
      <point x="380" y="137" type="curve" smooth="yes"/>
      <point x="417" y="100"/>
      <point x="469" y="80"/>
      <point x="525" y="80" type="curve" smooth="yes"/>
      <point x="574" y="80"/>
      <point x="610" y="86"/>
      <point x="641" y="106" type="curve" smooth="yes"/>
      <point x="671" y="125"/>
      <point x="675" y="129"/>
      <point x="669" y="161" type="curve" smooth="yes"/>
      <point x="647" y="275"/>
      <point x="603" y="430"/>
      <point x="493" y="430" type="curve" smooth="yes"/>
      <point x="387" y="430"/>
      <point x="353" y="304"/>
      <point x="352" y="196" type="curve" smooth="yes"/>
      <point x="352" y="157"/>
      <point x="365" y="152"/>
    </contour>
    <contour>
      <point x="757" y="302" type="curve" smooth="yes"/>
      <point x="780" y="416"/>
      <point x="790" y="544"/>
      <point x="790" y="750" type="curve" smooth="yes"/>
      <point x="790" y="1114"/>
      <point x="753" y="1420"/>
      <point x="525" y="1420" type="curve" smooth="yes"/>
      <point x="297" y="1420"/>
      <point x="260" y="1114"/>
      <point x="260" y="750" type="curve" smooth="yes"/>
      <point x="260" y="589"/>
      <point x="268" y="431"/>
      <point x="292" y="324" type="curve" smooth="yes"/>
      <point x="302" y="278"/>
      <point x="306" y="291"/>
      <point x="306" y="345" type="curve" smooth="yes"/>
      <point x="306" y="465"/>
      <point x="363" y="606"/>
      <point x="489" y="606" type="curve" smooth="yes"/>
      <point x="616" y="606"/>
      <point x="680" y="402"/>
      <point x="713" y="273" type="curve" smooth="yes"/>
      <point x="728" y="214"/>
      <point x="747" y="251"/>
    </contour>
  </outline>
</glyph>
<glyph name="R" format="2">
  <advance width="1073"/>
  <unicode hex="0052"/>
  <anchor x="479" y="1500" name="Anchor-0"/>
  <anchor x="549" y="0" name="Anchor-1"/>
  <anchor x="549" y="0" name="Anchor-2"/>
  <outline>
    <contour>
      <point x="1098" y="230" type="curve" smooth="yes"/>
      <point x="1089" y="79"/>
      <point x="1052" y="-20"/>
      <point x="888" y="-20" type="curve" smooth="yes"/>
      <point x="492" y="-20"/>
      <point x="921" y="690"/>
      <point x="528" y="690" type="curve" smooth="yes"/>
      <point x="394" y="690" type="line" smooth="yes"/>
      <point x="350" y="690"/>
      <point x="348" y="682"/>
      <point x="348" y="638" type="curve" smooth="yes"/>
      <point x="348" y="144" type="line" smooth="yes"/>
      <point x="348" y="113"/>
      <point x="356" y="110"/>
      <point x="388" y="110" type="curve" smooth="yes"/>
      <point x="457" y="110" type="line" smooth="yes"/>
      <point x="485" y="110"/>
      <point x="488" y="103"/>
      <point x="488" y="74" type="curve" smooth="yes"/>
      <point x="488" y="29" type="line" smooth="yes"/>
      <point x="488" y="4"/>
      <point x="481" y="0"/>
      <point x="455" y="0" type="curve" smooth="yes"/>
      <point x="69" y="0" type="line" smooth="yes"/>
      <point x="44" y="0"/>
      <point x="38" y="6"/>
      <point x="38" y="32" type="curve" smooth="yes"/>
      <point x="38" y="75" type="line" smooth="yes"/>
      <point x="38" y="105"/>
      <point x="46" y="110"/>
      <point x="74" y="110" type="curve" smooth="yes"/>
      <point x="110" y="110" type="line" smooth="yes"/>
      <point x="151" y="110"/>
      <point x="158" y="113"/>
      <point x="158" y="153" type="curve" smooth="yes"/>
      <point x="158" y="1342" type="line" smooth="yes"/>
      <point x="158" y="1385"/>
      <point x="151" y="1390"/>
      <point x="109" y="1390" type="curve" smooth="yes"/>
      <point x="74" y="1390" type="line" smooth="yes"/>
      <point x="39" y="1390"/>
      <point x="38" y="1399"/>
      <point x="38" y="1435" type="curve" smooth="yes"/>
      <point x="38" y="1466" type="line" smooth="yes"/>
      <point x="38" y="1492"/>
      <point x="41" y="1500"/>
      <point x="66" y="1500" type="curve" smooth="yes"/>
      <point x="578" y="1500" type="line" smooth="yes"/>
      <point x="870" y="1500"/>
      <point x="948" y="1260"/>
      <point x="948" y="1090" type="curve" smooth="yes"/>
      <point x="948" y="926"/>
      <point x="881" y="834"/>
      <point x="771" y="766" type="curve" smooth="yes"/>
      <point x="737" y="745"/>
      <point x="744" y="718"/>
      <point x="785" y="690" type="curve" smooth="yes"/>
      <point x="1009" y="533"/>
      <point x="820" y="110"/>
      <point x="970" y="110" type="curve" smooth="yes"/>
      <point x="1002" y="110"/>
      <point x="1028" y="142"/>
      <point x="1034" y="242" type="curve" smooth="yes"/>
      <point x="1035" y="255"/>
      <point x="1040" y="258"/>
      <point x="1047" y="258" type="curve" smooth="yes"/>
      <point x="1081" y="258" type="line" smooth="yes"/>
      <point x="1088" y="258"/>
      <point x="1099" y="255"/>
    </contour>
    <contour>
      <point x="384" y="810" type="curve" smooth="yes"/>
      <point x="557" y="810" type="line" smooth="yes"/>
      <point x="659" y="810"/>
      <point x="748" y="902"/>
      <point x="748" y="1100" type="curve" smooth="yes"/>
      <point x="748" y="1298"/>
      <point x="659" y="1390"/>
      <point x="557" y="1390" type="curve" smooth="yes"/>
      <point x="384" y="1390" type="line" smooth="yes"/>
      <point x="337" y="1390"/>
      <point x="348" y="1390"/>
      <point x="348" y="1343" type="curve" smooth="yes"/>
      <point x="348" y="858" type="line" smooth="yes"/>
      <point x="348" y="817"/>
      <point x="341" y="810"/>
    </contour>
  </outline>
</glyph>
<glyph name="S" format="2">
  <advance width="912"/>
  <unicode hex="0053"/>
  <anchor x="471" y="1500" name="Anchor-0"/>
  <anchor x="480" y="0" name="Anchor-1"/>
  <anchor x="480" y="0" name="Anchor-2"/>
  <outline>
    <contour>
      <point x="694" y="1047" type="curve" smooth="yes"/>
      <point x="668" y="1235"/>
      <point x="561" y="1408"/>
      <point x="435" y="1408" type="curve" smooth="yes"/>
      <point x="323" y="1408"/>
      <point x="285" y="1338"/>
      <point x="285" y="1220" type="curve" smooth="yes"/>
      <point x="285" y="849"/>
      <point x="865" y="920"/>
      <point x="865" y="340" type="curve" smooth="yes"/>
      <point x="865" y="140"/>
      <point x="757" y="-30"/>
      <point x="545" y="-30" type="curve" smooth="yes"/>
      <point x="374" y="-30"/>
      <point x="309" y="49"/>
      <point x="259" y="109" type="curve" smooth="yes"/>
      <point x="238" y="144"/>
      <point x="233" y="135"/>
      <point x="217" y="95" type="curve" smooth="yes"/>
      <point x="186" y="18" type="line" smooth="yes"/>
      <point x="175" y="-9"/>
      <point x="173" y="-10"/>
      <point x="134" y="-10" type="curve" smooth="yes"/>
      <point x="103" y="-10" type="line" smooth="yes"/>
      <point x="72" y="-10"/>
      <point x="65" y="-6"/>
      <point x="65" y="24" type="curve" smooth="yes"/>
      <point x="65" y="482" type="line" smooth="yes"/>
      <point x="65" y="510"/>
      <point x="75" y="510"/>
      <point x="103" y="510" type="curve" smooth="yes"/>
      <point x="145" y="510" type="line" smooth="yes"/>
      <point x="172" y="510"/>
      <point x="174" y="499"/>
      <point x="177" y="476" type="curve" smooth="yes"/>
      <point x="194" y="316"/>
      <point x="323" y="72"/>
      <point x="485" y="72" type="curve" smooth="yes"/>
      <point x="647" y="72"/>
      <point x="695" y="202"/>
      <point x="695" y="320" type="curve" smooth="yes"/>
      <point x="695" y="760"/>
      <point x="125" y="700"/>
      <point x="125" y="1180" type="curve" smooth="yes"/>
      <point x="125" y="1390"/>
      <point x="223" y="1520"/>
      <point x="425" y="1520" type="curve" smooth="yes"/>
      <point x="521" y="1520"/>
      <point x="580" y="1466"/>
      <point x="627" y="1407" type="curve" smooth="yes"/>
      <point x="645" y="1381"/>
      <point x="644" y="1381"/>
      <point x="659" y="1417" type="curve" smooth="yes"/>
      <point x="690" y="1488" type="line" smooth="yes"/>
      <point x="695" y="1499"/>
      <point x="697" y="1500"/>
      <point x="713" y="1500" type="curve" smooth="yes"/>
      <point x="777" y="1500" type="line" smooth="yes"/>
      <point x="802" y="1500"/>
      <point x="805" y="1493"/>
      <point x="805" y="1467" type="curve" smooth="yes"/>
      <point x="805" y="1036" type="line" smooth="yes"/>
      <point x="805" y="1011"/>
      <point x="796" y="1010"/>
      <point x="771" y="1010" type="curve" smooth="yes"/>
      <point x="727" y="1010" type="line" smooth="yes"/>
      <point x="691" y="1010"/>
      <point x="701" y="1015"/>
    </contour>
  </outline>
</glyph>
<glyph name="X" format="2">
  <advance width="1250"/>
  <unicode hex="0058"/>
  <anchor x="646" y="1500" name="Anchor-0"/>
  <anchor x="616" y="0" name="Anchor-1"/>
  <anchor x="616" y="0" name="Anchor-2"/>
  <outline>
    <contour>
      <point x="10" y="34" type="curve" smooth="yes"/>
      <point x="10" y="87" type="line" smooth="yes"/>
      <point x="10" y="105"/>
      <point x="19" y="110"/>
      <point x="35" y="110" type="curve" smooth="yes"/>
      <point x="103" y="110" type="line" smooth="yes"/>
      <point x="150" y="110"/>
      <point x="161" y="112"/>
      <point x="174" y="141" type="curve" smooth="yes"/>
      <point x="513" y="697" type="line" smooth="yes"/>
      <point x="536" y="740"/>
      <point x="523" y="776"/>
      <point x="502" y="817" type="curve" smooth="yes"/>
      <point x="207" y="1360" type="line" smooth="yes"/>
      <point x="194" y="1385"/>
      <point x="188" y="1390"/>
      <point x="176" y="1390" type="curve" smooth="yes"/>
      <point x="126" y="1390" type="line" smooth="yes"/>
      <point x="95" y="1390"/>
      <point x="80" y="1392"/>
      <point x="80" y="1426" type="curve" smooth="yes"/>
      <point x="80" y="1468" type="line" smooth="yes"/>
      <point x="80" y="1494"/>
      <point x="85" y="1500"/>
      <point x="110" y="1500" type="curve" smooth="yes"/>
      <point x="507" y="1500" type="line" smooth="yes"/>
      <point x="530" y="1500"/>
      <point x="540" y="1499"/>
      <point x="540" y="1476" type="curve" smooth="yes"/>
      <point x="540" y="1421" type="line" smooth="yes"/>
      <point x="540" y="1396"/>
      <point x="535" y="1390"/>
      <point x="511" y="1390" type="curve" smooth="yes"/>
      <point x="447" y="1390" type="line" smooth="yes"/>
      <point x="419" y="1390"/>
      <point x="406" y="1385"/>
      <point x="418" y="1361" type="curve" smooth="yes"/>
      <point x="629" y="930" type="line" smooth="yes"/>
      <point x="661" y="875"/>
      <point x="648" y="873"/>
      <point x="682" y="930" type="curve" smooth="yes"/>
      <point x="895" y="1358" type="line" smooth="yes"/>
      <point x="906" y="1381"/>
      <point x="905" y="1390"/>
      <point x="875" y="1390" type="curve" smooth="yes"/>
      <point x="790" y="1390" type="line" smooth="yes"/>
      <point x="780" y="1390"/>
      <point x="770" y="1390"/>
      <point x="770" y="1420" type="curve" smooth="yes"/>
      <point x="770" y="1469" type="line" smooth="yes"/>
      <point x="770" y="1495"/>
      <point x="777" y="1500"/>
      <point x="801" y="1500" type="curve" smooth="yes"/>
      <point x="1125" y="1500" type="line" smooth="yes"/>
      <point x="1160" y="1500"/>
      <point x="1170" y="1497"/>
      <point x="1170" y="1459" type="curve" smooth="yes"/>
      <point x="1170" y="1421" type="line" smooth="yes"/>
      <point x="1170" y="1395"/>
      <point x="1162" y="1390"/>
      <point x="1137" y="1390" type="curve" smooth="yes"/>
      <point x="1071" y="1390" type="line" smooth="yes"/>
      <point x="1035" y="1390"/>
      <point x="1029" y="1384"/>
      <point x="1018" y="1362" type="curve" smooth="yes"/>
      <point x="761" y="859" type="line" smooth="yes"/>
      <point x="742" y="808"/>
      <point x="718" y="800"/>
      <point x="755" y="727" type="curve" smooth="yes"/>
      <point x="1099" y="148" type="line" smooth="yes"/>
      <point x="1114" y="115"/>
      <point x="1135" y="110"/>
      <point x="1169" y="110" type="curve" smooth="yes"/>
      <point x="1211" y="110" type="line" smooth="yes"/>
      <point x="1230" y="110"/>
      <point x="1240" y="106"/>
      <point x="1240" y="75" type="curve" smooth="yes"/>
      <point x="1240" y="38" type="line" smooth="yes"/>
      <point x="1240" y="8"/>
      <point x="1237" y="0"/>
      <point x="1208" y="0" type="curve" smooth="yes"/>
      <point x="811" y="0" type="line" smooth="yes"/>
      <point x="787" y="0"/>
      <point x="780" y="4"/>
      <point x="780" y="27" type="curve" smooth="yes"/>
      <point x="780" y="79" type="line" smooth="yes"/>
      <point x="780" y="106"/>
      <point x="791" y="110"/>
      <point x="796" y="110" type="curve" smooth="yes"/>
      <point x="894" y="110" type="line" smooth="yes"/>
      <point x="907" y="110"/>
      <point x="893" y="124"/>
      <point x="884" y="141" type="curve" smooth="yes"/>
      <point x="634" y="601" type="line" smooth="yes"/>
      <point x="604" y="655"/>
      <point x="605" y="648"/>
      <point x="576" y="601" type="curve" smooth="yes"/>
      <point x="310" y="154" type="line" smooth="yes"/>
      <point x="289" y="119"/>
      <point x="318" y="110"/>
      <point x="338" y="110" type="curve" smooth="yes"/>
      <point x="406" y="110" type="line" smooth="yes"/>
      <point x="413" y="110"/>
      <point x="420" y="106"/>
      <point x="420" y="79" type="curve" smooth="yes"/>
      <point x="420" y="32" type="line" smooth="yes"/>
      <point x="420" y="7"/>
      <point x="416" y="0"/>
      <point x="392" y="0" type="curve" smooth="yes"/>
      <point x="40" y="0" type="line" smooth="yes"/>
      <point x="14" y="0"/>
      <point x="10" y="7"/>
    </contour>
  </outline>
</glyph>
<glyph name="Z" format="2">
  <advance width="1015"/>
  <unicode hex="005A"/>
  <anchor x="531" y="1500" name="Anchor-0"/>
  <anchor x="571" y="0" name="Anchor-1"/>
  <anchor x="571" y="0" name="Anchor-2"/>
  <outline>
    <contour>
      <point x="133" y="1500" type="curve" smooth="yes"/>
      <point x="897" y="1500" type="line" smooth="yes"/>
      <point x="922" y="1500"/>
      <point x="925" y="1492"/>
      <point x="925" y="1466" type="curve" smooth="yes"/>
      <point x="925" y="1364" type="line" smooth="yes"/>
      <point x="925" y="1316"/>
      <point x="900" y="1268"/>
      <point x="884" y="1238" type="curve" smooth="yes"/>
      <point x="343" y="234" type="line" smooth="yes"/>
      <point x="317" y="185"/>
      <point x="299" y="160"/>
      <point x="299" y="132" type="curve" smooth="yes"/>
      <point x="299" y="119"/>
      <point x="307" y="110"/>
      <point x="337" y="110" type="curve" smooth="yes"/>
      <point x="595" y="110" type="line" smooth="yes"/>
      <point x="856" y="110"/>
      <point x="859" y="188"/>
      <point x="865" y="468" type="curve" smooth="yes"/>
      <point x="866" y="494"/>
      <point x="866" y="510"/>
      <point x="896" y="510" type="curve" smooth="yes"/>
      <point x="931" y="510" type="line" smooth="yes"/>
      <point x="963" y="510"/>
      <point x="965" y="497"/>
      <point x="965" y="468" type="curve" smooth="yes"/>
      <point x="965" y="58" type="line" smooth="yes"/>
      <point x="965" y="4"/>
      <point x="959" y="0"/>
      <point x="903" y="0" type="curve" smooth="yes"/>
      <point x="83" y="0" type="line" smooth="yes"/>
      <point x="55" y="0"/>
      <point x="45" y="-6"/>
      <point x="45" y="24" type="curve" smooth="yes"/>
      <point x="45" y="62" type="line" smooth="yes"/>
      <point x="45" y="100"/>
      <point x="54" y="114"/>
      <point x="67" y="137" type="curve" smooth="yes"/>
      <point x="699" y="1278" type="line" smooth="yes"/>
      <point x="721" y="1319"/>
      <point x="728" y="1339"/>
      <point x="728" y="1373" type="curve" smooth="yes"/>
      <point x="728" y="1388"/>
      <point x="715" y="1390"/>
      <point x="703" y="1390" type="curve" smooth="yes"/>
      <point x="475" y="1390" type="line" smooth="yes"/>
      <point x="264" y="1390"/>
      <point x="181" y="1312"/>
      <point x="175" y="1068" type="curve" smooth="yes"/>
      <point x="175" y="1031"/>
      <point x="170" y="1030"/>
      <point x="133" y="1030" type="curve" smooth="yes"/>
      <point x="115" y="1030" type="line" smooth="yes"/>
      <point x="78" y="1030"/>
      <point x="75" y="1041"/>
      <point x="75" y="1076" type="curve" smooth="yes"/>
      <point x="75" y="1452" type="line" smooth="yes"/>
      <point x="75" y="1500"/>
      <point x="85" y="1500"/>
    </contour>
  </outline>
</glyph>
<glyph name="a" format="2">
  <advance height="2310" width="852"/>
  <unicode hex="0061"/>
  <anchor x="450" y="1040" name="Anchor-0"/>
  <anchor x="373" y="0" name="Anchor-1"/>
  <anchor x="843" y="90" name="Anchor-2"/>
  <anchor x="843" y="90" name="Anchor-3"/>
  <outline>
    <contour>
      <point x="58" y="246" type="curve" smooth="yes"/>
      <point x="58" y="434"/>
      <point x="182" y="598"/>
      <point x="476" y="598" type="curve" smooth="yes"/>
      <point x="524" y="598" type="line" smooth="yes"/>
      <point x="547" y="598"/>
      <point x="550" y="600"/>
      <point x="550" y="624" type="curve" smooth="yes"/>
      <point x="550" y="734" type="line" smooth="yes"/>
      <point x="550" y="868"/>
      <point x="524" y="968"/>
      <point x="394" y="968" type="curve" smooth="yes"/>
      <point x="326" y="968"/>
      <point x="260" y="940"/>
      <point x="260" y="900" type="curve" smooth="yes"/>
      <point x="260" y="864"/>
      <point x="346" y="864"/>
      <point x="346" y="786" type="curve" smooth="yes"/>
      <point x="346" y="718"/>
      <point x="304" y="670"/>
      <point x="236" y="670" type="curve" smooth="yes"/>
      <point x="174" y="670"/>
      <point x="118" y="728"/>
      <point x="118" y="816" type="curve" smooth="yes"/>
      <point x="118" y="950"/>
      <point x="232" y="1060"/>
      <point x="434" y="1060" type="curve" smooth="yes"/>
      <point x="684" y="1060"/>
      <point x="730" y="906"/>
      <point x="730" y="744" type="curve" smooth="yes"/>
      <point x="730" y="142" type="line" smooth="yes"/>
      <point x="730" y="102"/>
      <point x="733" y="74"/>
      <point x="752" y="74" type="curve" smooth="yes"/>
      <point x="777" y="74"/>
      <point x="790" y="153"/>
      <point x="793" y="208" type="curve" smooth="yes"/>
      <point x="794" y="222"/>
      <point x="798" y="227"/>
      <point x="820" y="225" type="curve" smooth="yes"/>
      <point x="844" y="223" type="line" smooth="yes"/>
      <point x="855" y="222"/>
      <point x="857" y="213"/>
      <point x="857" y="199" type="curve" smooth="yes"/>
      <point x="856" y="110"/>
      <point x="825" y="-20"/>
      <point x="704" y="-20" type="curve" smooth="yes"/>
      <point x="703" y="-20" type="line" smooth="yes"/>
      <point x="582" y="-20"/>
      <point x="566" y="65"/>
      <point x="558" y="114" type="curve" smooth="yes"/>
      <point x="554" y="138"/>
      <point x="544" y="143"/>
      <point x="533" y="113" type="curve" smooth="yes"/>
      <point x="517" y="69"/>
      <point x="469" y="-20"/>
      <point x="328" y="-20" type="curve" smooth="yes"/>
      <point x="150" y="-20"/>
      <point x="58" y="78"/>
    </contour>
    <contour>
      <point x="252" y="276" type="curve" smooth="yes"/>
      <point x="252" y="142"/>
      <point x="298" y="92"/>
      <point x="368" y="92" type="curve" smooth="yes"/>
      <point x="464" y="92"/>
      <point x="550" y="200"/>
      <point x="550" y="382" type="curve" smooth="yes"/>
      <point x="550" y="502" type="line" smooth="yes"/>
      <point x="550" y="519"/>
      <point x="547" y="522"/>
      <point x="530" y="522" type="curve" smooth="yes"/>
      <point x="476" y="522" type="line" smooth="yes"/>
      <point x="344" y="522"/>
      <point x="252" y="430"/>
    </contour>
  </outline>
</glyph>
<glyph name="b" format="2">
  <advance height="2310" width="923"/>
  <unicode hex="0062"/>
  <anchor x="739" y="1040" name="Anchor-0"/>
  <anchor x="552" y="0" name="Anchor-1"/>
  <anchor x="552" y="0" name="Anchor-2"/>
  <outline>
    <contour>
      <point x="292" y="520" type="curve" smooth="yes"/>
      <point x="292" y="222"/>
      <point x="376" y="84"/>
      <point x="478" y="84" type="curve" smooth="yes"/>
      <point x="596" y="84"/>
      <point x="668" y="222"/>
      <point x="668" y="520" type="curve" smooth="yes"/>
      <point x="668" y="818"/>
      <point x="606" y="956"/>
      <point x="488" y="956" type="curve" smooth="yes"/>
      <point x="386" y="956"/>
      <point x="292" y="818"/>
    </contour>
    <contour>
      <point x="49" y="1450" type="line" smooth="yes"/>
      <point x="36" y="1450"/>
      <point x="32" y="1456"/>
      <point x="32" y="1470" type="curve" smooth="yes"/>
      <point x="32" y="1545" type="line" smooth="yes"/>
      <point x="32" y="1555"/>
      <point x="33" y="1560"/>
      <point x="43" y="1560" type="curve" smooth="yes"/>
      <point x="276" y="1560" type="line" smooth="yes"/>
      <point x="286" y="1560"/>
      <point x="292" y="1558"/>
      <point x="292" y="1547" type="curve" smooth="yes"/>
      <point x="292" y="927" type="line" smooth="yes"/>
      <point x="292" y="897"/>
      <point x="294" y="893"/>
      <point x="302" y="910" type="curve" smooth="yes"/>
      <point x="338" y="981"/>
      <point x="410" y="1058"/>
      <point x="544" y="1058" type="curve" smooth="yes"/>
      <point x="762" y="1058"/>
      <point x="868" y="860"/>
      <point x="868" y="520" type="curve" smooth="yes"/>
      <point x="868" y="180"/>
      <point x="782" y="-20"/>
      <point x="544" y="-20" type="curve" smooth="yes"/>
      <point x="424" y="-20"/>
      <point x="344" y="42"/>
      <point x="308" y="117" type="curve" smooth="yes"/>
      <point x="296" y="142"/>
      <point x="292" y="140"/>
      <point x="292" y="92" type="curve" smooth="yes"/>
      <point x="292" y="36" type="line" smooth="yes"/>
      <point x="292" y="16"/>
      <point x="288" y="0"/>
      <point x="267" y="0" type="curve" smooth="yes"/>
      <point x="51" y="0" type="line" smooth="yes"/>
      <point x="35" y="0"/>
      <point x="32" y="1"/>
      <point x="32" y="17" type="curve" smooth="yes"/>
      <point x="32" y="94" type="line" smooth="yes"/>
      <point x="32" y="107"/>
      <point x="37" y="110"/>
      <point x="51" y="110" type="curve" smooth="yes"/>
      <point x="95" y="110" type="line" smooth="yes"/>
      <point x="109" y="110"/>
      <point x="112" y="113"/>
      <point x="112" y="128" type="curve" smooth="yes"/>
      <point x="112" y="1430" type="line" smooth="yes"/>
      <point x="112" y="1446"/>
      <point x="108" y="1450"/>
      <point x="96" y="1450" type="curve" smooth="yes"/>
    </contour>
  </outline>
</glyph>
<glyph name="f" format="2">
  <advance height="2310" width="523"/>
  <unicode hex="0066"/>
  <anchor x="410" y="1692" name="Anchor-0"/>
  <anchor x="192" y="0" name="Anchor-1"/>
  <anchor x="192" y="0" name="Anchor-2"/>
  <outline>
    <contour>
      <point x="288" y="900" type="curve" smooth="yes"/>
      <point x="288" y="146" type="line" smooth="yes"/>
      <point x="288" y="114"/>
      <point x="289" y="110"/>
      <point x="321" y="110" type="curve" smooth="yes"/>
      <point x="389" y="110" type="line" smooth="yes"/>
      <point x="408" y="110"/>
      <point x="428" y="109"/>
      <point x="428" y="88" type="curve" smooth="yes"/>
      <point x="428" y="30" type="line" smooth="yes"/>
      <point x="428" y="5"/>
      <point x="420" y="0"/>
      <point x="396" y="0" type="curve" smooth="yes"/>
      <point x="51" y="0" type="line" smooth="yes"/>
      <point x="30" y="0"/>
      <point x="28" y="4"/>
      <point x="28" y="26" type="curve" smooth="yes"/>
      <point x="28" y="88" type="line" smooth="yes"/>
      <point x="28" y="108"/>
      <point x="38" y="110"/>
      <point x="56" y="110" type="curve" smooth="yes"/>
      <point x="86" y="110" type="line" smooth="yes"/>
      <point x="107" y="110"/>
      <point x="108" y="117"/>
      <point x="108" y="137" type="curve" smooth="yes"/>
      <point x="108" y="896" type="line" smooth="yes"/>
      <point x="108" y="921"/>
      <point x="107" y="930"/>
      <point x="82" y="930" type="curve" smooth="yes"/>
      <point x="53" y="930" type="line" smooth="yes"/>
      <point x="33" y="930"/>
      <point x="28" y="932"/>
      <point x="28" y="954" type="curve" smooth="yes"/>
      <point x="28" y="1016" type="line" smooth="yes"/>
      <point x="28" y="1037"/>
      <point x="35" y="1040"/>
      <point x="55" y="1040" type="curve" smooth="yes"/>
      <point x="82" y="1040" type="line" smooth="yes"/>
      <point x="106" y="1040"/>
      <point x="108" y="1043"/>
      <point x="108" y="1068" type="curve" smooth="yes"/>
      <point x="108" y="1144" type="line" smooth="yes"/>
      <point x="108" y="1406"/>
      <point x="142" y="1580"/>
      <point x="382" y="1580" type="curve" smooth="yes"/>
      <point x="554" y="1580"/>
      <point x="638" y="1472"/>
      <point x="638" y="1358" type="curve" smooth="yes"/>
      <point x="638" y="1272"/>
      <point x="590" y="1226"/>
      <point x="520" y="1226" type="curve" smooth="yes"/>
      <point x="450" y="1226"/>
      <point x="404" y="1266"/>
      <point x="404" y="1322" type="curve" smooth="yes"/>
      <point x="404" y="1392"/>
      <point x="456" y="1396"/>
      <point x="456" y="1436" type="curve" smooth="yes"/>
      <point x="456" y="1460"/>
      <point x="430" y="1490"/>
      <point x="366" y="1490" type="curve" smooth="yes"/>
      <point x="186" y="1490"/>
      <point x="288" y="1254"/>
      <point x="288" y="1100" type="curve" smooth="yes"/>
      <point x="288" y="1068" type="line" smooth="yes"/>
      <point x="288" y="1048"/>
      <point x="292" y="1040"/>
      <point x="313" y="1040" type="curve" smooth="yes"/>
      <point x="432" y="1040" type="line" smooth="yes"/>
      <point x="459" y="1040"/>
      <point x="468" y="1039"/>
      <point x="468" y="1010" type="curve" smooth="yes"/>
      <point x="468" y="959" type="line" smooth="yes"/>
      <point x="468" y="931"/>
      <point x="465" y="930"/>
      <point x="437" y="930" type="curve" smooth="yes"/>
      <point x="313" y="930" type="line" smooth="yes"/>
      <point x="291" y="930"/>
      <point x="288" y="923"/>
    </contour>
  </outline>
</glyph>
<glyph name="k" format="2">
  <advance height="2310" width="894"/>
  <unicode hex="006B"/>
  <anchor x="602" y="1040" name="Anchor-0"/>
  <anchor x="428" y="0" name="Anchor-1"/>
  <anchor x="428" y="0" name="Anchor-2"/>
  <outline>
    <contour>
      <point x="73" y="1450" type="curve" smooth="yes"/>
      <point x="58" y="1450" type="line" smooth="yes"/>
      <point x="34" y="1450"/>
      <point x="32" y="1453"/>
      <point x="32" y="1476" type="curve" smooth="yes"/>
      <point x="32" y="1524" type="line" smooth="yes"/>
      <point x="32" y="1552"/>
      <point x="34" y="1560"/>
      <point x="61" y="1560" type="curve" smooth="yes"/>
      <point x="245" y="1560" type="line" smooth="yes"/>
      <point x="275" y="1560"/>
      <point x="292" y="1554"/>
      <point x="292" y="1521" type="curve" smooth="yes"/>
      <point x="292" y="648" type="line" smooth="yes"/>
      <point x="292" y="612"/>
      <point x="292" y="587"/>
      <point x="311" y="610" type="curve" smooth="yes"/>
      <point x="551" y="899" type="line" smooth="yes"/>
      <point x="566" y="917"/>
      <point x="569" y="930"/>
      <point x="541" y="930" type="curve" smooth="yes"/>
      <point x="483" y="930" type="line" smooth="yes"/>
      <point x="451" y="930"/>
      <point x="450" y="939"/>
      <point x="450" y="972" type="curve" smooth="yes"/>
      <point x="450" y="1010" type="line" smooth="yes"/>
      <point x="450" y="1033"/>
      <point x="453" y="1040"/>
      <point x="475" y="1040" type="curve" smooth="yes"/>
      <point x="787" y="1040" type="line" smooth="yes"/>
      <point x="810" y="1040"/>
      <point x="816" y="1034"/>
      <point x="816" y="1010" type="curve" smooth="yes"/>
      <point x="816" y="960" type="line" smooth="yes"/>
      <point x="816" y="932"/>
      <point x="808" y="930"/>
      <point x="779" y="930" type="curve" smooth="yes"/>
      <point x="751" y="930" type="line" smooth="yes"/>
      <point x="721" y="930"/>
      <point x="704" y="925"/>
      <point x="691" y="910" type="curve" smooth="yes"/>
      <point x="469" y="643" type="line" smooth="yes"/>
      <point x="459" y="631"/>
      <point x="468" y="617"/>
      <point x="485" y="592" type="curve" smooth="yes"/>
      <point x="800" y="134" type="line" smooth="yes"/>
      <point x="817" y="116"/>
      <point x="822" y="110"/>
      <point x="859" y="110" type="curve" smooth="yes"/>
      <point x="871" y="110" type="line" smooth="yes"/>
      <point x="889" y="110"/>
      <point x="894" y="104"/>
      <point x="894" y="85" type="curve" smooth="yes"/>
      <point x="894" y="38" type="line" smooth="yes"/>
      <point x="894" y="6"/>
      <point x="885" y="0"/>
      <point x="855" y="0" type="curve" smooth="yes"/>
      <point x="509" y="0" type="line" smooth="yes"/>
      <point x="481" y="0"/>
      <point x="480" y="9"/>
      <point x="480" y="38" type="curve" smooth="yes"/>
      <point x="480" y="75" type="line" smooth="yes"/>
      <point x="480" y="104"/>
      <point x="483" y="110"/>
      <point x="511" y="110" type="curve" smooth="yes"/>
      <point x="560" y="110" type="line" smooth="yes"/>
      <point x="604" y="110"/>
      <point x="597" y="118"/>
      <point x="580" y="136" type="curve" smooth="yes"/>
      <point x="311" y="546" type="line" smooth="yes"/>
      <point x="299" y="564"/>
      <point x="292" y="554"/>
      <point x="292" y="518" type="curve" smooth="yes"/>
      <point x="292" y="146" type="line" smooth="yes"/>
      <point x="292" y="119"/>
      <point x="296" y="110"/>
      <point x="325" y="110" type="curve" smooth="yes"/>
      <point x="345" y="110" type="line" smooth="yes"/>
      <point x="366" y="110"/>
      <point x="382" y="107"/>
      <point x="382" y="84" type="curve" smooth="yes"/>
      <point x="382" y="22" type="line" smooth="yes"/>
      <point x="382" y="2"/>
      <point x="374" y="0"/>
      <point x="353" y="0" type="curve" smooth="yes"/>
      <point x="57" y="0" type="line" smooth="yes"/>
      <point x="36" y="0"/>
      <point x="32" y="11"/>
      <point x="32" y="30" type="curve" smooth="yes"/>
      <point x="32" y="92" type="line" smooth="yes"/>
      <point x="32" y="109"/>
      <point x="41" y="110"/>
      <point x="59" y="110" type="curve" smooth="yes"/>
      <point x="77" y="110" type="line" smooth="yes"/>
      <point x="104" y="110"/>
      <point x="112" y="112"/>
      <point x="112" y="138" type="curve" smooth="yes"/>
      <point x="112" y="1418" type="line" smooth="yes"/>
      <point x="112" y="1447"/>
      <point x="100" y="1450"/>
    </contour>
  </outline>
</glyph>
<glyph name="x" format="2">
  <advance height="2310" width="848"/>
  <unicode hex="0078"/>
  <anchor x="450" y="1040" name="Anchor-0"/>
  <anchor x="392" y="2" name="Anchor-1"/>
  <anchor x="392" y="2" name="Anchor-2"/>
  <outline>
    <contour>
      <point x="528" y="749" type="curve" smooth="yes"/>
      <point x="606" y="906" type="line" smooth="yes"/>
      <point x="622" y="924"/>
      <point x="614" y="930"/>
      <point x="596" y="930" type="curve" smooth="yes"/>
      <point x="535" y="930" type="line" smooth="yes"/>
      <point x="519" y="930"/>
      <point x="510" y="931"/>
      <point x="510" y="947" type="curve" smooth="yes"/>
      <point x="510" y="1014" type="line" smooth="yes"/>
      <point x="510" y="1033"/>
      <point x="514" y="1040"/>
      <point x="532" y="1040" type="curve" smooth="yes"/>
      <point x="806" y="1040" type="line" smooth="yes"/>
      <point x="824" y="1040"/>
      <point x="828" y="1033"/>
      <point x="828" y="1014" type="curve" smooth="yes"/>
      <point x="828" y="952" type="line" smooth="yes"/>
      <point x="828" y="934"/>
      <point x="822" y="930"/>
      <point x="803" y="930" type="curve" smooth="yes"/>
      <point x="792" y="930" type="line" smooth="yes"/>
      <point x="763" y="930"/>
      <point x="745" y="925"/>
      <point x="732" y="911" type="curve" smooth="yes"/>
      <point x="561" y="613" type="line" smooth="yes"/>
      <point x="539" y="575"/>
      <point x="527" y="563"/>
      <point x="527" y="545" type="curve" smooth="yes"/>
      <point x="527" y="527"/>
      <point x="532" y="511"/>
      <point x="554" y="473" type="curve" smooth="yes"/>
      <point x="750" y="133" type="line" smooth="yes"/>
      <point x="764" y="114"/>
      <point x="764" y="110"/>
      <point x="798" y="110" type="curve" smooth="yes"/>
      <point x="800" y="110" type="line" smooth="yes"/>
      <point x="820" y="110"/>
      <point x="828" y="107"/>
      <point x="828" y="88" type="curve" smooth="yes"/>
      <point x="828" y="22" type="line" smooth="yes"/>
      <point x="828" y="0"/>
      <point x="818" y="0"/>
      <point x="796" y="0" type="curve" smooth="yes"/>
      <point x="458" y="0" type="line" smooth="yes"/>
      <point x="438" y="0"/>
      <point x="436" y="8"/>
      <point x="436" y="29" type="curve" smooth="yes"/>
      <point x="436" y="83" type="line" smooth="yes"/>
      <point x="436" y="104"/>
      <point x="445" y="110"/>
      <point x="466" y="110" type="curve" smooth="yes"/>
      <point x="513" y="110" type="line" smooth="yes"/>
      <point x="551" y="110"/>
      <point x="543" y="128"/>
      <point x="537" y="149" type="curve" smooth="yes"/>
      <point x="459" y="335" type="line" smooth="yes"/>
      <point x="443" y="372"/>
      <point x="423" y="426"/>
      <point x="410" y="426" type="curve" smooth="yes"/>
      <point x="397" y="426"/>
      <point x="372" y="374"/>
      <point x="351" y="338" type="curve" smooth="yes"/>
      <point x="232" y="135" type="line" smooth="yes"/>
      <point x="216" y="117"/>
      <point x="218" y="110"/>
      <point x="260" y="110" type="curve" smooth="yes"/>
      <point x="324" y="110" type="line" smooth="yes"/>
      <point x="345" y="110"/>
      <point x="348" y="103"/>
      <point x="348" y="81" type="curve" smooth="yes"/>
      <point x="348" y="27" type="line" smooth="yes"/>
      <point x="348" y="8"/>
      <point x="346" y="0"/>
      <point x="328" y="0" type="curve" smooth="yes"/>
      <point x="52" y="0" type="line" smooth="yes"/>
      <point x="27" y="0"/>
      <point x="20" y="3"/>
      <point x="20" y="27" type="curve" smooth="yes"/>
      <point x="20" y="79" type="line" smooth="yes"/>
      <point x="20" y="97"/>
      <point x="24" y="110"/>
      <point x="44" y="110" type="curve" smooth="yes"/>
      <point x="64" y="110" type="line" smooth="yes"/>
      <point x="93" y="110"/>
      <point x="95" y="117"/>
      <point x="108" y="131" type="curve" smooth="yes"/>
      <point x="302" y="443" type="line" smooth="yes"/>
      <point x="326" y="482"/>
      <point x="333" y="498"/>
      <point x="333" y="517" type="curve" smooth="yes"/>
      <point x="333" y="538"/>
      <point x="322" y="554"/>
      <point x="301" y="600" type="curve" smooth="yes"/>
      <point x="165" y="897" type="line" smooth="yes"/>
      <point x="154" y="925"/>
      <point x="134" y="930"/>
      <point x="98" y="930" type="curve" smooth="yes"/>
      <point x="56" y="930" type="line" smooth="yes"/>
      <point x="26" y="930"/>
      <point x="20" y="935"/>
      <point x="20" y="966" type="curve" smooth="yes"/>
      <point x="20" y="1012" type="line" smooth="yes"/>
      <point x="20" y="1036"/>
      <point x="32" y="1040"/>
      <point x="54" y="1040" type="curve" smooth="yes"/>
      <point x="418" y="1040" type="line" smooth="yes"/>
      <point x="441" y="1040"/>
      <point x="442" y="1031"/>
      <point x="442" y="1008" type="curve" smooth="yes"/>
      <point x="442" y="958" type="line" smooth="yes"/>
      <point x="442" y="935"/>
      <point x="435" y="930"/>
      <point x="414" y="930" type="curve" smooth="yes"/>
      <point x="389" y="930" type="line" smooth="yes"/>
      <point x="357" y="930"/>
      <point x="359" y="913"/>
      <point x="362" y="897" type="curve" smooth="yes"/>
      <point x="411" y="747" type="line" smooth="yes"/>
      <point x="423" y="709"/>
      <point x="449" y="660"/>
      <point x="463" y="660" type="curve" smooth="yes"/>
      <point x="478" y="660"/>
      <point x="508" y="709"/>
    </contour>
  </outline>
</glyph>
<glyph name="z" format="2">
  <advance height="2310" width="821"/>
  <unicode hex="007A"/>
  <anchor x="521" y="1040" name="Anchor-0"/>
  <anchor x="502" y="0" name="Anchor-1"/>
  <anchor x="502" y="0" name="Anchor-2"/>
  <outline>
    <contour>
      <point x="450" y="940" type="line" smooth="yes"/>
      <point x="217" y="940"/>
      <point x="196" y="850"/>
      <point x="194" y="671" type="curve" smooth="yes"/>
      <point x="194" y="648"/>
      <point x="195" y="636"/>
      <point x="169" y="636" type="curve" smooth="yes"/>
      <point x="130" y="636" type="line" smooth="yes"/>
      <point x="101" y="636"/>
      <point x="94" y="639"/>
      <point x="94" y="667" type="curve" smooth="yes"/>
      <point x="94" y="990" type="line" smooth="yes"/>
      <point x="94" y="1036"/>
      <point x="101" y="1040"/>
      <point x="148" y="1040" type="curve" smooth="yes"/>
      <point x="722" y="1040" type="line" smooth="yes"/>
      <point x="747" y="1040"/>
      <point x="756" y="1036"/>
      <point x="756" y="1009" type="curve" smooth="yes"/>
      <point x="756" y="976" type="line" smooth="yes"/>
      <point x="756" y="935"/>
      <point x="744" y="926"/>
      <point x="727" y="905" type="curve" smooth="yes"/>
      <point x="289" y="142" type="line" smooth="yes"/>
      <point x="258" y="105"/>
      <point x="243" y="100"/>
      <point x="316" y="100" type="curve" smooth="yes"/>
      <point x="376" y="100" type="line" smooth="yes"/>
      <point x="662" y="100"/>
      <point x="677" y="176"/>
      <point x="678" y="408" type="curve" smooth="yes"/>
      <point x="678" y="428"/>
      <point x="687" y="428"/>
      <point x="707" y="428" type="curve" smooth="yes"/>
      <point x="744" y="428" type="line" smooth="yes"/>
      <point x="770" y="428"/>
      <point x="778" y="425"/>
      <point x="778" y="400" type="curve" smooth="yes"/>
      <point x="778" y="60" type="line" smooth="yes"/>
      <point x="778" y="7"/>
      <point x="774" y="0"/>
      <point x="722" y="0" type="curve" smooth="yes"/>
      <point x="84" y="0" type="line" smooth="yes"/>
      <point x="55" y="0"/>
      <point x="48" y="8"/>
      <point x="48" y="36" type="curve" smooth="yes"/>
      <point x="48" y="73" type="line" smooth="yes"/>
      <point x="48" y="114"/>
      <point x="68" y="124"/>
      <point x="86" y="146" type="curve" smooth="yes"/>
      <point x="519" y="893" type="line" smooth="yes"/>
      <point x="535" y="921"/>
      <point x="544" y="940"/>
      <point x="480" y="940" type="curve" smooth="yes"/>
    </contour>
  </outline>
</glyph>
<glyph name="braceright" format="2">
  <advance height="2310" width="544"/>
  <unicode hex="007D"/>
  <outline>
    <contour>
      <point x="102" y="1559" type="curve" smooth="yes"/>
      <point x="358" y="1549"/>
      <point x="434" y="1449"/>
      <point x="434" y="1280" type="curve" smooth="yes"/>
      <point x="434" y="1006"/>
      <point x="314" y="916"/>
      <point x="314" y="790" type="curve" smooth="yes"/>
      <point x="314" y="723"/>
      <point x="354" y="705"/>
      <point x="402" y="690" type="curve" smooth="yes"/>
      <point x="429" y="681"/>
      <point x="434" y="680"/>
      <point x="434" y="643" type="curve" smooth="yes"/>
      <point x="434" y="609" type="line" smooth="yes"/>
      <point x="434" y="580"/>
      <point x="418" y="575"/>
      <point x="398" y="568" type="curve" smooth="yes"/>
      <point x="352" y="553"/>
      <point x="314" y="533"/>
      <point x="314" y="468" type="curve" smooth="yes"/>
      <point x="314" y="342"/>
      <point x="434" y="252"/>
      <point x="434" y="-22" type="curve" smooth="yes"/>
      <point x="434" y="-193"/>
      <point x="357" y="-292"/>
      <point x="94" y="-300" type="curve" smooth="yes"/>
      <point x="63" y="-301"/>
      <point x="60" y="-295"/>
      <point x="60" y="-260" type="curve" smooth="yes"/>
      <point x="60" y="-238" type="line" smooth="yes"/>
      <point x="60" y="-206"/>
      <point x="60" y="-207"/>
      <point x="90" y="-205" type="curve" smooth="yes"/>
      <point x="194" y="-198"/>
      <point x="248" y="-149"/>
      <point x="248" y="-34" type="curve" smooth="yes"/>
      <point x="248" y="118"/>
      <point x="180" y="198"/>
      <point x="180" y="398" type="curve" smooth="yes"/>
      <point x="180" y="491"/>
      <point x="213" y="556"/>
      <point x="269" y="602" type="curve" smooth="yes"/>
      <point x="289" y="618"/>
      <point x="299" y="618"/>
      <point x="299" y="630" type="curve" smooth="yes"/>
      <point x="299" y="641"/>
      <point x="288" y="642"/>
      <point x="268" y="658" type="curve" smooth="yes"/>
      <point x="213" y="703"/>
      <point x="180" y="767"/>
      <point x="180" y="860" type="curve" smooth="yes"/>
      <point x="180" y="1060"/>
      <point x="248" y="1140"/>
      <point x="248" y="1292" type="curve" smooth="yes"/>
      <point x="248" y="1402"/>
      <point x="199" y="1453"/>
      <point x="104" y="1464" type="curve" smooth="yes"/>
      <point x="77" y="1467"/>
      <point x="60" y="1460"/>
      <point x="60" y="1493" type="curve" smooth="yes"/>
      <point x="60" y="1521" type="line" smooth="yes"/>
      <point x="60" y="1557"/>
      <point x="69" y="1560"/>
    </contour>
  </outline>
</glyph>
<glyph name="exclamdown" format="2">
  <advance width="638"/>
  <unicode hex="00A1"/>
  <outline>
    <contour>
      <point x="438" y="942" type="curve" smooth="yes"/>
      <point x="438" y="876"/>
      <point x="386" y="824"/>
      <point x="320" y="824" type="curve" smooth="yes"/>
      <point x="254" y="824"/>
      <point x="202" y="876"/>
      <point x="202" y="942" type="curve" smooth="yes"/>
      <point x="202" y="1008"/>
      <point x="254" y="1060"/>
      <point x="320" y="1060" type="curve" smooth="yes"/>
      <point x="386" y="1060"/>
      <point x="438" y="1008"/>
    </contour>
    <contour>
      <point x="202" y="-278" type="curve" smooth="yes"/>
      <point x="223" y="63"/>
      <point x="278" y="308"/>
      <point x="282" y="595" type="curve" smooth="yes"/>
      <point x="282" y="617"/>
      <point x="282" y="624"/>
      <point x="306" y="624" type="curve" smooth="yes"/>
      <point x="337" y="624" type="line" smooth="yes"/>
      <point x="356" y="624"/>
      <point x="358" y="618"/>
      <point x="358" y="600" type="curve" smooth="yes"/>
      <point x="361" y="311"/>
      <point x="417" y="65"/>
      <point x="438" y="-278" type="curve" smooth="yes"/>
      <point x="438" y="-292"/>
      <point x="438" y="-304"/>
      <point x="438" y="-316" type="curve" smooth="yes"/>
      <point x="438" y="-408"/>
      <point x="414" y="-476"/>
      <point x="320" y="-476" type="curve" smooth="yes"/>
      <point x="226" y="-476"/>
      <point x="200" y="-408"/>
      <point x="200" y="-316" type="curve" smooth="yes"/>
      <point x="200" y="-304"/>
      <point x="202" y="-292"/>
    </contour>
  </outline>
</glyph>
<glyph name="cent" format="2">
  <advance height="2310" width="787"/>
  <unicode hex="00A2"/>
  <anchor x="423" y="1040" name="Anchor-0"/>
  <anchor x="421" y="0" name="Anchor-1"/>
  <anchor x="421" y="0" name="Anchor-2"/>
  <outline>
    <contour>
      <point x="419" y="1230" type="curve" smooth="yes"/>
      <point x="489" y="1230" type="line" smooth="yes"/>
      <point x="510" y="1230"/>
      <point x="513" y="1225"/>
      <point x="510" y="1205" type="curve" smooth="yes"/>
      <point x="415" y="-146" type="line" smooth="yes"/>
      <point x="412" y="-164"/>
      <point x="404" y="-170"/>
      <point x="385" y="-170" type="curve" smooth="yes"/>
      <point x="331" y="-170" type="line" smooth="yes"/>
      <point x="309" y="-170"/>
      <point x="305" y="-164"/>
      <point x="307" y="-147" type="curve" smooth="yes"/>
      <point x="402" y="1216" type="line" smooth="yes"/>
      <point x="404" y="1229"/>
      <point x="404" y="1230"/>
    </contour>
    <component base="c"/>
  </outline>
</glyph>
<glyph name="yen" format="2">
  <advance width="1140"/>
  <unicode hex="00A5"/>
  <anchor x="576" y="1500" name="Anchor-0"/>
  <anchor x="591" y="0" name="Anchor-1"/>
  <anchor x="591" y="0" name="Anchor-2"/>
  <outline>
    <contour>
      <point x="384" y="740" type="curve" smooth="yes"/>
      <point x="1196" y="740" type="line" smooth="yes"/>
      <point x="1226" y="740"/>
      <point x="1230" y="736"/>
      <point x="1230" y="712" type="curve" smooth="yes"/>
      <point x="1230" y="663" type="line" smooth="yes"/>
      <point x="1230" y="639"/>
      <point x="1227" y="630"/>
      <point x="1193" y="630" type="curve" smooth="yes"/>
      <point x="381" y="630" type="line" smooth="yes"/>
      <point x="349" y="630"/>
      <point x="348" y="634"/>
      <point x="348" y="660" type="curve" smooth="yes"/>
      <point x="348" y="712" type="line" smooth="yes"/>
      <point x="348" y="735"/>
      <point x="357" y="740"/>
    </contour>
    <contour>
      <point x="384" y="460" type="curve" smooth="yes"/>
      <point x="1196" y="460" type="line" smooth="yes"/>
      <point x="1226" y="460"/>
      <point x="1230" y="456"/>
      <point x="1230" y="432" type="curve" smooth="yes"/>
      <point x="1230" y="383" type="line" smooth="yes"/>
      <point x="1230" y="359"/>
      <point x="1227" y="350"/>
      <point x="1193" y="350" type="curve" smooth="yes"/>
      <point x="381" y="350" type="line" smooth="yes"/>
      <point x="349" y="350"/>
      <point x="348" y="354"/>
      <point x="348" y="380" type="curve" smooth="yes"/>
      <point x="348" y="432" type="line" smooth="yes"/>
      <point x="348" y="455"/>
      <point x="357" y="460"/>
    </contour>
    <component base="Y"/>
  </outline>
</glyph>
<glyph name="copyright" format="2">
  <advance width="1441"/>
  <unicode hex="00A9"/>
  <anchor x="696.5999999999999" y="1190.0" name="Anchor-0"/>
  <anchor x="709.2" y="290.0" name="Anchor-1"/>
  <anchor x="709.2" y="290.0" name="Anchor-2"/>
  <outline>
    <contour>
      <point x="720" y="1520" type="curve" smooth="yes"/>
      <point x="1164" y="1520"/>
      <point x="1341" y="1192"/>
      <point x="1341" y="750" type="curve" smooth="yes"/>
      <point x="1341" y="306"/>
      <point x="1162" y="-20"/>
      <point x="720" y="-20" type="curve" smooth="yes"/>
      <point x="276" y="-20"/>
      <point x="100" y="308"/>
      <point x="100" y="750" type="curve" smooth="yes"/>
      <point x="100" y="1193"/>
      <point x="278" y="1520"/>
    </contour>
    <contour>
      <point x="720" y="73" type="curve" smooth="yes"/>
      <point x="1103" y="73"/>
      <point x="1246" y="349"/>
      <point x="1246" y="750" type="curve" smooth="yes"/>
      <point x="1246" y="1151"/>
      <point x="1101" y="1427"/>
      <point x="720" y="1427" type="curve" smooth="yes"/>
      <point x="337" y="1427"/>
      <point x="194" y="1151"/>
      <point x="194" y="750" type="curve" smooth="yes"/>
      <point x="194" y="347"/>
      <point x="339" y="73"/>
    </contour>
    <component base="C" xScale="0.6" yScale="0.6" xOffset="354.0" yOffset="290.0"/>
  </outline>
</glyph>
<glyph name="twosuperior" format="2">
  <advance height="2310" width="675"/>
  <unicode hex="00B2"/>
  <outline>
    <contour>
      <point x="634" y="1109" type="curve" smooth="yes"/>
      <point x="643" y="952"/>
      <point x="570" y="902"/>
      <point x="466" y="902" type="curve" smooth="yes"/>
      <point x="338" y="902"/>
      <point x="260" y="974"/>
      <point x="172" y="974" type="curve" smooth="yes"/>
      <point x="137" y="974"/>
      <point x="118" y="958"/>
      <point x="106" y="932" type="curve" smooth="yes"/>
      <point x="102" y="922"/>
      <point x="99" y="914"/>
      <point x="83" y="914" type="curve" smooth="yes"/>
      <point x="54" y="914" type="line" smooth="yes"/>
      <point x="41" y="914"/>
      <point x="40" y="920"/>
      <point x="40" y="931" type="curve" smooth="yes"/>
      <point x="45" y="1098"/>
      <point x="133" y="1216"/>
      <point x="300" y="1333" type="curve" smooth="yes"/>
      <point x="389" y="1395"/>
      <point x="492" y="1479"/>
      <point x="492" y="1616" type="curve" smooth="yes"/>
      <point x="492" y="1723"/>
      <point x="431" y="1776"/>
      <point x="324" y="1776" type="curve" smooth="yes"/>
      <point x="229" y="1776"/>
      <point x="154" y="1722"/>
      <point x="154" y="1690" type="curve" smooth="yes"/>
      <point x="154" y="1662"/>
      <point x="210" y="1657"/>
      <point x="210" y="1602" type="curve" smooth="yes"/>
      <point x="210" y="1558"/>
      <point x="171" y="1532"/>
      <point x="139" y="1532" type="curve" smooth="yes"/>
      <point x="104" y="1532"/>
      <point x="59" y="1553"/>
      <point x="59" y="1611" type="curve" smooth="yes"/>
      <point x="59" y="1721"/>
      <point x="166" y="1826"/>
      <point x="342" y="1826" type="curve" smooth="yes"/>
      <point x="511" y="1826"/>
      <point x="626" y="1754"/>
      <point x="626" y="1598" type="curve" smooth="yes"/>
      <point x="626" y="1454"/>
      <point x="500" y="1358"/>
      <point x="330" y="1262" type="curve" smooth="yes"/>
      <point x="215" y="1197"/>
      <point x="148" y="1117"/>
      <point x="116" y="1036" type="curve" smooth="yes"/>
      <point x="107" y="1013"/>
      <point x="94" y="994"/>
      <point x="104" y="994" type="curve" smooth="yes"/>
      <point x="115" y="994"/>
      <point x="114" y="1012"/>
      <point x="130" y="1029" type="curve" smooth="yes"/>
      <point x="158" y="1057"/>
      <point x="196" y="1075"/>
      <point x="244" y="1075" type="curve" smooth="yes"/>
      <point x="334" y="1075"/>
      <point x="382" y="1023"/>
      <point x="473" y="1023" type="curve" smooth="yes"/>
      <point x="543" y="1023"/>
      <point x="573" y="1055"/>
      <point x="577" y="1110" type="curve" smooth="yes"/>
      <point x="579" y="1124"/>
      <point x="578" y="1126"/>
      <point x="594" y="1126" type="curve" smooth="yes"/>
      <point x="618" y="1126" type="line" smooth="yes"/>
      <point x="632" y="1126"/>
      <point x="633" y="1123"/>
    </contour>
  </outline>
</glyph>
<glyph name="mu" format="2">
  <advance width="1233"/>
  <unicode hex="00B5"/>
  <anchor x="465" y="1040" name="Anchor-0"/>
  <anchor x="417" y="0" name="Anchor-1"/>
  <anchor x="767" y="0" name="Anchor-2"/>
  <anchor x="767" y="0" name="Anchor-3"/>
  <outline>
    <contour>
      <point x="232" y="847" type="line"/>
      <point x="232" y="-242" type="line" smooth="yes"/>
      <point x="232" y="-413"/>
      <point x="326" y="-423"/>
      <point x="334" y="-415" type="curve" smooth="yes"/>
      <point x="341" y="-407"/>
      <point x="321" y="-406"/>
      <point x="321" y="-352" type="curve" smooth="yes"/>
      <point x="321" y="-297"/>
      <point x="379" y="-246"/>
      <point x="444" y="-246" type="curve" smooth="yes"/>
      <point x="514" y="-246"/>
      <point x="567" y="-308"/>
      <point x="567" y="-380" type="curve" smooth="yes"/>
      <point x="567" y="-471"/>
      <point x="500" y="-520"/>
      <point x="400" y="-520" type="curve" smooth="yes"/>
      <point x="238" y="-520"/>
      <point x="120" y="-409"/>
      <point x="120" y="-242" type="curve" smooth="yes"/>
      <point x="120" y="847" type="line"/>
    </contour>
    <component base="u"/>
  </outline>
</glyph>
<glyph name="onequarter" format="2">
  <advance width="1196"/>
  <unicode hex="00BC"/>
  <outline>
    <contour>
      <point x="910" y="1440" type="line"/>
      <point x="1008" y="1440" type="line"/>
      <point x="286" y="-60" type="line"/>
      <point x="178" y="-60" type="line"/>
    </contour>
    <component base="one" xScale="0.6" yScale="0.6" xOffset="12.0" yOffset="632.0"/>
    <component base="four" xScale="0.6" yScale="0.6" xOffset="628.0" yOffset="4.0"/>
  </outline>
</glyph>
<glyph name="onehalf" format="2">
  <advance width="1348"/>
  <unicode hex="00BD"/>
  <outline>
    <contour>
      <point x="910" y="1440" type="line"/>
      <point x="1008" y="1440" type="line"/>
      <point x="286" y="-60" type="line"/>
      <point x="178" y="-60" type="line"/>
    </contour>
    <component base="one" xScale="0.6" yScale="0.6" xOffset="14.0" yOffset="632.0"/>
    <component base="two" xScale="0.6" yScale="0.6" xOffset="822.0" yOffset="-16.0"/>
  </outline>
</glyph>
<glyph name="threequarters" format="2">
  <advance width="1268"/>
  <unicode hex="00BE"/>
  <outline>
    <contour>
      <point x="960" y="1440" type="line"/>
      <point x="1058" y="1440" type="line"/>
      <point x="336" y="-60" type="line"/>
      <point x="228" y="-60" type="line"/>
    </contour>
    <component base="three" xScale="0.6" yScale="0.6" xOffset="30.0" yOffset="614.0"/>
    <component base="four" xScale="0.6" yScale="0.6" xOffset="710.0" yOffset="4.0"/>
  </outline>
</glyph>
<glyph name="AE" format="2">
  <advance width="1603"/>
  <unicode hex="00C6"/>
  <anchor x="1117" y="1500" name="Anchor-0"/>
  <anchor x="1149" y="0" name="Anchor-1"/>
  <anchor x="1149" y="0" name="Anchor-2"/>
  <anchor x="1459" y="50" name="Anchor-3"/>
  <outline>
    <contour>
      <point x="0" y="42" type="curve" smooth="yes"/>
      <point x="0" y="84" type="line" smooth="yes"/>
      <point x="0" y="104"/>
      <point x="6" y="110"/>
      <point x="28" y="110" type="curve" smooth="yes"/>
      <point x="44" y="110" type="line" smooth="yes"/>
      <point x="86" y="110"/>
      <point x="96" y="120"/>
      <point x="115" y="150" type="curve" smooth="yes"/>
      <point x="682" y="1349" type="line" smooth="yes"/>
      <point x="712" y="1391"/>
      <point x="695" y="1390"/>
      <point x="624" y="1390" type="curve" smooth="yes"/>
      <point x="606" y="1390" type="line" smooth="yes"/>
      <point x="581" y="1390"/>
      <point x="580" y="1394"/>
      <point x="580" y="1420" type="curve" smooth="yes"/>
      <point x="580" y="1472" type="line" smooth="yes"/>
      <point x="580" y="1495"/>
      <point x="587" y="1500"/>
      <point x="608" y="1500" type="curve" smooth="yes"/>
      <point x="1124" y="1500" type="line" smooth="yes"/>
      <point x="1147" y="1500"/>
      <point x="1150" y="1496"/>
      <point x="1150" y="1472" type="curve" smooth="yes"/>
      <point x="1150" y="1423" type="line" smooth="yes"/>
      <point x="1150" y="1399"/>
      <point x="1148" y="1390"/>
      <point x="1122" y="1390" type="curve" smooth="yes"/>
      <point x="858" y="1390" type="line" smooth="yes"/>
      <point x="804" y="1390"/>
      <point x="821" y="1381"/>
      <point x="799" y="1351" type="curve" smooth="yes"/>
      <point x="444" y="578" type="line" smooth="yes"/>
      <point x="431" y="557"/>
      <point x="436" y="550"/>
      <point x="472" y="550" type="curve" smooth="yes"/>
      <point x="874" y="550" type="line"/>
      <point x="854" y="440" type="line"/>
      <point x="431" y="440" type="line" smooth="yes"/>
      <point x="395" y="440"/>
      <point x="382" y="428"/>
      <point x="364" y="400" type="curve" smooth="yes"/>
      <point x="256" y="158" type="line" smooth="yes"/>
      <point x="235" y="124"/>
      <point x="243" y="110"/>
      <point x="287" y="110" type="curve" smooth="yes"/>
      <point x="328" y="110" type="line" smooth="yes"/>
      <point x="352" y="110"/>
      <point x="360" y="105"/>
      <point x="360" y="80" type="curve" smooth="yes"/>
      <point x="360" y="32" type="line" smooth="yes"/>
      <point x="360" y="0"/>
      <point x="360" y="0"/>
      <point x="328" y="0" type="curve" smooth="yes"/>
      <point x="50" y="0" type="line" smooth="yes"/>
      <point x="13" y="0"/>
      <point x="0" y="2"/>
    </contour>
    <component base="E" xOffset="590"/>
  </outline>
</glyph>
<glyph name="Eth" format="2">
  <advance width="1124"/>
  <unicode hex="00D0"/>
  <anchor x="548" y="1500" name="Anchor-0"/>
  <anchor x="547" y="0" name="Anchor-1"/>
  <anchor x="547" y="0" name="Anchor-2"/>
  <outline>
    <contour>
      <point x="74" y="840" type="curve" smooth="yes"/>
      <point x="536" y="840" type="line" smooth="yes"/>
      <point x="564" y="840"/>
      <point x="567" y="836"/>
      <point x="567" y="812" type="curve" smooth="yes"/>
      <point x="567" y="763" type="line" smooth="yes"/>
      <point x="567" y="739"/>
      <point x="565" y="730"/>
      <point x="533" y="730" type="curve" smooth="yes"/>
      <point x="72" y="730" type="line" smooth="yes"/>
      <point x="42" y="730"/>
      <point x="40" y="734"/>
      <point x="40" y="760" type="curve" smooth="yes"/>
      <point x="40" y="812" type="line" smooth="yes"/>
      <point x="40" y="835"/>
      <point x="48" y="840"/>
    </contour>
    <component base="D"/>
  </outline>
</glyph>
<glyph name="Thorn" format="2">
  <advance width="1006"/>
  <unicode hex="00DE"/>
  <outline>
    <contour>
      <point x="398" y="454" type="curve" smooth="yes"/>
      <point x="508" y="454" type="line" smooth="yes"/>
      <point x="660" y="454"/>
      <point x="748" y="526"/>
      <point x="748" y="764" type="curve" smooth="yes"/>
      <point x="748" y="1002"/>
      <point x="660" y="1074"/>
      <point x="508" y="1074" type="curve" smooth="yes"/>
      <point x="377" y="1074" type="line" smooth="yes"/>
      <point x="351" y="1074"/>
      <point x="348" y="1062"/>
      <point x="348" y="1035" type="curve" smooth="yes"/>
      <point x="348" y="498" type="line" smooth="yes"/>
      <point x="348" y="456"/>
      <point x="356" y="454"/>
    </contour>
    <contour>
      <point x="348" y="288" type="curve" smooth="yes"/>
      <point x="348" y="173" type="line" smooth="yes"/>
      <point x="348" y="118"/>
      <point x="352" y="110"/>
      <point x="406" y="110" type="curve" smooth="yes"/>
      <point x="436" y="110" type="line" smooth="yes"/>
      <point x="467" y="110"/>
      <point x="468" y="101"/>
      <point x="468" y="70" type="curve" smooth="yes"/>
      <point x="468" y="48" type="line" smooth="yes"/>
      <point x="468" y="8"/>
      <point x="466" y="0"/>
      <point x="426" y="0" type="curve" smooth="yes"/>
      <point x="92" y="0" type="line" smooth="yes"/>
      <point x="51" y="0"/>
      <point x="38" y="2"/>
      <point x="38" y="46" type="curve" smooth="yes"/>
      <point x="38" y="82" type="line" smooth="yes"/>
      <point x="38" y="106"/>
      <point x="45" y="110"/>
      <point x="70" y="110" type="curve" smooth="yes"/>
      <point x="112" y="110" type="line" smooth="yes"/>
      <point x="153" y="110"/>
      <point x="158" y="120"/>
      <point x="158" y="158" type="curve" smooth="yes"/>
      <point x="158" y="1364" type="line" smooth="yes"/>
      <point x="158" y="1387"/>
      <point x="150" y="1390"/>
      <point x="126" y="1390" type="curve" smooth="yes"/>
      <point x="63" y="1390" type="line" smooth="yes"/>
      <point x="39" y="1390"/>
      <point x="38" y="1399"/>
      <point x="38" y="1423" type="curve" smooth="yes"/>
      <point x="38" y="1464" type="line" smooth="yes"/>
      <point x="38" y="1495"/>
      <point x="46" y="1500"/>
      <point x="75" y="1500" type="curve" smooth="yes"/>
      <point x="414" y="1500" type="line" smooth="yes"/>
      <point x="455" y="1500"/>
      <point x="468" y="1498"/>
      <point x="468" y="1454" type="curve" smooth="yes"/>
      <point x="468" y="1418" type="line" smooth="yes"/>
      <point x="468" y="1394"/>
      <point x="461" y="1390"/>
      <point x="436" y="1390" type="curve" smooth="yes"/>
      <point x="394" y="1390" type="line" smooth="yes"/>
      <point x="353" y="1390"/>
      <point x="348" y="1380"/>
      <point x="348" y="1342" type="curve" smooth="yes"/>
      <point x="348" y="1222" type="line" smooth="yes"/>
      <point x="348" y="1190"/>
      <point x="354" y="1184"/>
      <point x="385" y="1184" type="curve" smooth="yes"/>
      <point x="528" y="1184" type="line" smooth="yes"/>
      <point x="870" y="1184"/>
      <point x="968" y="1024"/>
      <point x="968" y="764" type="curve" smooth="yes"/>
      <point x="968" y="504"/>
      <point x="870" y="344"/>
      <point x="528" y="344" type="curve" smooth="yes"/>
      <point x="412" y="344" type="line" smooth="yes"/>
      <point x="357" y="344"/>
      <point x="348" y="343"/>
    </contour>
  </outline>
</glyph>
<glyph name="dcroat" format="2">
  <advance height="2309" width="924"/>
  <unicode hex="0111"/>
  <anchor x="364" y="1040" name="Anchor-0"/>
  <anchor x="485" y="0" name="Anchor-1"/>
  <anchor x="485" y="0" name="Anchor-2"/>
  <anchor x="972" y="1040" name="Anchor-3"/>
  <outline>
    <contour>
      <point x="543" y="1300" type="curve" smooth="yes"/>
      <point x="867" y="1300" type="line" smooth="yes"/>
      <point x="892" y="1300"/>
      <point x="894" y="1296"/>
      <point x="894" y="1272" type="curve" smooth="yes"/>
      <point x="894" y="1223" type="line" smooth="yes"/>
      <point x="894" y="1199"/>
      <point x="892" y="1190"/>
      <point x="864" y="1190" type="curve" smooth="yes"/>
      <point x="541" y="1190" type="line" smooth="yes"/>
      <point x="514" y="1190"/>
      <point x="513" y="1194"/>
      <point x="513" y="1220" type="curve" smooth="yes"/>
      <point x="513" y="1272" type="line" smooth="yes"/>
      <point x="513" y="1295"/>
      <point x="521" y="1300"/>
    </contour>
    <component base="d"/>
  </outline>
</glyph>
<glyph name="Hbar" format="2">
  <advance width="1196"/>
  <unicode hex="0126"/>
  <anchor x="604" y="1500" name="Anchor-0"/>
  <anchor x="599" y="0" name="Anchor-1"/>
  <anchor x="599" y="0" name="Anchor-2"/>
  <outline>
    <contour>
      <point x="106" y="1190" type="curve" smooth="yes"/>
      <point x="1096" y="1190" type="line" smooth="yes"/>
      <point x="1151" y="1190"/>
      <point x="1158" y="1186"/>
      <point x="1158" y="1162" type="curve" smooth="yes"/>
      <point x="1158" y="1113" type="line" smooth="yes"/>
      <point x="1158" y="1089"/>
      <point x="1153" y="1080"/>
      <point x="1091" y="1080" type="curve" smooth="yes"/>
      <point x="101" y="1080" type="line" smooth="yes"/>
      <point x="41" y="1080"/>
      <point x="39" y="1084"/>
      <point x="39" y="1110" type="curve" smooth="yes"/>
      <point x="39" y="1162" type="line" smooth="yes"/>
      <point x="39" y="1185"/>
      <point x="56" y="1190"/>
    </contour>
    <component base="H"/>
  </outline>
</glyph>
<glyph name="Lslash" format="2">
  <advance width="976"/>
  <unicode hex="0141"/>
  <anchor x="257" y="1500" name="Anchor-0"/>
  <anchor x="742" y="943" name="Anchor-1"/>
  <anchor x="639" y="0" name="Anchor-2"/>
  <anchor x="742" y="943" name="Anchor-3"/>
  <outline>
    <contour>
      <point x="67" y="736" type="curve" smooth="yes"/>
      <point x="551" y="1089" type="line" smooth="yes"/>
      <point x="571" y="1102"/>
      <point x="584" y="1123"/>
      <point x="584" y="1082" type="curve" smooth="yes"/>
      <point x="584" y="1033" type="line" smooth="yes"/>
      <point x="584" y="998"/>
      <point x="582" y="994"/>
      <point x="561" y="981" type="curve" smooth="yes"/>
      <point x="73" y="625" type="line" smooth="yes"/>
      <point x="53" y="613"/>
      <point x="43" y="594"/>
      <point x="43" y="634" type="curve" smooth="yes"/>
      <point x="43" y="695" type="line" smooth="yes"/>
      <point x="43" y="725"/>
      <point x="50" y="725"/>
    </contour>
    <component base="L"/>
  </outline>
</glyph>
<glyph name="lslash" format="2">
  <advance height="2309" width="404"/>
  <unicode hex="0142"/>
  <anchor x="189" y="1696" name="Anchor-0"/>
  <anchor x="196" y="0" name="Anchor-1"/>
  <anchor x="196" y="0" name="Anchor-2"/>
  <anchor x="672" y="1040" name="Anchor-3"/>
  <outline>
    <contour>
      <point x="60" y="810" type="curve" smooth="yes"/>
      <point x="350" y="1005" type="line" smooth="yes"/>
      <point x="371" y="1019"/>
      <point x="374" y="1025"/>
      <point x="374" y="988" type="curve" smooth="yes"/>
      <point x="374" y="928" type="line" smooth="yes"/>
      <point x="374" y="891"/>
      <point x="370" y="890"/>
      <point x="348" y="876" type="curve" smooth="yes"/>
      <point x="68" y="687" type="line" smooth="yes"/>
      <point x="48" y="674"/>
      <point x="44" y="665"/>
      <point x="44" y="701" type="curve" smooth="yes"/>
      <point x="44" y="775" type="line" smooth="yes"/>
      <point x="44" y="799"/>
      <point x="46" y="801"/>
    </contour>
    <component base="l"/>
  </outline>
</glyph>
<glyph name="Tbar" format="2">
  <advance width="1128"/>
  <unicode hex="0166"/>
  <anchor x="564" y="1500" name="Anchor-0"/>
  <anchor x="573" y="0" name="Anchor-1"/>
  <anchor x="573" y="0" name="Anchor-2"/>
  <outline>
    <contour>
      <point x="188" y="820" type="curve" smooth="yes"/>
      <point x="950" y="820" type="line" smooth="yes"/>
      <point x="978" y="820"/>
      <point x="981" y="816"/>
      <point x="981" y="792" type="curve" smooth="yes"/>
      <point x="981" y="743" type="line" smooth="yes"/>
      <point x="981" y="719"/>
      <point x="979" y="710"/>
      <point x="947" y="710" type="curve" smooth="yes"/>
      <point x="186" y="710" type="line" smooth="yes"/>
      <point x="156" y="710"/>
      <point x="154" y="714"/>
      <point x="154" y="740" type="curve" smooth="yes"/>
      <point x="154" y="792" type="line" smooth="yes"/>
      <point x="154" y="815"/>
      <point x="162" y="820"/>
    </contour>
    <component base="T"/>
  </outline>
</glyph>
<glyph name="tbar" format="2">
  <advance height="2309" width="515"/>
  <unicode hex="0167"/>
  <anchor x="302" y="1277" name="Anchor-0"/>
  <anchor x="315" y="0" name="Anchor-1"/>
  <anchor x="315" y="0" name="Anchor-2"/>
  <anchor x="492" y="1153" name="Anchor-3"/>
  <outline>
    <contour>
      <point x="43" y="720" type="curve" smooth="yes"/>
      <point x="432" y="720" type="line" smooth="yes"/>
      <point x="454" y="720"/>
      <point x="458" y="716"/>
      <point x="458" y="692" type="curve" smooth="yes"/>
      <point x="458" y="643" type="line" smooth="yes"/>
      <point x="458" y="619"/>
      <point x="455" y="610"/>
      <point x="430" y="610" type="curve" smooth="yes"/>
      <point x="41" y="610" type="line" smooth="yes"/>
      <point x="17" y="610"/>
      <point x="16" y="614"/>
      <point x="16" y="640" type="curve" smooth="yes"/>
      <point x="16" y="692" type="line" smooth="yes"/>
      <point x="16" y="715"/>
      <point x="23" y="720"/>
    </contour>
    <component base="t"/>
  </outline>
</glyph>
<glyph name="longs" format="2">
  <advance height="2310" width="523"/>
  <unicode hex="017F"/>
  <outline>
    <contour>
      <point x="288" y="146" type="line" smooth="yes"/>
      <point x="288" y="114"/>
      <point x="289" y="110"/>
      <point x="321" y="110" type="curve" smooth="yes"/>
      <point x="389" y="110" type="line" smooth="yes"/>
      <point x="408" y="110"/>
      <point x="428" y="109"/>
      <point x="428" y="88" type="curve" smooth="yes"/>
      <point x="428" y="30" type="line" smooth="yes"/>
      <point x="428" y="5"/>
      <point x="420" y="0"/>
      <point x="396" y="0" type="curve" smooth="yes"/>
      <point x="51" y="0" type="line" smooth="yes"/>
      <point x="30" y="0"/>
      <point x="28" y="4"/>
      <point x="28" y="26" type="curve" smooth="yes"/>
      <point x="28" y="88" type="line" smooth="yes"/>
      <point x="28" y="108"/>
      <point x="38" y="110"/>
      <point x="56" y="110" type="curve" smooth="yes"/>
      <point x="86" y="110" type="line" smooth="yes"/>
      <point x="107" y="110"/>
      <point x="108" y="117"/>
      <point x="108" y="137" type="curve" smooth="yes"/>
      <point x="108" y="1144" type="line" smooth="yes"/>
      <point x="108" y="1406"/>
      <point x="132" y="1580"/>
      <point x="392" y="1580" type="curve" smooth="yes"/>
      <point x="554" y="1580"/>
      <point x="638" y="1472"/>
      <point x="638" y="1358" type="curve" smooth="yes"/>
      <point x="638" y="1272"/>
      <point x="590" y="1226"/>
      <point x="520" y="1226" type="curve" smooth="yes"/>
      <point x="450" y="1226"/>
      <point x="404" y="1266"/>
      <point x="404" y="1322" type="curve" smooth="yes"/>
      <point x="404" y="1382"/>
      <point x="456" y="1396"/>
      <point x="456" y="1436" type="curve" smooth="yes"/>
      <point x="456" y="1460"/>
      <point x="450" y="1490"/>
      <point x="366" y="1490" type="curve" smooth="yes"/>
      <point x="186" y="1490"/>
      <point x="288" y="1254"/>
      <point x="288" y="1100" type="curve" smooth="yes"/>
    </contour>
  </outline>
</glyph>
<glyph name="circumflex" format="2">
  <advance width="1000"/>
  <unicode hex="02C6"/>
  <outline>
    <contour>
      <point x="241" y="1690" type="curve" smooth="yes"/>
      <point x="219" y="1714" type="line" smooth="yes"/>
      <point x="204" y="1729"/>
      <point x="204" y="1729"/>
      <point x="219" y="1744" type="curve" smooth="yes"/>
      <point x="407" y="1932" type="line" smooth="yes"/>
      <point x="421" y="1946"/>
      <point x="431" y="1949"/>
      <point x="460" y="1949" type="curve" smooth="yes"/>
      <point x="545" y="1949" type="line" smooth="yes"/>
      <point x="571" y="1949"/>
      <point x="579" y="1944"/>
      <point x="591" y="1932" type="curve" smooth="yes"/>
      <point x="783" y="1740" type="line" smooth="yes"/>
      <point x="793" y="1730"/>
      <point x="795" y="1730"/>
      <point x="784" y="1719" type="curve" smooth="yes"/>
      <point x="751" y="1686" type="line" smooth="yes"/>
      <point x="736" y="1671"/>
      <point x="736" y="1673"/>
      <point x="719" y="1685" type="curve" smooth="yes"/>
      <point x="524" y="1830" type="line" smooth="yes"/>
      <point x="506" y="1843"/>
      <point x="492" y="1844"/>
      <point x="474" y="1831" type="curve" smooth="yes"/>
      <point x="277" y="1684" type="line" smooth="yes"/>
      <point x="262" y="1673"/>
      <point x="254" y="1677"/>
    </contour>
  </outline>
</glyph>
<glyph name="Dje-cy" format="2">
  <advance width="1319"/>
  <unicode hex="0402"/>
  <anchor x="524" y="1500" name="Anchor-0"/>
  <anchor x="525" y="0" name="Anchor-1"/>
  <anchor x="525" y="0" name="Anchor-2"/>
  <outline>
    <contour>
      <point x="279" y="41" type="curve" smooth="yes"/>
      <point x="279" y="75" type="line" smooth="yes"/>
      <point x="279" y="107"/>
      <point x="291" y="110"/>
      <point x="321" y="110" type="curve" smooth="yes"/>
      <point x="385" y="110" type="line" smooth="yes"/>
      <point x="433" y="110"/>
      <point x="439" y="115"/>
      <point x="439" y="165" type="curve" smooth="yes"/>
      <point x="439" y="1355" type="line" smooth="yes"/>
      <point x="439" y="1393"/>
      <point x="432" y="1400"/>
      <point x="405" y="1400" type="curve" smooth="yes"/>
      <point x="399" y="1400" type="line" smooth="yes"/>
      <point x="237" y="1400"/>
      <point x="165" y="1312"/>
      <point x="159" y="1031" type="curve" smooth="yes"/>
      <point x="158" y="1000"/>
      <point x="155" y="990"/>
      <point x="121" y="990" type="curve" smooth="yes"/>
      <point x="93" y="990" type="line" smooth="yes"/>
      <point x="59" y="990"/>
      <point x="59" y="1011"/>
      <point x="59" y="1041" type="curve" smooth="yes"/>
      <point x="59" y="1447" type="line" smooth="yes"/>
      <point x="59" y="1493"/>
      <point x="62" y="1500"/>
      <point x="107" y="1500" type="curve" smooth="yes"/>
      <point x="967" y="1500" type="line" smooth="yes"/>
      <point x="1006" y="1500"/>
      <point x="1009" y="1493"/>
      <point x="1009" y="1453" type="curve" smooth="yes"/>
      <point x="1009" y="1021" type="line" smooth="yes"/>
      <point x="1009" y="992"/>
      <point x="1001" y="990"/>
      <point x="971" y="990" type="curve" smooth="yes"/>
      <point x="947" y="990" type="line" smooth="yes"/>
      <point x="910" y="990"/>
      <point x="909" y="1005"/>
      <point x="908" y="1037" type="curve" smooth="yes"/>
      <point x="901" y="1314"/>
      <point x="829" y="1400"/>
      <point x="669" y="1400" type="curve" smooth="yes"/>
      <point x="667" y="1400" type="line" smooth="yes"/>
      <point x="632" y="1400"/>
      <point x="629" y="1393"/>
      <point x="629" y="1357" type="curve" smooth="yes"/>
      <point x="629" y="863" type="line" smooth="yes"/>
      <point x="629" y="817"/>
      <point x="631" y="825"/>
      <point x="660" y="839" type="curve" smooth="yes"/>
      <point x="717" y="867"/>
      <point x="787" y="891"/>
      <point x="880" y="891" type="curve" smooth="yes"/>
      <point x="1062" y="891"/>
      <point x="1264" y="738"/>
      <point x="1264" y="438" type="curve" smooth="yes"/>
      <point x="1264" y="138"/>
      <point x="1118" y="-19"/>
      <point x="946" y="-19" type="curve" smooth="yes"/>
      <point x="842" y="-19"/>
      <point x="684" y="45"/>
      <point x="684" y="189" type="curve" smooth="yes"/>
      <point x="684" y="295"/>
      <point x="754" y="341"/>
      <point x="812" y="341" type="curve" smooth="yes"/>
      <point x="866" y="341"/>
      <point x="926" y="299"/>
      <point x="926" y="225" type="curve" smooth="yes"/>
      <point x="926" y="153"/>
      <point x="892" y="153"/>
      <point x="892" y="127" type="curve" smooth="yes"/>
      <point x="892" y="103"/>
      <point x="908" y="75"/>
      <point x="956" y="75" type="curve" smooth="yes"/>
      <point x="1014" y="75"/>
      <point x="1062" y="213"/>
      <point x="1062" y="401" type="curve" smooth="yes"/>
      <point x="1062" y="669"/>
      <point x="974" y="785"/>
      <point x="846" y="785" type="curve" smooth="yes"/>
      <point x="777" y="785"/>
      <point x="730" y="776"/>
      <point x="664" y="731" type="curve" smooth="yes"/>
      <point x="639" y="714"/>
      <point x="629" y="704"/>
      <point x="629" y="659" type="curve" smooth="yes"/>
      <point x="629" y="42" type="line" smooth="yes"/>
      <point x="629" y="2"/>
      <point x="607" y="0"/>
      <point x="571" y="0" type="curve" smooth="yes"/>
      <point x="325" y="0" type="line" smooth="yes"/>
      <point x="286" y="0"/>
      <point x="279" y="3"/>
    </contour>
  </outline>
</glyph>
<glyph name="Lje-cy" format="2">
  <advance height="2080" width="1718"/>
  <unicode hex="0409"/>
  <outline>
    <contour>
      <point x="1128" y="110" type="curve" smooth="yes"/>
      <point x="1200" y="110" type="line" smooth="yes"/>
      <point x="1382" y="110"/>
      <point x="1460" y="242"/>
      <point x="1460" y="420" type="curve" smooth="yes"/>
      <point x="1460" y="598"/>
      <point x="1382" y="730"/>
      <point x="1200" y="730" type="curve" smooth="yes"/>
      <point x="1140" y="730" type="line" smooth="yes"/>
      <point x="1098" y="730"/>
      <point x="1090" y="728"/>
      <point x="1090" y="686" type="curve" smooth="yes"/>
      <point x="1090" y="154" type="line" smooth="yes"/>
      <point x="1090" y="121"/>
      <point x="1099" y="110"/>
    </contour>
    <contour>
      <point x="-10" y="240" type="curve" smooth="yes"/>
      <point x="-10" y="364"/>
      <point x="68" y="420"/>
      <point x="148" y="420" type="curve" smooth="yes"/>
      <point x="228" y="420"/>
      <point x="286" y="364"/>
      <point x="286" y="292" type="curve" smooth="yes"/>
      <point x="286" y="162"/>
      <point x="208" y="164"/>
      <point x="208" y="130" type="curve" smooth="yes"/>
      <point x="208" y="106"/>
      <point x="218" y="90"/>
      <point x="242" y="90" type="curve" smooth="yes"/>
      <point x="485" y="90"/>
      <point x="432" y="1004"/>
      <point x="432" y="1331" type="curve" smooth="yes"/>
      <point x="432" y="1376"/>
      <point x="430" y="1390"/>
      <point x="385" y="1390" type="curve" smooth="yes"/>
      <point x="337" y="1390" type="line" smooth="yes"/>
      <point x="295" y="1390"/>
      <point x="292" y="1397"/>
      <point x="292" y="1440" type="curve" smooth="yes"/>
      <point x="292" y="1460" type="line" smooth="yes"/>
      <point x="292" y="1499"/>
      <point x="306" y="1500"/>
      <point x="342" y="1500" type="curve" smooth="yes"/>
      <point x="1194" y="1500" type="line" smooth="yes"/>
      <point x="1224" y="1500"/>
      <point x="1230" y="1497"/>
      <point x="1230" y="1466" type="curve" smooth="yes"/>
      <point x="1230" y="1432" type="line" smooth="yes"/>
      <point x="1230" y="1397"/>
      <point x="1213" y="1390"/>
      <point x="1188" y="1390" type="curve" smooth="yes"/>
      <point x="1148" y="1390" type="line" smooth="yes"/>
      <point x="1094" y="1390"/>
      <point x="1090" y="1382"/>
      <point x="1090" y="1327" type="curve" smooth="yes"/>
      <point x="1090" y="896" type="line" smooth="yes"/>
      <point x="1090" y="841"/>
      <point x="1099" y="840"/>
      <point x="1154" y="840" type="curve" smooth="yes"/>
      <point x="1200" y="840" type="line" smooth="yes"/>
      <point x="1552" y="840"/>
      <point x="1680" y="680"/>
      <point x="1680" y="420" type="curve" smooth="yes"/>
      <point x="1680" y="160"/>
      <point x="1552" y="0"/>
      <point x="1200" y="0" type="curve" smooth="yes"/>
      <point x="817" y="0" type="line" smooth="yes"/>
      <point x="793" y="0"/>
      <point x="781" y="3"/>
      <point x="781" y="22" type="curve" smooth="yes"/>
      <point x="780" y="86" type="line" smooth="yes"/>
      <point x="781" y="103"/>
      <point x="784" y="110"/>
      <point x="805" y="110" type="curve" smooth="yes"/>
      <point x="832" y="110" type="line" smooth="yes"/>
      <point x="867" y="110"/>
      <point x="900" y="114"/>
      <point x="900" y="160" type="curve" smooth="yes"/>
      <point x="900" y="1342" type="line" smooth="yes"/>
      <point x="900" y="1380"/>
      <point x="895" y="1390"/>
      <point x="854" y="1390" type="curve" smooth="yes"/>
      <point x="602" y="1390" type="line" smooth="yes"/>
      <point x="559" y="1390"/>
      <point x="557" y="1381"/>
      <point x="557" y="1338" type="curve" smooth="yes"/>
      <point x="557" y="948"/>
      <point x="645" y="-20"/>
      <point x="242" y="-20" type="curve" smooth="yes"/>
      <point x="68" y="-20"/>
      <point x="-10" y="100"/>
    </contour>
  </outline>
</glyph>
<glyph name="Ushort-cy" format="2">
  <advance width="1170"/>
  <unicode hex="040E"/>
  <anchor x="616" y="1500" name="Anchor-0"/>
  <anchor x="676" y="0" name="Anchor-1"/>
  <anchor x="676" y="0" name="Anchor-2"/>
  <outline>
    <contour>
      <point x="816" y="1961" type="curve" smooth="yes"/>
      <point x="887" y="1961"/>
      <point x="939" y="1912"/>
      <point x="939" y="1841" type="curve" smooth="yes"/>
      <point x="939" y="1716"/>
      <point x="804" y="1637"/>
      <point x="592" y="1637" type="curve" smooth="yes"/>
      <point x="378" y="1637"/>
      <point x="244" y="1716"/>
      <point x="244" y="1843" type="curve" smooth="yes"/>
      <point x="244" y="1912"/>
      <point x="296" y="1961"/>
      <point x="367" y="1961" type="curve" smooth="yes"/>
      <point x="427" y="1961"/>
      <point x="473" y="1920"/>
      <point x="473" y="1866" type="curve" smooth="yes"/>
      <point x="473" y="1817"/>
      <point x="406" y="1809"/>
      <point x="406" y="1777" type="curve" smooth="yes"/>
      <point x="406" y="1744"/>
      <point x="473" y="1720"/>
      <point x="600" y="1720" type="curve" smooth="yes"/>
      <point x="714" y="1720"/>
      <point x="777" y="1746"/>
      <point x="777" y="1777" type="curve" smooth="yes"/>
      <point x="777" y="1810"/>
      <point x="710" y="1816"/>
      <point x="710" y="1866" type="curve" smooth="yes"/>
      <point x="710" y="1920"/>
      <point x="756" y="1961"/>
    </contour>
    <component base="U-cy"/>
  </outline>
</glyph>
<glyph name="Dzhe-cy" format="2">
  <advance width="1196"/>
  <unicode hex="040F"/>
  <anchor x="739" y="1500" name="Anchor-0"/>
  <anchor x="639" y="0" name="Anchor-1"/>
  <anchor x="639" y="0" name="Anchor-2"/>
  <outline>
    <contour>
      <point x="348" y="162" type="line" smooth="yes"/>
      <point x="348" y="120"/>
      <point x="349" y="110"/>
      <point x="391" y="110" type="curve" smooth="yes"/>
      <point x="809" y="110" type="line" smooth="yes"/>
      <point x="843" y="110"/>
      <point x="848" y="117"/>
      <point x="848" y="153" type="curve" smooth="yes"/>
      <point x="848" y="1350" type="line" smooth="yes"/>
      <point x="848" y="1381"/>
      <point x="843" y="1390"/>
      <point x="810" y="1390" type="curve" smooth="yes"/>
      <point x="741" y="1390" type="line" smooth="yes"/>
      <point x="714" y="1390"/>
      <point x="708" y="1395"/>
      <point x="708" y="1424" type="curve" smooth="yes"/>
      <point x="708" y="1450" type="line" smooth="yes"/>
      <point x="708" y="1495"/>
      <point x="714" y="1500"/>
      <point x="758" y="1500" type="curve" smooth="yes"/>
      <point x="1118" y="1500" type="line" smooth="yes"/>
      <point x="1151" y="1500"/>
      <point x="1158" y="1495"/>
      <point x="1158" y="1460" type="curve" smooth="yes"/>
      <point x="1158" y="1432" type="line" smooth="yes"/>
      <point x="1158" y="1396"/>
      <point x="1152" y="1390"/>
      <point x="1117" y="1390" type="curve" smooth="yes"/>
      <point x="1079" y="1390" type="line" smooth="yes"/>
      <point x="1047" y="1390"/>
      <point x="1038" y="1388"/>
      <point x="1038" y="1356" type="curve" smooth="yes"/>
      <point x="1038" y="149" type="line" smooth="yes"/>
      <point x="1038" y="117"/>
      <point x="1047" y="110"/>
      <point x="1077" y="110" type="curve" smooth="yes"/>
      <point x="1123" y="110" type="line" smooth="yes"/>
      <point x="1157" y="110"/>
      <point x="1158" y="99"/>
      <point x="1158" y="64" type="curve" smooth="yes"/>
      <point x="1158" y="38" type="line" smooth="yes"/>
      <point x="1158" y="6"/>
      <point x="1148" y="0"/>
      <point x="1118" y="0" type="curve" smooth="yes"/>
      <point x="979" y="0" type="line" smooth="yes"/>
      <point x="716" y="0"/>
      <point x="640" y="-93"/>
      <point x="640" y="-379" type="curve" smooth="yes"/>
      <point x="640" y="-408"/>
      <point x="632" y="-410"/>
      <point x="601" y="-410" type="curve" smooth="yes"/>
      <point x="577" y="-410" type="line" smooth="yes"/>
      <point x="547" y="-410"/>
      <point x="539" y="-408"/>
      <point x="539" y="-379" type="curve" smooth="yes"/>
      <point x="539" y="-93"/>
      <point x="463" y="0"/>
      <point x="200" y="0" type="curve" smooth="yes"/>
      <point x="78" y="0" type="line" smooth="yes"/>
      <point x="46" y="0"/>
      <point x="38" y="4"/>
      <point x="38" y="38" type="curve" smooth="yes"/>
      <point x="38" y="76" type="line" smooth="yes"/>
      <point x="38" y="104"/>
      <point x="47" y="110"/>
      <point x="77" y="110" type="curve" smooth="yes"/>
      <point x="103" y="110" type="line" smooth="yes"/>
      <point x="147" y="110"/>
      <point x="158" y="112"/>
      <point x="158" y="156" type="curve" smooth="yes"/>
      <point x="158" y="1356" type="line" smooth="yes"/>
      <point x="158" y="1384"/>
      <point x="151" y="1390"/>
      <point x="121" y="1390" type="curve" smooth="yes"/>
      <point x="77" y="1390" type="line" smooth="yes"/>
      <point x="50" y="1390"/>
      <point x="38" y="1393"/>
      <point x="38" y="1422" type="curve" smooth="yes"/>
      <point x="38" y="1456" type="line" smooth="yes"/>
      <point x="38" y="1498"/>
      <point x="49" y="1500"/>
      <point x="88" y="1500" type="curve" smooth="yes"/>
      <point x="448" y="1500" type="line" smooth="yes"/>
      <point x="484" y="1500"/>
      <point x="488" y="1493"/>
      <point x="488" y="1456" type="curve" smooth="yes"/>
      <point x="488" y="1426" type="line" smooth="yes"/>
      <point x="488" y="1398"/>
      <point x="486" y="1390"/>
      <point x="459" y="1390" type="curve" smooth="yes"/>
      <point x="390" y="1390" type="line" smooth="yes"/>
      <point x="351" y="1390"/>
      <point x="348" y="1377"/>
      <point x="348" y="1340" type="curve" smooth="yes"/>
    </contour>
  </outline>
</glyph>
<glyph name="Ge-cy" format="2">
  <advance width="1014"/>
  <unicode hex="0413"/>
  <anchor x="534" y="1500" name="Anchor-0"/>
  <anchor x="266" y="0" name="Anchor-1"/>
  <anchor x="266" y="0" name="Anchor-2"/>
  <outline>
    <contour>
      <point x="136" y="1390" type="curve" smooth="yes"/>
      <point x="69" y="1390" type="line" smooth="yes"/>
      <point x="50" y="1390"/>
      <point x="45" y="1392"/>
      <point x="45" y="1412" type="curve" smooth="yes"/>
      <point x="45" y="1481" type="line" smooth="yes"/>
      <point x="45" y="1495"/>
      <point x="46" y="1500"/>
      <point x="60" y="1500" type="curve" smooth="yes"/>
      <point x="931" y="1500" type="line" smooth="yes"/>
      <point x="952" y="1500"/>
      <point x="955" y="1493"/>
      <point x="955" y="1471" type="curve" smooth="yes"/>
      <point x="955" y="1050" type="line" smooth="yes"/>
      <point x="955" y="1031"/>
      <point x="946" y="1030"/>
      <point x="927" y="1030" type="curve" smooth="yes"/>
      <point x="875" y="1030" type="line" smooth="yes"/>
      <point x="855" y="1030"/>
      <point x="855" y="1035"/>
      <point x="855" y="1054" type="curve" smooth="yes"/>
      <point x="852" y="1313"/>
      <point x="784" y="1390"/>
      <point x="555" y="1390" type="curve" smooth="yes"/>
      <point x="389" y="1390" type="line" smooth="yes"/>
      <point x="364" y="1390"/>
      <point x="355" y="1376"/>
      <point x="355" y="1353" type="curve" smooth="yes"/>
      <point x="355" y="150" type="line" smooth="yes"/>
      <point x="355" y="118"/>
      <point x="359" y="110"/>
      <point x="393" y="110" type="curve" smooth="yes"/>
      <point x="467" y="110" type="line" smooth="yes"/>
      <point x="486" y="110"/>
      <point x="495" y="109"/>
      <point x="495" y="90" type="curve" smooth="yes"/>
      <point x="495" y="30" type="line" smooth="yes"/>
      <point x="495" y="4"/>
      <point x="486" y="0"/>
      <point x="462" y="0" type="curve" smooth="yes"/>
      <point x="70" y="0" type="line" smooth="yes"/>
      <point x="50" y="0"/>
      <point x="45" y="0"/>
      <point x="45" y="20" type="curve" smooth="yes"/>
      <point x="45" y="92" type="line" smooth="yes"/>
      <point x="45" y="109"/>
      <point x="54" y="110"/>
      <point x="72" y="110" type="curve" smooth="yes"/>
      <point x="138" y="110" type="line" smooth="yes"/>
      <point x="160" y="110"/>
      <point x="165" y="117"/>
      <point x="165" y="140" type="curve" smooth="yes"/>
      <point x="165" y="1360" type="line" smooth="yes"/>
      <point x="165" y="1387"/>
      <point x="162" y="1390"/>
    </contour>
  </outline>
</glyph>
<glyph name="Zhe-cy" format="2">
  <advance height="2080" width="1820"/>
  <unicode hex="0416"/>
  <outline>
    <contour>
      <point x="1685" y="205" type="curve" smooth="yes"/>
      <point x="1679" y="84"/>
      <point x="1614" y="-20"/>
      <point x="1500" y="-20" type="curve" smooth="yes"/>
      <point x="1054" y="-20"/>
      <point x="1573" y="690"/>
      <point x="1060" y="690" type="curve" smooth="yes"/>
      <point x="1051" y="690" type="line" smooth="yes"/>
      <point x="1018" y="690"/>
      <point x="1009" y="686"/>
      <point x="1006" y="665" type="curve" smooth="yes"/>
      <point x="1006" y="153" type="line" smooth="yes"/>
      <point x="1006" y="113"/>
      <point x="1013" y="110"/>
      <point x="1054" y="110" type="curve" smooth="yes"/>
      <point x="1094" y="110" type="line" smooth="yes"/>
      <point x="1122" y="110"/>
      <point x="1126" y="101"/>
      <point x="1126" y="75" type="curve" smooth="yes"/>
      <point x="1126" y="32" type="line" smooth="yes"/>
      <point x="1126" y="6"/>
      <point x="1120" y="0"/>
      <point x="1095" y="0" type="curve" smooth="yes"/>
      <point x="726" y="0" type="line" smooth="yes"/>
      <point x="701" y="0"/>
      <point x="695" y="6"/>
      <point x="695" y="32" type="curve" smooth="yes"/>
      <point x="695" y="75" type="line" smooth="yes"/>
      <point x="695" y="101"/>
      <point x="699" y="110"/>
      <point x="727" y="110" type="curve" smooth="yes"/>
      <point x="767" y="110" type="line" smooth="yes"/>
      <point x="808" y="110"/>
      <point x="815" y="113"/>
      <point x="815" y="153" type="curve" smooth="yes"/>
      <point x="815" y="665" type="line" smooth="yes"/>
      <point x="812" y="686"/>
      <point x="803" y="690"/>
      <point x="770" y="690" type="curve" smooth="yes"/>
      <point x="761" y="690" type="line" smooth="yes"/>
      <point x="248" y="690"/>
      <point x="787" y="-20"/>
      <point x="321" y="-20" type="curve" smooth="yes"/>
      <point x="207" y="-20"/>
      <point x="142" y="84"/>
      <point x="136" y="205" type="curve" smooth="yes"/>
      <point x="135" y="223"/>
      <point x="141" y="233"/>
      <point x="161" y="233" type="curve" smooth="yes"/>
      <point x="181" y="234" type="line" smooth="yes"/>
      <point x="201" y="234"/>
      <point x="212" y="229"/>
      <point x="212" y="212" type="curve" smooth="yes"/>
      <point x="212" y="143"/>
      <point x="232" y="110"/>
      <point x="269" y="110" type="curve" smooth="yes"/>
      <point x="439" y="110"/>
      <point x="193" y="582"/>
      <point x="454" y="724" type="curve" smooth="yes"/>
      <point x="546" y="774"/>
      <point x="683" y="729"/>
      <point x="595" y="803" type="curve" smooth="yes"/>
      <point x="510" y="874"/>
      <point x="486" y="1011"/>
      <point x="473" y="1162" type="curve" smooth="yes"/>
      <point x="459" y="1325"/>
      <point x="449" y="1419"/>
      <point x="366" y="1419" type="curve" smooth="yes"/>
      <point x="349" y="1419"/>
      <point x="335" y="1413"/>
      <point x="335" y="1400" type="curve" smooth="yes"/>
      <point x="335" y="1340"/>
      <point x="377" y="1346"/>
      <point x="377" y="1266" type="curve" smooth="yes"/>
      <point x="377" y="1200"/>
      <point x="311" y="1155"/>
      <point x="241" y="1155" type="curve" smooth="yes"/>
      <point x="161" y="1155"/>
      <point x="88" y="1231"/>
      <point x="88" y="1317" type="curve" smooth="yes"/>
      <point x="88" y="1431"/>
      <point x="167" y="1534"/>
      <point x="319" y="1534" type="curve" smooth="yes"/>
      <point x="529" y="1534"/>
      <point x="577" y="1378"/>
      <point x="593" y="1162" type="curve" smooth="yes"/>
      <point x="607" y="968"/>
      <point x="678" y="810"/>
      <point x="761" y="810" type="curve" smooth="yes"/>
      <point x="769" y="810" type="line" smooth="yes"/>
      <point x="802" y="810"/>
      <point x="812" y="814"/>
      <point x="815" y="835" type="curve" smooth="yes"/>
      <point x="815" y="1342" type="line" smooth="yes"/>
      <point x="815" y="1385"/>
      <point x="808" y="1390"/>
      <point x="766" y="1390" type="curve" smooth="yes"/>
      <point x="758" y="1390" type="line" smooth="yes"/>
      <point x="733" y="1390"/>
      <point x="716" y="1397"/>
      <point x="716" y="1432" type="curve" smooth="yes"/>
      <point x="716" y="1466" type="line" smooth="yes"/>
      <point x="716" y="1497"/>
      <point x="722" y="1500"/>
      <point x="752" y="1500" type="curve" smooth="yes"/>
      <point x="1069" y="1500" type="line" smooth="yes"/>
      <point x="1099" y="1500"/>
      <point x="1105" y="1497"/>
      <point x="1105" y="1466" type="curve" smooth="yes"/>
      <point x="1105" y="1432" type="line" smooth="yes"/>
      <point x="1105" y="1397"/>
      <point x="1088" y="1390"/>
      <point x="1063" y="1390" type="curve" smooth="yes"/>
      <point x="1055" y="1390" type="line" smooth="yes"/>
      <point x="1013" y="1390"/>
      <point x="1006" y="1385"/>
      <point x="1006" y="1342" type="curve" smooth="yes"/>
      <point x="1006" y="835" type="line" smooth="yes"/>
      <point x="1009" y="814"/>
      <point x="1019" y="810"/>
      <point x="1052" y="810" type="curve" smooth="yes"/>
      <point x="1070" y="810" type="line" smooth="yes"/>
      <point x="1193" y="810"/>
      <point x="1214" y="968"/>
      <point x="1228" y="1162" type="curve" smooth="yes"/>
      <point x="1244" y="1378"/>
      <point x="1292" y="1534"/>
      <point x="1502" y="1534" type="curve" smooth="yes"/>
      <point x="1654" y="1534"/>
      <point x="1733" y="1431"/>
      <point x="1733" y="1317" type="curve" smooth="yes"/>
      <point x="1733" y="1231"/>
      <point x="1660" y="1155"/>
      <point x="1580" y="1155" type="curve" smooth="yes"/>
      <point x="1510" y="1155"/>
      <point x="1444" y="1200"/>
      <point x="1444" y="1266" type="curve" smooth="yes"/>
      <point x="1444" y="1346"/>
      <point x="1486" y="1340"/>
      <point x="1486" y="1400" type="curve" smooth="yes"/>
      <point x="1486" y="1413"/>
      <point x="1472" y="1419"/>
      <point x="1455" y="1419" type="curve" smooth="yes"/>
      <point x="1372" y="1419"/>
      <point x="1362" y="1325"/>
      <point x="1348" y="1162" type="curve" smooth="yes"/>
      <point x="1335" y="1011"/>
      <point x="1311" y="874"/>
      <point x="1246" y="813" type="curve" smooth="yes"/>
      <point x="1162" y="734"/>
      <point x="1265" y="774"/>
      <point x="1357" y="724" type="curve" smooth="yes"/>
      <point x="1618" y="582"/>
      <point x="1382" y="110"/>
      <point x="1552" y="110" type="curve" smooth="yes"/>
      <point x="1589" y="110"/>
      <point x="1609" y="143"/>
      <point x="1609" y="212" type="curve" smooth="yes"/>
      <point x="1609" y="229"/>
      <point x="1620" y="234"/>
      <point x="1640" y="234" type="curve" smooth="yes"/>
      <point x="1660" y="233" type="line" smooth="yes"/>
      <point x="1680" y="233"/>
      <point x="1686" y="223"/>
    </contour>
  </outline>
</glyph>
<glyph name="Iishort-cy" format="2">
  <advance width="1196"/>
  <unicode hex="0419"/>
  <anchor x="589" y="1500" name="Anchor-0"/>
  <anchor x="589" y="0" name="Anchor-1"/>
  <anchor x="589" y="0" name="Anchor-2"/>
  <outline>
    <contour>
      <point x="806" y="1961" type="curve" smooth="yes"/>
      <point x="877" y="1961"/>
      <point x="929" y="1912"/>
      <point x="929" y="1841" type="curve" smooth="yes"/>
      <point x="929" y="1716"/>
      <point x="794" y="1637"/>
      <point x="582" y="1637" type="curve" smooth="yes"/>
      <point x="368" y="1637"/>
      <point x="234" y="1716"/>
      <point x="234" y="1843" type="curve" smooth="yes"/>
      <point x="234" y="1912"/>
      <point x="286" y="1961"/>
      <point x="357" y="1961" type="curve" smooth="yes"/>
      <point x="417" y="1961"/>
      <point x="463" y="1920"/>
      <point x="463" y="1866" type="curve" smooth="yes"/>
      <point x="463" y="1817"/>
      <point x="396" y="1809"/>
      <point x="396" y="1777" type="curve" smooth="yes"/>
      <point x="396" y="1744"/>
      <point x="463" y="1720"/>
      <point x="590" y="1720" type="curve" smooth="yes"/>
      <point x="704" y="1720"/>
      <point x="767" y="1746"/>
      <point x="767" y="1777" type="curve" smooth="yes"/>
      <point x="767" y="1810"/>
      <point x="700" y="1816"/>
      <point x="700" y="1866" type="curve" smooth="yes"/>
      <point x="700" y="1920"/>
      <point x="746" y="1961"/>
    </contour>
    <component base="Ii-cy"/>
  </outline>
</glyph>
<glyph name="Sha-cy" format="2">
  <advance height="2080" width="1836"/>
  <unicode hex="0428"/>
  <anchor x="909" y="1500" name="Anchor-0"/>
  <anchor x="905" y="0" name="Anchor-1"/>
  <anchor x="905" y="0" name="Anchor-2"/>
  <anchor x="905" y="0" name="Anchor-3"/>
  <outline>
    <contour>
      <point x="348" y="1354" type="curve" smooth="yes"/>
      <point x="348" y="154" type="line" smooth="yes"/>
      <point x="348" y="121"/>
      <point x="357" y="110"/>
      <point x="386" y="110" type="curve" smooth="yes"/>
      <point x="745" y="110" type="line" smooth="yes"/>
      <point x="780" y="110"/>
      <point x="813" y="114"/>
      <point x="813" y="160" type="curve" smooth="yes"/>
      <point x="813" y="1356" type="line" smooth="yes"/>
      <point x="813" y="1382"/>
      <point x="813" y="1390"/>
      <point x="783" y="1390" type="curve" smooth="yes"/>
      <point x="737" y="1390" type="line" smooth="yes"/>
      <point x="711" y="1390"/>
      <point x="703" y="1399"/>
      <point x="703" y="1420" type="curve" smooth="yes"/>
      <point x="703" y="1474" type="line" smooth="yes"/>
      <point x="703" y="1500"/>
      <point x="710" y="1500"/>
      <point x="733" y="1500" type="curve" smooth="yes"/>
      <point x="1107" y="1500" type="line" smooth="yes"/>
      <point x="1137" y="1500"/>
      <point x="1143" y="1497"/>
      <point x="1143" y="1466" type="curve" smooth="yes"/>
      <point x="1143" y="1432" type="line" smooth="yes"/>
      <point x="1143" y="1397"/>
      <point x="1126" y="1390"/>
      <point x="1101" y="1390" type="curve" smooth="yes"/>
      <point x="1041" y="1390" type="line" smooth="yes"/>
      <point x="1009" y="1390"/>
      <point x="1003" y="1387"/>
      <point x="1003" y="1354" type="curve" smooth="yes"/>
      <point x="1003" y="154" type="line" smooth="yes"/>
      <point x="1003" y="121"/>
      <point x="1012" y="110"/>
      <point x="1041" y="110" type="curve" smooth="yes"/>
      <point x="1400" y="110" type="line" smooth="yes"/>
      <point x="1435" y="110"/>
      <point x="1468" y="114"/>
      <point x="1468" y="160" type="curve" smooth="yes"/>
      <point x="1468" y="1356" type="line" smooth="yes"/>
      <point x="1468" y="1382"/>
      <point x="1468" y="1390"/>
      <point x="1438" y="1390" type="curve" smooth="yes"/>
      <point x="1392" y="1390" type="line" smooth="yes"/>
      <point x="1366" y="1390"/>
      <point x="1358" y="1399"/>
      <point x="1358" y="1420" type="curve" smooth="yes"/>
      <point x="1358" y="1474" type="line" smooth="yes"/>
      <point x="1358" y="1500"/>
      <point x="1365" y="1500"/>
      <point x="1388" y="1500" type="curve" smooth="yes"/>
      <point x="1762" y="1500" type="line" smooth="yes"/>
      <point x="1792" y="1500"/>
      <point x="1798" y="1497"/>
      <point x="1798" y="1466" type="curve" smooth="yes"/>
      <point x="1798" y="1432" type="line" smooth="yes"/>
      <point x="1798" y="1397"/>
      <point x="1781" y="1390"/>
      <point x="1756" y="1390" type="curve" smooth="yes"/>
      <point x="1696" y="1390" type="line" smooth="yes"/>
      <point x="1664" y="1390"/>
      <point x="1658" y="1387"/>
      <point x="1658" y="1354" type="curve" smooth="yes"/>
      <point x="1658" y="154" type="line" smooth="yes"/>
      <point x="1658" y="121"/>
      <point x="1667" y="110"/>
      <point x="1696" y="110" type="curve" smooth="yes"/>
      <point x="1776" y="110" type="line" smooth="yes"/>
      <point x="1795" y="110"/>
      <point x="1798" y="97"/>
      <point x="1798" y="78" type="curve" smooth="yes"/>
      <point x="1798" y="32" type="line" smooth="yes"/>
      <point x="1798" y="8"/>
      <point x="1786" y="0"/>
      <point x="1758" y="0" type="curve" smooth="yes"/>
      <point x="78" y="0" type="line" smooth="yes"/>
      <point x="50" y="0"/>
      <point x="38" y="7"/>
      <point x="38" y="32" type="curve" smooth="yes"/>
      <point x="38" y="82" type="line" smooth="yes"/>
      <point x="38" y="103"/>
      <point x="46" y="110"/>
      <point x="84" y="110" type="curve" smooth="yes"/>
      <point x="90" y="110" type="line" smooth="yes"/>
      <point x="125" y="110"/>
      <point x="158" y="114"/>
      <point x="158" y="160" type="curve" smooth="yes"/>
      <point x="158" y="1356" type="line" smooth="yes"/>
      <point x="158" y="1382"/>
      <point x="158" y="1390"/>
      <point x="128" y="1390" type="curve" smooth="yes"/>
      <point x="72" y="1390" type="line" smooth="yes"/>
      <point x="46" y="1390"/>
      <point x="38" y="1399"/>
      <point x="38" y="1420" type="curve" smooth="yes"/>
      <point x="38" y="1474" type="line" smooth="yes"/>
      <point x="38" y="1500"/>
      <point x="45" y="1500"/>
      <point x="68" y="1500" type="curve" smooth="yes"/>
      <point x="452" y="1500" type="line" smooth="yes"/>
      <point x="482" y="1500"/>
      <point x="488" y="1497"/>
      <point x="488" y="1466" type="curve" smooth="yes"/>
      <point x="488" y="1432" type="line" smooth="yes"/>
      <point x="488" y="1397"/>
      <point x="471" y="1390"/>
      <point x="446" y="1390" type="curve" smooth="yes"/>
      <point x="386" y="1390" type="line" smooth="yes"/>
      <point x="354" y="1390"/>
      <point x="348" y="1387"/>
    </contour>
  </outline>
</glyph>
<glyph name="Yu-cy" format="2">
  <advance width="1523"/>
  <unicode hex="042E"/>
  <outline>
    <contour>
      <point x="738" y="750" type="curve" smooth="yes"/>
      <point x="738" y="306"/>
      <point x="800" y="80"/>
      <point x="998" y="80" type="curve" smooth="yes"/>
      <point x="1246" y="80"/>
      <point x="1258" y="306"/>
      <point x="1258" y="750" type="curve" smooth="yes"/>
      <point x="1258" y="1214"/>
      <point x="1226" y="1420"/>
      <point x="998" y="1420" type="curve" smooth="yes"/>
      <point x="800" y="1420"/>
      <point x="738" y="1214"/>
    </contour>
    <contour>
      <point x="396" y="810" type="curve" smooth="yes"/>
      <point x="495" y="810" type="line" smooth="yes"/>
      <point x="534" y="810"/>
      <point x="532" y="834"/>
      <point x="535" y="866" type="curve" smooth="yes"/>
      <point x="580" y="1387"/>
      <point x="743" y="1520"/>
      <point x="998" y="1520" type="curve" smooth="yes"/>
      <point x="1294" y="1520"/>
      <point x="1468" y="1326"/>
      <point x="1468" y="750" type="curve" smooth="yes"/>
      <point x="1468" y="184"/>
      <point x="1274" y="-20"/>
      <point x="998" y="-20" type="curve" smooth="yes"/>
      <point x="736" y="-20"/>
      <point x="571" y="133"/>
      <point x="533" y="654" type="curve" smooth="yes"/>
      <point x="531" y="688"/>
      <point x="530" y="700"/>
      <point x="491" y="700" type="curve" smooth="yes"/>
      <point x="400" y="700" type="line" smooth="yes"/>
      <point x="363" y="700"/>
      <point x="348" y="694"/>
      <point x="348" y="656" type="curve" smooth="yes"/>
      <point x="348" y="154" type="line" smooth="yes"/>
      <point x="348" y="121"/>
      <point x="357" y="110"/>
      <point x="386" y="110" type="curve" smooth="yes"/>
      <point x="446" y="110" type="line" smooth="yes"/>
      <point x="465" y="110"/>
      <point x="468" y="97"/>
      <point x="468" y="78" type="curve" smooth="yes"/>
      <point x="468" y="32" type="line" smooth="yes"/>
      <point x="468" y="8"/>
      <point x="456" y="0"/>
      <point x="428" y="0" type="curve" smooth="yes"/>
      <point x="78" y="0" type="line" smooth="yes"/>
      <point x="50" y="0"/>
      <point x="38" y="7"/>
      <point x="38" y="32" type="curve" smooth="yes"/>
      <point x="38" y="82" type="line" smooth="yes"/>
      <point x="38" y="103"/>
      <point x="46" y="110"/>
      <point x="84" y="110" type="curve" smooth="yes"/>
      <point x="90" y="110" type="line" smooth="yes"/>
      <point x="125" y="110"/>
      <point x="158" y="114"/>
      <point x="158" y="160" type="curve" smooth="yes"/>
      <point x="158" y="1356" type="line" smooth="yes"/>
      <point x="158" y="1382"/>
      <point x="158" y="1390"/>
      <point x="128" y="1390" type="curve" smooth="yes"/>
      <point x="72" y="1390" type="line" smooth="yes"/>
      <point x="46" y="1390"/>
      <point x="38" y="1399"/>
      <point x="38" y="1420" type="curve" smooth="yes"/>
      <point x="38" y="1474" type="line" smooth="yes"/>
      <point x="38" y="1500"/>
      <point x="45" y="1500"/>
      <point x="68" y="1500" type="curve" smooth="yes"/>
      <point x="432" y="1500" type="line" smooth="yes"/>
      <point x="462" y="1500"/>
      <point x="468" y="1497"/>
      <point x="468" y="1466" type="curve" smooth="yes"/>
      <point x="468" y="1432" type="line" smooth="yes"/>
      <point x="468" y="1397"/>
      <point x="451" y="1390"/>
      <point x="426" y="1390" type="curve" smooth="yes"/>
      <point x="386" y="1390" type="line" smooth="yes"/>
      <point x="354" y="1390"/>
      <point x="348" y="1387"/>
      <point x="348" y="1354" type="curve" smooth="yes"/>
      <point x="348" y="864" type="line" smooth="yes"/>
      <point x="348" y="821"/>
      <point x="350" y="810"/>
    </contour>
  </outline>
</glyph>
<glyph name="de-cy" format="2">
  <advance height="2234" width="900"/>
  <unicode hex="0434"/>
  <outline>
    <contour>
      <point x="407" y="930" type="line" smooth="yes"/>
      <point x="364" y="930"/>
      <point x="362" y="922"/>
      <point x="362" y="878" type="curve" smooth="yes"/>
      <point x="362" y="820"/>
      <point x="340" y="308"/>
      <point x="273" y="174" type="curve" smooth="yes"/>
      <point x="238" y="103"/>
      <point x="257" y="110"/>
      <point x="301" y="110" type="curve" smooth="yes"/>
      <point x="522" y="110" type="line" smooth="yes"/>
      <point x="557" y="110"/>
      <point x="590" y="114"/>
      <point x="590" y="160" type="curve" smooth="yes"/>
      <point x="590" y="896" type="line" smooth="yes"/>
      <point x="590" y="922"/>
      <point x="590" y="930"/>
      <point x="560" y="930" type="curve" smooth="yes"/>
    </contour>
    <contour>
      <point x="770" y="894" type="curve" smooth="yes"/>
      <point x="770" y="154" type="line" smooth="yes"/>
      <point x="770" y="121"/>
      <point x="779" y="110"/>
      <point x="808" y="110" type="curve" smooth="yes"/>
      <point x="828" y="110" type="line" smooth="yes"/>
      <point x="847" y="110"/>
      <point x="850" y="97"/>
      <point x="850" y="78" type="curve" smooth="yes"/>
      <point x="850" y="-299" type="line" smooth="yes"/>
      <point x="850" y="-328"/>
      <point x="842" y="-330"/>
      <point x="812" y="-330" type="curve" smooth="yes"/>
      <point x="788" y="-330" type="line" smooth="yes"/>
      <point x="751" y="-330"/>
      <point x="750" y="-315"/>
      <point x="749" y="-283" type="curve" smooth="yes"/>
      <point x="742" y="-66"/>
      <point x="670" y="0"/>
      <point x="510" y="0" type="curve" smooth="yes"/>
      <point x="370" y="0" type="line" smooth="yes"/>
      <point x="208" y="0"/>
      <point x="136" y="-68"/>
      <point x="130" y="-289" type="curve" smooth="yes"/>
      <point x="129" y="-320"/>
      <point x="126" y="-330"/>
      <point x="92" y="-330" type="curve" smooth="yes"/>
      <point x="64" y="-330" type="line" smooth="yes"/>
      <point x="30" y="-330"/>
      <point x="30" y="-309"/>
      <point x="30" y="-279" type="curve" smooth="yes"/>
      <point x="30" y="82" type="line" smooth="yes"/>
      <point x="30" y="103"/>
      <point x="38" y="110"/>
      <point x="76" y="110" type="curve" smooth="yes"/>
      <point x="219" y="110"/>
      <point x="242" y="788"/>
      <point x="242" y="871" type="curve" smooth="yes"/>
      <point x="242" y="916"/>
      <point x="240" y="930"/>
      <point x="215" y="930" type="curve" smooth="yes"/>
      <point x="207" y="930" type="line" smooth="yes"/>
      <point x="195" y="930"/>
      <point x="192" y="937"/>
      <point x="192" y="980" type="curve" smooth="yes"/>
      <point x="192" y="1000" type="line" smooth="yes"/>
      <point x="192" y="1039"/>
      <point x="206" y="1040"/>
      <point x="242" y="1040" type="curve" smooth="yes"/>
      <point x="814" y="1040" type="line" smooth="yes"/>
      <point x="844" y="1040"/>
      <point x="850" y="1037"/>
      <point x="850" y="1006" type="curve" smooth="yes"/>
      <point x="850" y="972" type="line" smooth="yes"/>
      <point x="850" y="937"/>
      <point x="835" y="930"/>
      <point x="810" y="930" type="curve" smooth="yes"/>
      <point x="808" y="930" type="line" smooth="yes"/>
      <point x="776" y="930"/>
      <point x="770" y="927"/>
    </contour>
  </outline>
</glyph>
<glyph name="iishort-cy" format="2">
  <advance height="2310" width="926"/>
  <unicode hex="0439"/>
  <outline>
    <contour>
      <point x="676" y="1521" type="curve" smooth="yes"/>
      <point x="747" y="1521"/>
      <point x="799" y="1472"/>
      <point x="799" y="1401" type="curve" smooth="yes"/>
      <point x="799" y="1276"/>
      <point x="664" y="1197"/>
      <point x="452" y="1197" type="curve" smooth="yes"/>
      <point x="238" y="1197"/>
      <point x="104" y="1276"/>
      <point x="104" y="1403" type="curve" smooth="yes"/>
      <point x="104" y="1472"/>
      <point x="156" y="1521"/>
      <point x="227" y="1521" type="curve" smooth="yes"/>
      <point x="287" y="1521"/>
      <point x="333" y="1480"/>
      <point x="333" y="1426" type="curve" smooth="yes"/>
      <point x="333" y="1377"/>
      <point x="266" y="1369"/>
      <point x="266" y="1337" type="curve" smooth="yes"/>
      <point x="266" y="1304"/>
      <point x="333" y="1280"/>
      <point x="460" y="1280" type="curve" smooth="yes"/>
      <point x="574" y="1280"/>
      <point x="637" y="1306"/>
      <point x="637" y="1337" type="curve" smooth="yes"/>
      <point x="637" y="1370"/>
      <point x="570" y="1376"/>
      <point x="570" y="1426" type="curve" smooth="yes"/>
      <point x="570" y="1480"/>
      <point x="616" y="1521"/>
    </contour>
    <component base="ii-cy" xOffset="5"/>
  </outline>
</glyph>
<glyph name="em-cy" format="2">
  <advance height="2234" width="1090"/>
  <unicode hex="043C"/>
  <outline>
    <contour>
      <point x="108" y="930" type="curve" smooth="yes"/>
      <point x="104" y="930" type="line" smooth="yes"/>
      <point x="77" y="930"/>
      <point x="70" y="934"/>
      <point x="70" y="960" type="curve" smooth="yes"/>
      <point x="70" y="1006" type="line" smooth="yes"/>
      <point x="70" y="1038"/>
      <point x="83" y="1040"/>
      <point x="112" y="1040" type="curve" smooth="yes"/>
      <point x="374" y="1040" type="line" smooth="yes"/>
      <point x="418" y="1040"/>
      <point x="439" y="1026"/>
      <point x="443" y="994" type="curve" smooth="yes"/>
      <point x="514" y="418" type="line" smooth="yes"/>
      <point x="519" y="378"/>
      <point x="528" y="351"/>
      <point x="539" y="351" type="curve" smooth="yes"/>
      <point x="548" y="351"/>
      <point x="554" y="364"/>
      <point x="561" y="398" type="curve" smooth="yes"/>
      <point x="681" y="1006" type="line" smooth="yes"/>
      <point x="686" y="1034"/>
      <point x="687" y="1040"/>
      <point x="724" y="1040" type="curve" smooth="yes"/>
      <point x="984" y="1040" type="line" smooth="yes"/>
      <point x="1013" y="1040"/>
      <point x="1020" y="1035"/>
      <point x="1020" y="1004" type="curve" smooth="yes"/>
      <point x="1020" y="980" type="line" smooth="yes"/>
      <point x="1020" y="937"/>
      <point x="1014" y="930"/>
      <point x="992" y="930" type="curve" smooth="yes"/>
      <point x="985" y="930" type="line" smooth="yes"/>
      <point x="968" y="930"/>
      <point x="955" y="910"/>
      <point x="956" y="876" type="curve" smooth="yes"/>
      <point x="984" y="152" type="line" smooth="yes"/>
      <point x="985" y="119"/>
      <point x="990" y="110"/>
      <point x="1006" y="110" type="curve" smooth="yes"/>
      <point x="1012" y="110" type="line" smooth="yes"/>
      <point x="1050" y="110"/>
      <point x="1050" y="110"/>
      <point x="1050" y="72" type="curve" smooth="yes"/>
      <point x="1050" y="42" type="line" smooth="yes"/>
      <point x="1050" y="8"/>
      <point x="1047" y="0"/>
      <point x="1014" y="0" type="curve" smooth="yes"/>
      <point x="768" y="0" type="line" smooth="yes"/>
      <point x="737" y="0"/>
      <point x="720" y="5"/>
      <point x="720" y="38" type="curve" smooth="yes"/>
      <point x="720" y="62" type="line" smooth="yes"/>
      <point x="720" y="101"/>
      <point x="721" y="110"/>
      <point x="760" y="110" type="curve" smooth="yes"/>
      <point x="766" y="110" type="line" smooth="yes"/>
      <point x="791" y="110"/>
      <point x="796" y="120"/>
      <point x="795" y="152" type="curve" smooth="yes"/>
      <point x="780" y="709" type="line" smooth="yes"/>
      <point x="778" y="761"/>
      <point x="783" y="876"/>
      <point x="774" y="876" type="curve" smooth="yes"/>
      <point x="752" y="876"/>
      <point x="751" y="821"/>
      <point x="738" y="762" type="curve" smooth="yes"/>
      <point x="577" y="16" type="line" smooth="yes"/>
      <point x="572" y="-9"/>
      <point x="563" y="-20"/>
      <point x="529" y="-20" type="curve" smooth="yes"/>
      <point x="493" y="-20" type="line" smooth="yes"/>
      <point x="445" y="-20"/>
      <point x="435" y="-1"/>
      <point x="429" y="34" type="curve" smooth="yes"/>
      <point x="308" y="768" type="line" smooth="yes"/>
      <point x="301" y="810"/>
      <point x="289" y="900"/>
      <point x="264" y="900" type="curve" smooth="yes"/>
      <point x="257" y="900"/>
      <point x="254" y="880"/>
      <point x="251" y="818" type="curve" smooth="yes"/>
      <point x="236" y="175" type="line" smooth="yes"/>
      <point x="234" y="120"/>
      <point x="245" y="110"/>
      <point x="272" y="110" type="curve" smooth="yes"/>
      <point x="284" y="110" type="line" smooth="yes"/>
      <point x="322" y="110"/>
      <point x="330" y="106"/>
      <point x="330" y="66" type="curve" smooth="yes"/>
      <point x="330" y="40" type="line" smooth="yes"/>
      <point x="330" y="5"/>
      <point x="314" y="0"/>
      <point x="278" y="0" type="curve" smooth="yes"/>
      <point x="84" y="0" type="line" smooth="yes"/>
      <point x="47" y="0"/>
      <point x="40" y="4"/>
      <point x="40" y="40" type="curve" smooth="yes"/>
      <point x="40" y="68" type="line" smooth="yes"/>
      <point x="40" y="105"/>
      <point x="46" y="110"/>
      <point x="67" y="110" type="curve" smooth="yes"/>
      <point x="70" y="110" type="line" smooth="yes"/>
      <point x="103" y="110"/>
      <point x="106" y="125"/>
      <point x="107" y="154" type="curve" smooth="yes"/>
      <point x="134" y="890" type="line" smooth="yes"/>
      <point x="135" y="917"/>
      <point x="133" y="930"/>
    </contour>
  </outline>
</glyph>
<glyph name="che-cy" format="2">
  <advance height="2310" width="888"/>
  <unicode hex="0447"/>
  <outline>
    <contour>
      <point x="570" y="878" type="line" smooth="yes"/>
      <point x="570" y="920"/>
      <point x="567" y="930"/>
      <point x="540" y="930" type="curve" smooth="yes"/>
      <point x="534" y="930" type="line" smooth="yes"/>
      <point x="506" y="930"/>
      <point x="500" y="943"/>
      <point x="500" y="969" type="curve" smooth="yes"/>
      <point x="500" y="998" type="line" smooth="yes"/>
      <point x="500" y="1034"/>
      <point x="505" y="1040"/>
      <point x="540" y="1040" type="curve" smooth="yes"/>
      <point x="800" y="1040" type="line" smooth="yes"/>
      <point x="832" y="1040"/>
      <point x="840" y="1036"/>
      <point x="840" y="1002" type="curve" smooth="yes"/>
      <point x="840" y="964" type="line" smooth="yes"/>
      <point x="840" y="936"/>
      <point x="831" y="930"/>
      <point x="801" y="930" type="curve" smooth="yes"/>
      <point x="795" y="930" type="line" smooth="yes"/>
      <point x="771" y="930"/>
      <point x="760" y="928"/>
      <point x="760" y="884" type="curve" smooth="yes"/>
      <point x="760" y="144" type="line" smooth="yes"/>
      <point x="760" y="116"/>
      <point x="767" y="110"/>
      <point x="797" y="110" type="curve" smooth="yes"/>
      <point x="801" y="110" type="line" smooth="yes"/>
      <point x="828" y="110"/>
      <point x="840" y="107"/>
      <point x="840" y="78" type="curve" smooth="yes"/>
      <point x="840" y="44" type="line" smooth="yes"/>
      <point x="840" y="2"/>
      <point x="829" y="0"/>
      <point x="790" y="0" type="curve" smooth="yes"/>
      <point x="530" y="0" type="line" smooth="yes"/>
      <point x="494" y="0"/>
      <point x="490" y="7"/>
      <point x="490" y="44" type="curve" smooth="yes"/>
      <point x="490" y="74" type="line" smooth="yes"/>
      <point x="490" y="102"/>
      <point x="492" y="110"/>
      <point x="519" y="110" type="curve" smooth="yes"/>
      <point x="528" y="110" type="line" smooth="yes"/>
      <point x="567" y="110"/>
      <point x="570" y="123"/>
      <point x="570" y="160" type="curve" smooth="yes"/>
      <point x="570" y="367" type="line" smooth="yes"/>
      <point x="570" y="403"/>
      <point x="563" y="429"/>
      <point x="527" y="410" type="curve" smooth="yes"/>
      <point x="479" y="385"/>
      <point x="429" y="364"/>
      <point x="330" y="364" type="curve" smooth="yes"/>
      <point x="144" y="364"/>
      <point x="110" y="478"/>
      <point x="110" y="694" type="curve" smooth="yes"/>
      <point x="110" y="891" type="line" smooth="yes"/>
      <point x="110" y="923"/>
      <point x="101" y="930"/>
      <point x="71" y="930" type="curve" smooth="yes"/>
      <point x="65" y="930" type="line" smooth="yes"/>
      <point x="31" y="930"/>
      <point x="30" y="941"/>
      <point x="30" y="976" type="curve" smooth="yes"/>
      <point x="30" y="1002" type="line" smooth="yes"/>
      <point x="30" y="1034"/>
      <point x="40" y="1040"/>
      <point x="70" y="1040" type="curve" smooth="yes"/>
      <point x="330" y="1040" type="line" smooth="yes"/>
      <point x="357" y="1040"/>
      <point x="370" y="1037"/>
      <point x="370" y="1008" type="curve" smooth="yes"/>
      <point x="370" y="968" type="line" smooth="yes"/>
      <point x="370" y="936"/>
      <point x="364" y="930"/>
      <point x="333" y="930" type="curve" smooth="yes"/>
      <point x="329" y="930" type="line" smooth="yes"/>
      <point x="295" y="930"/>
      <point x="290" y="923"/>
      <point x="290" y="887" type="curve" smooth="yes"/>
      <point x="290" y="744" type="line" smooth="yes"/>
      <point x="290" y="540"/>
      <point x="302" y="484"/>
      <point x="370" y="484" type="curve" smooth="yes"/>
      <point x="445" y="484"/>
      <point x="491" y="499"/>
      <point x="524" y="526" type="curve" smooth="yes"/>
      <point x="552" y="549"/>
      <point x="570" y="554"/>
      <point x="570" y="608" type="curve" smooth="yes"/>
    </contour>
  </outline>
</glyph>
<glyph name="shcha-cy" format="2">
  <advance height="2310" width="1256"/>
  <unicode hex="0449"/>
  <outline>
    <contour>
      <point x="538" y="889" type="line" smooth="yes"/>
      <point x="538" y="920"/>
      <point x="527" y="930"/>
      <point x="496" y="930" type="curve" smooth="yes"/>
      <point x="493" y="930" type="line" smooth="yes"/>
      <point x="466" y="930"/>
      <point x="458" y="935"/>
      <point x="458" y="964" type="curve" smooth="yes"/>
      <point x="458" y="1010" type="line" smooth="yes"/>
      <point x="458" y="1034"/>
      <point x="463" y="1040"/>
      <point x="486" y="1040" type="curve" smooth="yes"/>
      <point x="770" y="1040" type="line" smooth="yes"/>
      <point x="794" y="1040"/>
      <point x="798" y="1033"/>
      <point x="798" y="1008" type="curve" smooth="yes"/>
      <point x="798" y="962" type="line" smooth="yes"/>
      <point x="798" y="934"/>
      <point x="788" y="930"/>
      <point x="762" y="930" type="curve" smooth="yes"/>
      <point x="752" y="930" type="line" smooth="yes"/>
      <point x="726" y="930"/>
      <point x="718" y="927"/>
      <point x="718" y="902" type="curve" smooth="yes"/>
      <point x="718" y="155" type="line" smooth="yes"/>
      <point x="718" y="120"/>
      <point x="719" y="110"/>
      <point x="754" y="110" type="curve" smooth="yes"/>
      <point x="908" y="110" type="line" smooth="yes"/>
      <point x="940" y="110"/>
      <point x="948" y="114"/>
      <point x="948" y="149" type="curve" smooth="yes"/>
      <point x="948" y="889" type="line" smooth="yes"/>
      <point x="948" y="920"/>
      <point x="937" y="930"/>
      <point x="906" y="930" type="curve" smooth="yes"/>
      <point x="903" y="930" type="line" smooth="yes"/>
      <point x="876" y="930"/>
      <point x="868" y="935"/>
      <point x="868" y="964" type="curve" smooth="yes"/>
      <point x="868" y="1010" type="line" smooth="yes"/>
      <point x="868" y="1034"/>
      <point x="873" y="1040"/>
      <point x="896" y="1040" type="curve" smooth="yes"/>
      <point x="1180" y="1040" type="line" smooth="yes"/>
      <point x="1204" y="1040"/>
      <point x="1208" y="1033"/>
      <point x="1208" y="1008" type="curve" smooth="yes"/>
      <point x="1208" y="962" type="line" smooth="yes"/>
      <point x="1208" y="934"/>
      <point x="1198" y="930"/>
      <point x="1172" y="930" type="curve" smooth="yes"/>
      <point x="1162" y="930" type="line" smooth="yes"/>
      <point x="1136" y="930"/>
      <point x="1128" y="927"/>
      <point x="1128" y="902" type="curve" smooth="yes"/>
      <point x="1128" y="155" type="line" smooth="yes"/>
      <point x="1128" y="120"/>
      <point x="1129" y="110"/>
      <point x="1164" y="110" type="curve" smooth="yes"/>
      <point x="1182" y="110" type="line" smooth="yes"/>
      <point x="1204" y="110"/>
      <point x="1208" y="103"/>
      <point x="1208" y="80" type="curve" smooth="yes"/>
      <point x="1208" y="-293" type="line" smooth="yes"/>
      <point x="1208" y="-311"/>
      <point x="1207" y="-320"/>
      <point x="1189" y="-320" type="curve" smooth="yes"/>
      <point x="1137" y="-320" type="line" smooth="yes"/>
      <point x="1118" y="-320"/>
      <point x="1119" y="-315"/>
      <point x="1118" y="-297" type="curve" smooth="yes"/>
      <point x="1111" y="-153"/>
      <point x="1074" y="0"/>
      <point x="878" y="0" type="curve" smooth="yes"/>
      <point x="76" y="0" type="line" smooth="yes"/>
      <point x="52" y="0"/>
      <point x="48" y="7"/>
      <point x="48" y="32" type="curve" smooth="yes"/>
      <point x="48" y="78" type="line" smooth="yes"/>
      <point x="48" y="106"/>
      <point x="58" y="110"/>
      <point x="84" y="110" type="curve" smooth="yes"/>
      <point x="94" y="110" type="line" smooth="yes"/>
      <point x="120" y="110"/>
      <point x="128" y="113"/>
      <point x="128" y="138" type="curve" smooth="yes"/>
      <point x="128" y="885" type="line" smooth="yes"/>
      <point x="128" y="920"/>
      <point x="127" y="930"/>
      <point x="92" y="930" type="curve" smooth="yes"/>
      <point x="74" y="930" type="line" smooth="yes"/>
      <point x="52" y="930"/>
      <point x="48" y="937"/>
      <point x="48" y="960" type="curve" smooth="yes"/>
      <point x="48" y="1018" type="line" smooth="yes"/>
      <point x="48" y="1040"/>
      <point x="57" y="1040"/>
      <point x="79" y="1040" type="curve" smooth="yes"/>
      <point x="366" y="1040" type="line" smooth="yes"/>
      <point x="387" y="1040"/>
      <point x="388" y="1031"/>
      <point x="388" y="1009" type="curve" smooth="yes"/>
      <point x="388" y="959" type="line" smooth="yes"/>
      <point x="388" y="937"/>
      <point x="384" y="930"/>
      <point x="363" y="930" type="curve" smooth="yes"/>
      <point x="348" y="930" type="line" smooth="yes"/>
      <point x="316" y="930"/>
      <point x="308" y="926"/>
      <point x="308" y="891" type="curve" smooth="yes"/>
      <point x="308" y="151" type="line" smooth="yes"/>
      <point x="308" y="120"/>
      <point x="319" y="110"/>
      <point x="350" y="110" type="curve" smooth="yes"/>
      <point x="498" y="110" type="line" smooth="yes"/>
      <point x="530" y="110"/>
      <point x="538" y="114"/>
      <point x="538" y="149" type="curve" smooth="yes"/>
    </contour>
  </outline>
</glyph>
<glyph name="lje-cy" format="2">
  <advance height="2234" width="1259"/>
  <unicode hex="0459"/>
  <outline>
    <contour>
      <point x="15" y="150" type="curve" smooth="yes"/>
      <point x="15" y="224"/>
      <point x="79" y="270"/>
      <point x="139" y="270" type="curve" smooth="yes"/>
      <point x="199" y="270"/>
      <point x="237" y="234"/>
      <point x="237" y="172" type="curve" smooth="yes"/>
      <point x="237" y="122"/>
      <point x="209" y="124"/>
      <point x="209" y="110" type="curve" smooth="yes"/>
      <point x="209" y="96"/>
      <point x="223" y="90"/>
      <point x="233" y="90" type="curve" smooth="yes"/>
      <point x="306" y="90"/>
      <point x="303" y="544"/>
      <point x="303" y="871" type="curve" smooth="yes"/>
      <point x="303" y="916"/>
      <point x="302" y="930"/>
      <point x="273" y="930" type="curve" smooth="yes"/>
      <point x="268" y="930" type="line" smooth="yes"/>
      <point x="226" y="930"/>
      <point x="223" y="937"/>
      <point x="223" y="980" type="curve" smooth="yes"/>
      <point x="223" y="1000" type="line" smooth="yes"/>
      <point x="223" y="1039"/>
      <point x="237" y="1040"/>
      <point x="273" y="1040" type="curve" smooth="yes"/>
      <point x="865" y="1040" type="line" smooth="yes"/>
      <point x="892" y="1040"/>
      <point x="901" y="1039"/>
      <point x="901" y="1010" type="curve" smooth="yes"/>
      <point x="901" y="959" type="line" smooth="yes"/>
      <point x="901" y="931"/>
      <point x="898" y="930"/>
      <point x="870" y="930" type="curve" smooth="yes"/>
      <point x="849" y="930" type="line" smooth="yes"/>
      <point x="817" y="930"/>
      <point x="811" y="927"/>
      <point x="811" y="894" type="curve" smooth="yes"/>
      <point x="811" y="631" type="line" smooth="yes"/>
      <point x="811" y="595"/>
      <point x="807" y="590"/>
      <point x="845" y="590" type="curve" smooth="yes"/>
      <point x="859" y="590" type="line" smooth="yes"/>
      <point x="1101" y="590"/>
      <point x="1259" y="520"/>
      <point x="1259" y="300" type="curve" smooth="yes"/>
      <point x="1259" y="80"/>
      <point x="1101" y="0"/>
      <point x="859" y="0" type="curve" smooth="yes"/>
      <point x="574" y="0" type="line" smooth="yes"/>
      <point x="553" y="0"/>
      <point x="551" y="4"/>
      <point x="551" y="26" type="curve" smooth="yes"/>
      <point x="551" y="88" type="line" smooth="yes"/>
      <point x="551" y="108"/>
      <point x="561" y="110"/>
      <point x="579" y="110" type="curve" smooth="yes"/>
      <point x="583" y="110" type="line" smooth="yes"/>
      <point x="618" y="110"/>
      <point x="631" y="114"/>
      <point x="631" y="160" type="curve" smooth="yes"/>
      <point x="631" y="896" type="line" smooth="yes"/>
      <point x="631" y="924"/>
      <point x="629" y="930"/>
      <point x="601" y="930" type="curve" smooth="yes"/>
      <point x="473" y="930" type="line" smooth="yes"/>
      <point x="430" y="930"/>
      <point x="428" y="921"/>
      <point x="428" y="878" type="curve" smooth="yes"/>
      <point x="428" y="278"/>
      <point x="436" y="-20"/>
      <point x="213" y="-20" type="curve" smooth="yes"/>
      <point x="99" y="-20"/>
      <point x="15" y="40"/>
    </contour>
    <contour>
      <point x="859" y="110" type="line" smooth="yes"/>
      <point x="961" y="110"/>
      <point x="1039" y="172"/>
      <point x="1039" y="310" type="curve" smooth="yes"/>
      <point x="1039" y="448"/>
      <point x="961" y="480"/>
      <point x="859" y="480" type="curve" smooth="yes"/>
      <point x="845" y="480" type="line" smooth="yes"/>
      <point x="813" y="480"/>
      <point x="811" y="482"/>
      <point x="811" y="449" type="curve" smooth="yes"/>
      <point x="811" y="154" type="line" smooth="yes"/>
      <point x="811" y="121"/>
      <point x="820" y="110"/>
      <point x="849" y="110" type="curve" smooth="yes"/>
    </contour>
  </outline>
</glyph>
<glyph name="Yat-cy" format="2">
  <advance width="1011"/>
  <unicode hex="0462"/>
  <outline>
    <contour>
      <point x="75" y="1160" type="curve" smooth="yes"/>
      <point x="537" y="1160" type="line" smooth="yes"/>
      <point x="565" y="1160"/>
      <point x="568" y="1156"/>
      <point x="568" y="1132" type="curve" smooth="yes"/>
      <point x="568" y="1083" type="line" smooth="yes"/>
      <point x="568" y="1059"/>
      <point x="566" y="1050"/>
      <point x="534" y="1050" type="curve" smooth="yes"/>
      <point x="73" y="1050" type="line" smooth="yes"/>
      <point x="43" y="1050"/>
      <point x="41" y="1054"/>
      <point x="41" y="1080" type="curve" smooth="yes"/>
      <point x="41" y="1132" type="line" smooth="yes"/>
      <point x="41" y="1155"/>
      <point x="49" y="1160"/>
    </contour>
    <component base="Softsign-cy" xOffset="5"/>
  </outline>
</glyph>
<glyph name="yat-cy" format="2">
  <advance height="2234" width="776"/>
  <unicode hex="0463"/>
  <outline>
    <contour>
      <point x="71" y="1140" type="curve" smooth="yes"/>
      <point x="463" y="1140" type="line" smooth="yes"/>
      <point x="491" y="1140"/>
      <point x="494" y="1136"/>
      <point x="494" y="1112" type="curve" smooth="yes"/>
      <point x="494" y="1063" type="line" smooth="yes"/>
      <point x="494" y="1039"/>
      <point x="492" y="1030"/>
      <point x="460" y="1030" type="curve" smooth="yes"/>
      <point x="69" y="1030" type="line" smooth="yes"/>
      <point x="39" y="1030"/>
      <point x="37" y="1034"/>
      <point x="37" y="1060" type="curve" smooth="yes"/>
      <point x="37" y="1112" type="line" smooth="yes"/>
      <point x="37" y="1135"/>
      <point x="45" y="1140"/>
    </contour>
    <contour>
      <point x="61" y="0" type="line" smooth="yes"/>
      <point x="40" y="0"/>
      <point x="38" y="4"/>
      <point x="38" y="26" type="curve" smooth="yes"/>
      <point x="38" y="88" type="line" smooth="yes"/>
      <point x="38" y="108"/>
      <point x="48" y="110"/>
      <point x="66" y="110" type="curve" smooth="yes"/>
      <point x="96" y="110" type="line" smooth="yes"/>
      <point x="117" y="110"/>
      <point x="118" y="117"/>
      <point x="118" y="137" type="curve" smooth="yes"/>
      <point x="118" y="1416" type="line" smooth="yes"/>
      <point x="118" y="1441"/>
      <point x="117" y="1450"/>
      <point x="92" y="1450" type="curve" smooth="yes"/>
      <point x="63" y="1450" type="line" smooth="yes"/>
      <point x="43" y="1450"/>
      <point x="38" y="1452"/>
      <point x="38" y="1474" type="curve" smooth="yes"/>
      <point x="38" y="1536" type="line" smooth="yes"/>
      <point x="38" y="1557"/>
      <point x="45" y="1560"/>
      <point x="65" y="1560" type="curve" smooth="yes"/>
      <point x="352" y="1560" type="line" smooth="yes"/>
      <point x="379" y="1560"/>
      <point x="388" y="1559"/>
      <point x="388" y="1530" type="curve" smooth="yes"/>
      <point x="388" y="1479" type="line" smooth="yes"/>
      <point x="388" y="1451"/>
      <point x="385" y="1450"/>
      <point x="357" y="1450" type="curve" smooth="yes"/>
      <point x="323" y="1450" type="line" smooth="yes"/>
      <point x="301" y="1450"/>
      <point x="298" y="1443"/>
      <point x="298" y="1420" type="curve" smooth="yes"/>
      <point x="298" y="615" type="line" smooth="yes"/>
      <point x="298" y="591"/>
      <point x="307" y="590"/>
      <point x="332" y="590" type="curve" smooth="yes"/>
      <point x="396" y="590" type="line" smooth="yes"/>
      <point x="668" y="590"/>
      <point x="776" y="520"/>
      <point x="776" y="300" type="curve" smooth="yes"/>
      <point x="776" y="80"/>
      <point x="668" y="0"/>
      <point x="396" y="0" type="curve" smooth="yes"/>
    </contour>
    <contour>
      <point x="396" y="110" type="line" smooth="yes"/>
      <point x="498" y="110"/>
      <point x="556" y="172"/>
      <point x="556" y="310" type="curve" smooth="yes"/>
      <point x="556" y="448"/>
      <point x="498" y="480"/>
      <point x="396" y="480" type="curve" smooth="yes"/>
      <point x="347" y="480" type="line" smooth="yes"/>
      <point x="300" y="480"/>
      <point x="298" y="472"/>
      <point x="298" y="424" type="curve" smooth="yes"/>
      <point x="298" y="146" type="line" smooth="yes"/>
      <point x="298" y="114"/>
      <point x="299" y="110"/>
      <point x="331" y="110" type="curve" smooth="yes"/>
    </contour>
  </outline>
</glyph>
<glyph name="Germandbls" format="2">
  <advance height="2309" width="1432"/>
  <unicode hex="1E9E"/>
  <outline>
    <contour>
      <point x="705" y="271" type="line"/>
      <point x="705" y="151"/>
      <point x="817" y="97"/>
      <point x="933" y="97" type="curve" smooth="yes"/>
      <point x="1071" y="97"/>
      <point x="1172" y="222"/>
      <point x="1172" y="410" type="curve" smooth="yes"/>
      <point x="1172" y="558"/>
      <point x="1135" y="735"/>
      <point x="837" y="735" type="curve"/>
      <point x="837" y="848" type="line"/>
      <point x="1279" y="848"/>
      <point x="1382" y="631"/>
      <point x="1382" y="410" type="curve" smooth="yes"/>
      <point x="1382" y="150"/>
      <point x="1194" y="-20"/>
      <point x="972" y="-20" type="curve" smooth="yes"/>
      <point x="718" y="-20"/>
      <point x="570" y="126"/>
      <point x="570" y="271" type="curve" smooth="yes"/>
      <point x="570" y="353"/>
      <point x="621" y="412"/>
      <point x="701" y="412" type="curve" smooth="yes"/>
      <point x="772" y="412"/>
      <point x="819" y="362"/>
      <point x="819" y="290" type="curve" smooth="yes"/>
      <point x="819" y="226"/>
      <point x="765" y="180"/>
      <point x="706" y="180" type="curve" smooth="yes"/>
      <point x="645" y="180"/>
      <point x="572" y="221"/>
      <point x="572" y="271" type="curve"/>
    </contour>
    <contour>
      <point x="50" y="110" type="line"/>
      <point x="411" y="110" type="line"/>
      <point x="411" y="0" type="line"/>
      <point x="50" y="0" type="line"/>
    </contour>
    <contour>
      <point x="1037" y="820" type="line"/>
      <point x="996" y="831"/>
      <point x="904" y="838"/>
      <point x="837" y="848" type="curve"/>
      <point x="1130" y="1298" type="line"/>
      <point x="1050" y="1363"/>
      <point x="905" y="1407"/>
      <point x="797" y="1407" type="curve" smooth="yes"/>
      <point x="419" y="1407"/>
      <point x="331" y="1205"/>
      <point x="331" y="861" type="curve" smooth="yes"/>
      <point x="331" y="0" type="line"/>
      <point x="131" y="0" type="line"/>
      <point x="131" y="882" type="line" smooth="yes"/>
      <point x="131" y="1288"/>
      <point x="361" y="1520"/>
      <point x="797" y="1520" type="curve" smooth="yes"/>
      <point x="1054" y="1520"/>
      <point x="1302" y="1388"/>
      <point x="1363" y="1322" type="curve"/>
    </contour>
  </outline>
</glyph>
<glyph name="endash" format="2">
  <advance width="1432"/>
  <unicode hex="2013"/>
  <outline>
    <contour>
      <point x="169" y="830" type="curve" smooth="yes"/>
      <point x="1267" y="830" type="line" smooth="yes"/>
      <point x="1307" y="830"/>
      <point x="1312" y="826"/>
      <point x="1312" y="802" type="curve" smooth="yes"/>
      <point x="1312" y="753" type="line" smooth="yes"/>
      <point x="1312" y="729"/>
      <point x="1309" y="720"/>
      <point x="1263" y="720" type="curve" smooth="yes"/>
      <point x="166" y="720" type="line" smooth="yes"/>
      <point x="122" y="720"/>
      <point x="120" y="724"/>
      <point x="120" y="750" type="curve" smooth="yes"/>
      <point x="120" y="802" type="line" smooth="yes"/>
      <point x="120" y="825"/>
      <point x="132" y="830"/>
    </contour>
  </outline>
</glyph>
<glyph name="quoteright" format="2">
  <advance width="478"/>
  <unicode hex="2019"/>
  <outline>
    <contour>
      <point x="104" y="1402" type="curve" smooth="yes"/>
      <point x="104" y="1468"/>
      <point x="162" y="1520"/>
      <point x="238" y="1520" type="curve" smooth="yes"/>
      <point x="316" y="1520"/>
      <point x="378" y="1458"/>
      <point x="378" y="1312" type="curve" smooth="yes"/>
      <point x="378" y="1178"/>
      <point x="288" y="1008"/>
      <point x="123" y="993" type="curve" smooth="yes"/>
      <point x="108" y="992"/>
      <point x="100" y="991"/>
      <point x="100" y="1008" type="curve" smooth="yes"/>
      <point x="100" y="1051" type="line" smooth="yes"/>
      <point x="100" y="1069"/>
      <point x="110" y="1072"/>
      <point x="125" y="1074" type="curve" smooth="yes"/>
      <point x="216" y="1088"/>
      <point x="294" y="1180"/>
      <point x="283" y="1295" type="curve" smooth="yes"/>
      <point x="281" y="1311"/>
      <point x="272" y="1303"/>
      <point x="261" y="1296" type="curve" smooth="yes"/>
      <point x="245" y="1285"/>
      <point x="231" y="1284"/>
      <point x="210" y="1284" type="curve" smooth="yes"/>
      <point x="144" y="1284"/>
      <point x="104" y="1336"/>
    </contour>
  </outline>
</glyph>
<glyph name="quotedblright" format="2">
  <advance width="878"/>
  <unicode hex="201D"/>
  <outline>
    <contour>
      <point x="104" y="1402" type="curve" smooth="yes"/>
      <point x="104" y="1468"/>
      <point x="162" y="1520"/>
      <point x="238" y="1520" type="curve" smooth="yes"/>
      <point x="316" y="1520"/>
      <point x="378" y="1458"/>
      <point x="378" y="1312" type="curve" smooth="yes"/>
      <point x="378" y="1178"/>
      <point x="288" y="1008"/>
      <point x="123" y="993" type="curve" smooth="yes"/>
      <point x="108" y="992"/>
      <point x="100" y="991"/>
      <point x="100" y="1008" type="curve" smooth="yes"/>
      <point x="100" y="1051" type="line" smooth="yes"/>
      <point x="100" y="1069"/>
      <point x="110" y="1072"/>
      <point x="125" y="1074" type="curve" smooth="yes"/>
      <point x="216" y="1088"/>
      <point x="294" y="1180"/>
      <point x="283" y="1295" type="curve" smooth="yes"/>
      <point x="281" y="1311"/>
      <point x="272" y="1303"/>
      <point x="261" y="1296" type="curve" smooth="yes"/>
      <point x="245" y="1285"/>
      <point x="231" y="1284"/>
      <point x="210" y="1284" type="curve" smooth="yes"/>
      <point x="144" y="1284"/>
      <point x="104" y="1336"/>
    </contour>
    <contour>
      <point x="504" y="1402" type="curve" smooth="yes"/>
      <point x="504" y="1468"/>
      <point x="562" y="1520"/>
      <point x="638" y="1520" type="curve" smooth="yes"/>
      <point x="716" y="1520"/>
      <point x="778" y="1458"/>
      <point x="778" y="1312" type="curve" smooth="yes"/>
      <point x="778" y="1178"/>
      <point x="688" y="1008"/>
      <point x="523" y="993" type="curve" smooth="yes"/>
      <point x="508" y="992"/>
      <point x="500" y="991"/>
      <point x="500" y="1008" type="curve" smooth="yes"/>
      <point x="500" y="1051" type="line" smooth="yes"/>
      <point x="500" y="1069"/>
      <point x="510" y="1072"/>
      <point x="525" y="1074" type="curve" smooth="yes"/>
      <point x="616" y="1088"/>
      <point x="694" y="1180"/>
      <point x="683" y="1295" type="curve" smooth="yes"/>
      <point x="681" y="1311"/>
      <point x="672" y="1303"/>
      <point x="661" y="1296" type="curve" smooth="yes"/>
      <point x="645" y="1285"/>
      <point x="631" y="1284"/>
      <point x="610" y="1284" type="curve" smooth="yes"/>
      <point x="544" y="1284"/>
      <point x="504" y="1336"/>
    </contour>
  </outline>
</glyph>
<glyph name="quotedblbase" format="2">
  <advance width="878"/>
  <unicode hex="201E"/>
  <outline>
    <contour>
      <point x="104" y="98" type="curve" smooth="yes"/>
      <point x="104" y="164"/>
      <point x="162" y="216"/>
      <point x="238" y="216" type="curve" smooth="yes"/>
      <point x="316" y="216"/>
      <point x="378" y="154"/>
      <point x="378" y="8" type="curve" smooth="yes"/>
      <point x="378" y="-126"/>
      <point x="288" y="-296"/>
      <point x="123" y="-311" type="curve" smooth="yes"/>
      <point x="108" y="-312"/>
      <point x="100" y="-313"/>
      <point x="100" y="-296" type="curve" smooth="yes"/>
      <point x="100" y="-253" type="line" smooth="yes"/>
      <point x="100" y="-235"/>
      <point x="110" y="-232"/>
      <point x="125" y="-230" type="curve" smooth="yes"/>
      <point x="216" y="-216"/>
      <point x="294" y="-124"/>
      <point x="283" y="-9" type="curve" smooth="yes"/>
      <point x="281" y="7"/>
      <point x="272" y="-1"/>
      <point x="261" y="-8" type="curve" smooth="yes"/>
      <point x="245" y="-19"/>
      <point x="231" y="-20"/>
      <point x="210" y="-20" type="curve" smooth="yes"/>
      <point x="144" y="-20"/>
      <point x="104" y="32"/>
    </contour>
    <contour>
      <point x="504" y="98" type="curve" smooth="yes"/>
      <point x="504" y="164"/>
      <point x="562" y="216"/>
      <point x="638" y="216" type="curve" smooth="yes"/>
      <point x="716" y="216"/>
      <point x="778" y="154"/>
      <point x="778" y="8" type="curve" smooth="yes"/>
      <point x="778" y="-126"/>
      <point x="688" y="-296"/>
      <point x="523" y="-311" type="curve" smooth="yes"/>
      <point x="508" y="-312"/>
      <point x="500" y="-313"/>
      <point x="500" y="-296" type="curve" smooth="yes"/>
      <point x="500" y="-253" type="line" smooth="yes"/>
      <point x="500" y="-235"/>
      <point x="510" y="-232"/>
      <point x="525" y="-230" type="curve" smooth="yes"/>
      <point x="616" y="-216"/>
      <point x="694" y="-124"/>
      <point x="683" y="-9" type="curve" smooth="yes"/>
      <point x="681" y="7"/>
      <point x="672" y="-1"/>
      <point x="661" y="-8" type="curve" smooth="yes"/>
      <point x="645" y="-19"/>
      <point x="631" y="-20"/>
      <point x="610" y="-20" type="curve" smooth="yes"/>
      <point x="544" y="-20"/>
      <point x="504" y="32"/>
    </contour>
  </outline>
</glyph>
<glyph name="emptyset" format="2">
  <advance height="2309" width="1140"/>
  <unicode hex="2205"/>
  <outline>
    <contour>
      <point x="48" y="311" type="line"/>
      <point x="1019" y="1282" type="line"/>
      <point x="1102" y="1209" type="line"/>
      <point x="131" y="238" type="line"/>
    </contour>
    <contour>
      <point x="242" y="770" type="curve" smooth="yes"/>
      <point x="242" y="592"/>
      <point x="358" y="433"/>
      <point x="571" y="433" type="curve" smooth="yes"/>
      <point x="784" y="433"/>
      <point x="898" y="592"/>
      <point x="898" y="770" type="curve" smooth="yes"/>
      <point x="898" y="948"/>
      <point x="784" y="1107"/>
      <point x="571" y="1107" type="curve" smooth="yes"/>
      <point x="358" y="1107"/>
      <point x="242" y="948"/>
    </contour>
    <contour>
      <point x="112" y="770" type="curve" smooth="yes"/>
      <point x="112" y="1020"/>
      <point x="289" y="1229"/>
      <point x="571" y="1229" type="curve" smooth="yes"/>
      <point x="853" y="1229"/>
      <point x="1028" y="1020"/>
      <point x="1028" y="770" type="curve" smooth="yes"/>
      <point x="1028" y="520"/>
      <point x="853" y="310"/>
      <point x="571" y="310" type="curve" smooth="yes"/>
      <point x="289" y="310"/>
      <point x="112" y="520"/>
    </contour>
  </outline>
</glyph>
<glyph name="approxequal" format="2">
  <advance width="1200"/>
  <unicode hex="2248"/>
  <outline>
    <contour>
      <point x="798" y="864" type="curve" smooth="yes"/>
      <point x="680" y="864"/>
      <point x="597" y="942"/>
      <point x="542" y="1007" type="curve" smooth="yes"/>
      <point x="493" y="1065"/>
      <point x="441" y="1091"/>
      <point x="388" y="1091" type="curve" smooth="yes"/>
      <point x="281" y="1091"/>
      <point x="232" y="1036"/>
      <point x="232" y="957" type="curve" smooth="yes"/>
      <point x="232" y="941"/>
      <point x="234" y="925"/>
      <point x="238" y="907" type="curve" smooth="yes"/>
      <point x="238" y="907"/>
      <point x="239" y="905"/>
      <point x="239" y="904" type="curve" smooth="yes"/>
      <point x="240" y="893"/>
      <point x="230" y="882"/>
      <point x="219" y="882" type="curve" smooth="yes"/>
      <point x="136" y="882" type="line" smooth="yes"/>
      <point x="127" y="882"/>
      <point x="119" y="888"/>
      <point x="117" y="897" type="curve" smooth="yes"/>
      <point x="80" y="1028"/>
      <point x="169" y="1164"/>
      <point x="307" y="1203" type="curve" smooth="yes"/>
      <point x="333" y="1210"/>
      <point x="359" y="1214"/>
      <point x="388" y="1214" type="curve" smooth="yes"/>
      <point x="513" y="1214"/>
      <point x="596" y="1133"/>
      <point x="650" y="1071" type="curve" smooth="yes"/>
      <point x="699" y="1014"/>
      <point x="737" y="987"/>
      <point x="788" y="987" type="curve" smooth="yes"/>
      <point x="877" y="987"/>
      <point x="918" y="1035"/>
      <point x="918" y="1110" type="curve" smooth="yes"/>
      <point x="918" y="1129"/>
      <point x="916" y="1149"/>
      <point x="910" y="1171" type="curve" smooth="yes"/>
      <point x="910" y="1172"/>
      <point x="909" y="1173"/>
      <point x="909" y="1174" type="curve" smooth="yes"/>
      <point x="908" y="1185"/>
      <point x="918" y="1196"/>
      <point x="929" y="1196" type="curve" smooth="yes"/>
      <point x="1012" y="1196" type="line" smooth="yes"/>
      <point x="1020" y="1196"/>
      <point x="1029" y="1190"/>
      <point x="1031" y="1181" type="curve" smooth="yes"/>
      <point x="1065" y="1038"/>
      <point x="975" y="900"/>
      <point x="849" y="870" type="curve" smooth="yes"/>
      <point x="832" y="866"/>
      <point x="816" y="864"/>
    </contour>
    <contour>
      <point x="798" y="364" type="curve" smooth="yes"/>
      <point x="680" y="364"/>
      <point x="597" y="442"/>
      <point x="542" y="507" type="curve" smooth="yes"/>
      <point x="493" y="565"/>
      <point x="441" y="591"/>
      <point x="388" y="591" type="curve" smooth="yes"/>
      <point x="281" y="591"/>
      <point x="232" y="536"/>
      <point x="232" y="457" type="curve" smooth="yes"/>
      <point x="232" y="441"/>
      <point x="234" y="425"/>
      <point x="238" y="407" type="curve" smooth="yes"/>
      <point x="238" y="407"/>
      <point x="239" y="405"/>
      <point x="239" y="404" type="curve" smooth="yes"/>
      <point x="240" y="393"/>
      <point x="230" y="382"/>
      <point x="219" y="382" type="curve" smooth="yes"/>
      <point x="136" y="382" type="line" smooth="yes"/>
      <point x="127" y="382"/>
      <point x="119" y="388"/>
      <point x="117" y="397" type="curve" smooth="yes"/>
      <point x="80" y="528"/>
      <point x="169" y="664"/>
      <point x="307" y="703" type="curve" smooth="yes"/>
      <point x="333" y="710"/>
      <point x="359" y="714"/>
      <point x="388" y="714" type="curve" smooth="yes"/>
      <point x="513" y="714"/>
      <point x="596" y="633"/>
      <point x="650" y="571" type="curve" smooth="yes"/>
      <point x="699" y="514"/>
      <point x="737" y="487"/>
      <point x="788" y="487" type="curve" smooth="yes"/>
      <point x="877" y="487"/>
      <point x="918" y="535"/>
      <point x="918" y="610" type="curve" smooth="yes"/>
      <point x="918" y="629"/>
      <point x="916" y="649"/>
      <point x="910" y="671" type="curve" smooth="yes"/>
      <point x="910" y="672"/>
      <point x="909" y="673"/>
      <point x="909" y="674" type="curve" smooth="yes"/>
      <point x="908" y="685"/>
      <point x="918" y="696"/>
      <point x="929" y="696" type="curve" smooth="yes"/>
      <point x="1012" y="696" type="line" smooth="yes"/>
      <point x="1020" y="696"/>
      <point x="1029" y="690"/>
      <point x="1031" y="681" type="curve" smooth="yes"/>
      <point x="1065" y="538"/>
      <point x="975" y="400"/>
      <point x="849" y="370" type="curve" smooth="yes"/>
      <point x="832" y="366"/>
      <point x="816" y="364"/>
    </contour>
  </outline>
</glyph>
<glyph name="leftBlackIndex" format="2">
  <advance width="2028"/>
  <unicode hex="261A"/>
  <outline>
    <contour>
      <point x="1992" y="847" type="curve" smooth="yes"/>
      <point x="1992" y="941"/>
      <point x="1960" y="985"/>
      <point x="1910" y="985" type="curve" smooth="yes"/>
      <point x="1860" y="985"/>
      <point x="1703" y="992"/>
      <point x="1634" y="971" type="curve" smooth="yes"/>
      <point x="1598" y="960"/>
      <point x="1575" y="936"/>
      <point x="1561" y="918" type="curve" smooth="yes"/>
      <point x="1543" y="895"/>
      <point x="1544" y="901"/>
      <point x="1521" y="915" type="curve" smooth="yes"/>
      <point x="1403" y="986"/>
      <point x="1298" y="1004"/>
      <point x="1195" y="1018" type="curve" smooth="yes"/>
      <point x="1037" y="1040"/>
      <point x="886" y="1047"/>
      <point x="693" y="1047" type="curve" smooth="yes"/>
      <point x="500" y="1047"/>
      <point x="347" y="1039"/>
      <point x="271" y="1037" type="curve" smooth="yes"/>
      <point x="114" y="1034"/>
      <point x="30" y="994"/>
      <point x="30" y="940" type="curve" smooth="yes"/>
      <point x="30" y="896"/>
      <point x="47" y="853"/>
      <point x="243" y="853" type="curve" smooth="yes"/>
      <point x="446" y="853"/>
      <point x="547" y="840"/>
      <point x="586" y="830" type="curve" smooth="yes"/>
      <point x="600" y="827"/>
      <point x="590" y="821"/>
      <point x="576" y="815" type="curve" smooth="yes"/>
      <point x="534" y="797"/>
      <point x="502" y="760"/>
      <point x="502" y="708" type="curve" smooth="yes"/>
      <point x="502" y="617"/>
      <point x="595" y="565"/>
      <point x="631" y="548" type="curve" smooth="yes"/>
      <point x="640" y="543"/>
      <point x="643" y="539"/>
      <point x="639" y="533" type="curve" smooth="yes"/>
      <point x="633" y="523"/>
      <point x="629" y="502"/>
      <point x="638" y="467" type="curve" smooth="yes"/>
      <point x="650" y="421"/>
      <point x="703" y="401"/>
      <point x="725" y="391" type="curve" smooth="yes"/>
      <point x="735" y="387"/>
      <point x="735" y="384"/>
      <point x="734" y="376" type="curve" smooth="yes"/>
      <point x="733" y="370"/>
      <point x="730" y="361"/>
      <point x="730" y="350" type="curve" smooth="yes"/>
      <point x="730" y="296"/>
      <point x="745" y="224"/>
      <point x="828" y="224" type="curve" smooth="yes"/>
      <point x="870" y="224"/>
      <point x="907" y="239"/>
      <point x="942" y="262" type="curve" smooth="yes"/>
      <point x="952" y="269"/>
      <point x="954" y="270"/>
      <point x="968" y="266" type="curve" smooth="yes"/>
      <point x="1025" y="252"/>
      <point x="1127" y="239"/>
      <point x="1233" y="239" type="curve" smooth="yes"/>
      <point x="1327" y="239"/>
      <point x="1457" y="264"/>
      <point x="1521" y="283" type="curve" smooth="yes"/>
      <point x="1549" y="291"/>
      <point x="1556" y="294"/>
      <point x="1549" y="268" type="curve" smooth="yes"/>
      <point x="1542" y="242"/>
      <point x="1538" y="219"/>
      <point x="1538" y="204" type="curve" smooth="yes"/>
      <point x="1538" y="117"/>
      <point x="1600" y="98"/>
      <point x="1669" y="98" type="curve" smooth="yes"/>
      <point x="1742" y="98"/>
      <point x="1802" y="119"/>
      <point x="1857" y="119" type="curve" smooth="yes"/>
      <point x="1916" y="119"/>
      <point x="1927" y="95"/>
      <point x="1971" y="95" type="curve" smooth="yes"/>
      <point x="1990" y="95"/>
      <point x="1998" y="107"/>
      <point x="1998" y="141" type="curve" smooth="yes"/>
      <point x="1998" y="330"/>
      <point x="1992" y="631"/>
    </contour>
    <contour>
      <point x="1727" y="843" type="curve" smooth="yes"/>
      <point x="1727" y="820"/>
      <point x="1708" y="801"/>
      <point x="1685" y="801" type="curve" smooth="yes"/>
      <point x="1662" y="801"/>
      <point x="1643" y="820"/>
      <point x="1643" y="843" type="curve" smooth="yes"/>
      <point x="1643" y="866"/>
      <point x="1662" y="885"/>
      <point x="1685" y="885" type="curve" smooth="yes"/>
      <point x="1708" y="885"/>
      <point x="1727" y="866"/>
    </contour>
  </outline>
</glyph>
<glyph name="rightBlackIndex" format="2">
  <advance width="2028"/>
  <unicode hex="261B"/>
  <outline>
    <contour>
      <point x="301" y="291" type="curve" smooth="yes"/>
      <point x="301" y="268"/>
      <point x="320" y="249"/>
      <point x="343" y="249" type="curve" smooth="yes"/>
      <point x="366" y="249"/>
      <point x="385" y="268"/>
      <point x="385" y="291" type="curve" smooth="yes"/>
      <point x="385" y="314"/>
      <point x="366" y="333"/>
      <point x="343" y="333" type="curve" smooth="yes"/>
      <point x="320" y="333"/>
      <point x="301" y="314"/>
    </contour>
    <contour>
      <point x="36" y="847" type="curve" smooth="yes"/>
      <point x="36" y="941"/>
      <point x="68" y="985"/>
      <point x="118" y="985" type="curve" smooth="yes"/>
      <point x="168" y="985"/>
      <point x="325" y="992"/>
      <point x="394" y="971" type="curve" smooth="yes"/>
      <point x="430" y="960"/>
      <point x="453" y="936"/>
      <point x="467" y="918" type="curve" smooth="yes"/>
      <point x="485" y="895"/>
      <point x="484" y="901"/>
      <point x="507" y="915" type="curve" smooth="yes"/>
      <point x="625" y="986"/>
      <point x="730" y="1004"/>
      <point x="833" y="1018" type="curve" smooth="yes"/>
      <point x="991" y="1040"/>
      <point x="1142" y="1047"/>
      <point x="1335" y="1047" type="curve" smooth="yes"/>
      <point x="1528" y="1047"/>
      <point x="1681" y="1039"/>
      <point x="1757" y="1037" type="curve" smooth="yes"/>
      <point x="1914" y="1034"/>
      <point x="1998" y="994"/>
      <point x="1998" y="940" type="curve" smooth="yes"/>
      <point x="1998" y="896"/>
      <point x="1981" y="853"/>
      <point x="1785" y="853" type="curve" smooth="yes"/>
      <point x="1582" y="853"/>
      <point x="1481" y="840"/>
      <point x="1442" y="830" type="curve" smooth="yes"/>
      <point x="1428" y="827"/>
      <point x="1438" y="821"/>
      <point x="1452" y="815" type="curve" smooth="yes"/>
      <point x="1494" y="797"/>
      <point x="1526" y="760"/>
      <point x="1526" y="708" type="curve" smooth="yes"/>
      <point x="1526" y="617"/>
      <point x="1433" y="565"/>
      <point x="1397" y="548" type="curve" smooth="yes"/>
      <point x="1388" y="543"/>
      <point x="1385" y="539"/>
      <point x="1389" y="533" type="curve" smooth="yes"/>
      <point x="1395" y="523"/>
      <point x="1399" y="502"/>
      <point x="1390" y="467" type="curve" smooth="yes"/>
      <point x="1378" y="421"/>
      <point x="1325" y="401"/>
      <point x="1303" y="391" type="curve" smooth="yes"/>
      <point x="1293" y="387"/>
      <point x="1293" y="384"/>
      <point x="1294" y="376" type="curve" smooth="yes"/>
      <point x="1295" y="370"/>
      <point x="1298" y="361"/>
      <point x="1298" y="350" type="curve" smooth="yes"/>
      <point x="1298" y="296"/>
      <point x="1283" y="224"/>
      <point x="1200" y="224" type="curve" smooth="yes"/>
      <point x="1158" y="224"/>
      <point x="1121" y="239"/>
      <point x="1086" y="262" type="curve" smooth="yes"/>
      <point x="1076" y="269"/>
      <point x="1074" y="270"/>
      <point x="1060" y="266" type="curve" smooth="yes"/>
      <point x="1003" y="252"/>
      <point x="901" y="239"/>
      <point x="795" y="239" type="curve" smooth="yes"/>
      <point x="701" y="239"/>
      <point x="571" y="264"/>
      <point x="507" y="283" type="curve" smooth="yes"/>
      <point x="479" y="291"/>
      <point x="472" y="294"/>
      <point x="479" y="268" type="curve" smooth="yes"/>
      <point x="486" y="242"/>
      <point x="490" y="219"/>
      <point x="490" y="204" type="curve" smooth="yes"/>
      <point x="490" y="117"/>
      <point x="428" y="98"/>
      <point x="359" y="98" type="curve" smooth="yes"/>
      <point x="286" y="98"/>
      <point x="226" y="119"/>
      <point x="171" y="119" type="curve" smooth="yes"/>
      <point x="112" y="119"/>
      <point x="101" y="95"/>
      <point x="57" y="95" type="curve" smooth="yes"/>
      <point x="38" y="95"/>
      <point x="30" y="107"/>
      <point x="30" y="141" type="curve" smooth="yes"/>
      <point x="30" y="330"/>
      <point x="36" y="631"/>
    </contour>
  </outline>
</glyph>
<glyph name="rotatedFloralHeartBullet" format="2">
  <advance width="1654"/>
  <unicode hex="2767"/>
  <outline>
    <contour>
      <point x="606" y="580" type="curve" smooth="yes"/>
      <point x="570" y="620"/>
      <point x="544" y="674"/>
      <point x="544" y="757" type="curve" smooth="yes"/>
      <point x="544" y="871"/>
      <point x="633" y="951"/>
      <point x="754" y="951" type="curve" smooth="yes"/>
      <point x="1033" y="951"/>
      <point x="1014" y="520"/>
      <point x="1242" y="520" type="curve" smooth="yes"/>
      <point x="1348" y="520"/>
      <point x="1426" y="594"/>
      <point x="1426" y="730" type="curve" smooth="yes"/>
      <point x="1426" y="862"/>
      <point x="1354" y="978"/>
      <point x="1214" y="1034" type="curve" smooth="yes"/>
      <point x="1202" y="1039"/>
      <point x="1197" y="1039"/>
      <point x="1198" y="1047" type="curve" smooth="yes"/>
      <point x="1204" y="1091" type="line" smooth="yes"/>
      <point x="1205" y="1098"/>
      <point x="1208" y="1105"/>
      <point x="1232" y="1098" type="curve" smooth="yes"/>
      <point x="1483" y="1029"/>
      <point x="1574" y="833"/>
      <point x="1574" y="619" type="curve" smooth="yes"/>
      <point x="1574" y="244"/>
      <point x="1307" y="-17"/>
      <point x="921" y="-17" type="curve" smooth="yes"/>
      <point x="673" y="-17"/>
      <point x="554" y="110"/>
      <point x="554" y="257" type="curve" smooth="yes"/>
      <point x="554" y="320"/>
      <point x="573" y="364"/>
      <point x="601" y="396" type="curve" smooth="yes"/>
      <point x="629" y="429"/>
      <point x="674" y="437"/>
      <point x="598" y="442" type="curve" smooth="yes"/>
      <point x="502" y="448"/>
      <point x="436" y="460"/>
      <point x="334" y="493" type="curve" smooth="yes"/>
      <point x="171" y="545"/>
      <point x="111" y="440"/>
      <point x="111" y="337" type="curve" smooth="yes"/>
      <point x="111" y="243"/>
      <point x="160" y="195"/>
      <point x="184" y="195" type="curve" smooth="yes"/>
      <point x="224" y="195"/>
      <point x="238" y="286"/>
      <point x="308" y="286" type="curve" smooth="yes"/>
      <point x="364" y="286"/>
      <point x="404" y="240"/>
      <point x="404" y="170" type="curve" smooth="yes"/>
      <point x="404" y="100"/>
      <point x="357" y="52"/>
      <point x="271" y="52" type="curve" smooth="yes"/>
      <point x="157" y="52"/>
      <point x="30" y="166"/>
      <point x="30" y="348" type="curve" smooth="yes"/>
      <point x="30" y="419"/>
      <point x="65" y="525"/>
      <point x="151" y="570" type="curve" smooth="yes"/>
      <point x="186" y="588"/>
      <point x="198" y="595"/>
      <point x="165" y="634" type="curve" smooth="yes"/>
      <point x="117" y="691"/>
      <point x="88" y="759"/>
      <point x="88" y="851" type="curve" smooth="yes"/>
      <point x="88" y="1093"/>
      <point x="245" y="1197"/>
      <point x="359" y="1197" type="curve" smooth="yes"/>
      <point x="445" y="1197"/>
      <point x="492" y="1149"/>
      <point x="492" y="1079" type="curve" smooth="yes"/>
      <point x="492" y="1009"/>
      <point x="452" y="963"/>
      <point x="396" y="963" type="curve" smooth="yes"/>
      <point x="326" y="963"/>
      <point x="312" y="1054"/>
      <point x="272" y="1054" type="curve" smooth="yes"/>
      <point x="248" y="1054"/>
      <point x="178" y="985"/>
      <point x="178" y="851" type="curve" smooth="yes"/>
      <point x="178" y="660"/>
      <point x="318" y="569"/>
      <point x="574" y="544" type="curve" smooth="yes"/>
      <point x="659" y="536"/>
      <point x="647" y="535"/>
    </contour>
  </outline>
</glyph>
<glyph name="registered.ss01" format="2">
  <advance width="1125"/>
  <unicode hex="F8E8"/>
  <outline>
    <contour>
      <point x="562" y="1592" type="curve" smooth="yes"/>
      <point x="828" y="1592"/>
      <point x="1025" y="1395"/>
      <point x="1025" y="1130" type="curve" smooth="yes"/>
      <point x="1025" y="864"/>
      <point x="827" y="668"/>
      <point x="562" y="668" type="curve" smooth="yes"/>
      <point x="296" y="668"/>
      <point x="100" y="865"/>
      <point x="100" y="1130" type="curve" smooth="yes"/>
      <point x="100" y="1396"/>
      <point x="297" y="1592"/>
    </contour>
    <contour>
      <point x="562" y="724" type="curve" smooth="yes"/>
      <point x="792" y="724"/>
      <point x="968" y="889"/>
      <point x="968" y="1130" type="curve" smooth="yes"/>
      <point x="968" y="1371"/>
      <point x="791" y="1536"/>
      <point x="562" y="1536" type="curve" smooth="yes"/>
      <point x="332" y="1536"/>
      <point x="157" y="1371"/>
      <point x="157" y="1130" type="curve" smooth="yes"/>
      <point x="157" y="888"/>
      <point x="333" y="724"/>
    </contour>
    <contour>
      <point x="855" y="932" type="curve" smooth="yes"/>
      <point x="842" y="888"/>
      <point x="811" y="856"/>
      <point x="752" y="856" type="curve" smooth="yes"/>
      <point x="584" y="856"/>
      <point x="750" y="1112"/>
      <point x="565" y="1112" type="curve" smooth="yes"/>
      <point x="473" y="1112" type="line" smooth="yes"/>
      <point x="457" y="1112"/>
      <point x="457" y="1109"/>
      <point x="457" y="1093" type="curve" smooth="yes"/>
      <point x="457" y="915" type="line" smooth="yes"/>
      <point x="457" y="904"/>
      <point x="459" y="903"/>
      <point x="471" y="903" type="curve" smooth="yes"/>
      <point x="525" y="903" type="line" smooth="yes"/>
      <point x="535" y="903"/>
      <point x="536" y="900"/>
      <point x="536" y="890" type="curve" smooth="yes"/>
      <point x="536" y="874" type="line" smooth="yes"/>
      <point x="536" y="865"/>
      <point x="533" y="864"/>
      <point x="524" y="864" type="curve" smooth="yes"/>
      <point x="320" y="864" type="line" smooth="yes"/>
      <point x="311" y="864"/>
      <point x="309" y="866"/>
      <point x="309" y="875" type="curve" smooth="yes"/>
      <point x="309" y="891" type="line" smooth="yes"/>
      <point x="309" y="902"/>
      <point x="312" y="903"/>
      <point x="322" y="903" type="curve" smooth="yes"/>
      <point x="371" y="903" type="line" smooth="yes"/>
      <point x="386" y="903"/>
      <point x="388" y="905"/>
      <point x="388" y="919" type="curve" smooth="yes"/>
      <point x="388" y="1347" type="line" smooth="yes"/>
      <point x="388" y="1362"/>
      <point x="386" y="1364"/>
      <point x="371" y="1364" type="curve" smooth="yes"/>
      <point x="322" y="1364" type="line" smooth="yes"/>
      <point x="309" y="1364"/>
      <point x="309" y="1367"/>
      <point x="309" y="1380" type="curve" smooth="yes"/>
      <point x="309" y="1391" type="line" smooth="yes"/>
      <point x="309" y="1400"/>
      <point x="310" y="1404"/>
      <point x="319" y="1404" type="curve" smooth="yes"/>
      <point x="594" y="1404" type="line" smooth="yes"/>
      <point x="724" y="1404"/>
      <point x="774" y="1339"/>
      <point x="774" y="1260" type="curve" smooth="yes"/>
      <point x="774" y="1201"/>
      <point x="749" y="1157"/>
      <point x="681" y="1136" type="curve" smooth="yes"/>
      <point x="667" y="1132"/>
      <point x="667" y="1127"/>
      <point x="683" y="1119" type="curve" smooth="yes"/>
      <point x="789" y="1062"/>
      <point x="699" y="903"/>
      <point x="778" y="903" type="curve" smooth="yes"/>
      <point x="791" y="903"/>
      <point x="805" y="915"/>
      <point x="816" y="940" type="curve" smooth="yes"/>
      <point x="819" y="946"/>
      <point x="821" y="951"/>
      <point x="828" y="948" type="curve" smooth="yes"/>
      <point x="846" y="942" type="line" smooth="yes"/>
      <point x="853" y="939"/>
      <point x="857" y="938"/>
    </contour>
    <contour>
      <point x="474" y="1155" type="curve" smooth="yes"/>
      <point x="594" y="1155" type="line" smooth="yes"/>
      <point x="649" y="1155"/>
      <point x="702" y="1189"/>
      <point x="702" y="1260" type="curve" smooth="yes"/>
      <point x="702" y="1331"/>
      <point x="649" y="1364"/>
      <point x="594" y="1364" type="curve" smooth="yes"/>
      <point x="474" y="1364" type="line" smooth="yes"/>
      <point x="457" y="1364"/>
      <point x="457" y="1364"/>
      <point x="457" y="1347" type="curve" smooth="yes"/>
      <point x="457" y="1172" type="line" smooth="yes"/>
      <point x="457" y="1157"/>
      <point x="459" y="1155"/>
    </contour>
  </outline>
</glyph>
